M48
METRIC,TZ
T1C0.300
T2C0.600
T3C0.750
T4C1.000
%
G90
G05
T1
X114800Y-85788
X114800Y-87800
X115600Y-101200
X116300Y-103400
X119000Y-110000
X119100Y-102900
X119374Y-100300
X119400Y-87100
X119400Y-96300
X120200Y-83000
X124566Y-121134
X124876Y-90400
X124900Y-79300
X125056Y-120502
X126864Y-108364
X128500Y-106100
X137700Y-101700
X139000Y-115500
X139000Y-118000
X139300Y-79300
X139900Y-108400
X146200Y-82400
T2
X146700Y-113000
X146700Y-116600
T3
X115165Y-68513
X115165Y-70513
X115165Y-72513
X115165Y-74513
X115165Y-76513
X115165Y-78513
X115165Y-80513
X116165Y-105313
X116165Y-107313
X116165Y-109313
X116165Y-111313
X116165Y-113313
X116165Y-115313
X116165Y-117313
X125000Y-124050
X127000Y-124050
X129000Y-124050
X131000Y-124050
X133000Y-124050
X135000Y-124050
X137000Y-124050
X139000Y-124050
X147600Y-85400
X147600Y-87400
X147600Y-89400
X148400Y-70300
X148400Y-72300
X148400Y-74300
X148700Y-96400
X148700Y-98400
X148700Y-100400
X148700Y-102400
X148700Y-104400
X148700Y-106400
X148700Y-108400
T4
X123120Y-69120
X123120Y-71660
X123120Y-74200
X123120Y-76740
X123120Y-79280
X123120Y-81820
X123120Y-84360
X123120Y-86900
X123120Y-89440
X123120Y-91980
X123120Y-94520
X123120Y-97060
X123120Y-99600
X123120Y-102140
X123120Y-104680
X123120Y-107220
X123120Y-109760
X123120Y-112300
X123120Y-114840
X123120Y-117380
X140900Y-69120
X140900Y-71660
X140900Y-74200
X140900Y-76740
X140900Y-79280
X140900Y-81820
X140900Y-84360
X140900Y-86900
X140900Y-89440
X140900Y-91980
X140900Y-94520
X140900Y-97060
X140900Y-99600
X140900Y-102140
X140900Y-104680
X140900Y-107220
X140900Y-109760
X140900Y-112300
X140900Y-114840
X140900Y-117380
M30
