%TF.GenerationSoftware,KiCad,Pcbnew,9.0.1*%
%TF.CreationDate,2025-08-12T13:46:24-07:00*%
%TF.ProjectId,fone,666f6e65-2e6b-4696-9361-645f70636258,0.5*%
%TF.SameCoordinates,Original*%
%TF.FileFunction,Copper,L1,Top*%
%TF.FilePolarity,Positive*%
%FSLAX46Y46*%
G04 Gerber Fmt 4.6, Leading zero omitted, Abs format (unit mm)*
G04 Created by KiCad (PCBNEW 9.0.1) date 2025-08-12 13:46:24*
%MOMM*%
%LPD*%
G01*
G04 APERTURE LIST*
G04 Aperture macros list*
%AMRoundRect*
0 Rectangle with rounded corners*
0 $1 Rounding radius*
0 $2 $3 $4 $5 $6 $7 $8 $9 X,Y pos of 4 corners*
0 Add a 4 corners polygon primitive as box body*
4,1,4,$2,$3,$4,$5,$6,$7,$8,$9,$2,$3,0*
0 Add four circle primitives for the rounded corners*
1,1,$1+$1,$2,$3*
1,1,$1+$1,$4,$5*
1,1,$1+$1,$6,$7*
1,1,$1+$1,$8,$9*
0 Add four rect primitives between the rounded corners*
20,1,$1+$1,$2,$3,$4,$5,0*
20,1,$1+$1,$4,$5,$6,$7,0*
20,1,$1+$1,$6,$7,$8,$9,0*
20,1,$1+$1,$8,$9,$2,$3,0*%
%AMFreePoly0*
4,1,37,0.800000,0.796148,0.878414,0.796148,1.032228,0.765552,1.177117,0.705537,1.307515,0.618408,1.418408,0.507515,1.505537,0.377117,1.565552,0.232228,1.596148,0.078414,1.596148,-0.078414,1.565552,-0.232228,1.505537,-0.377117,1.418408,-0.507515,1.307515,-0.618408,1.177117,-0.705537,1.032228,-0.765552,0.878414,-0.796148,0.800000,-0.796148,0.800000,-0.800000,-1.400000,-0.800000,
-1.403843,-0.796157,-1.439018,-0.796157,-1.511114,-0.766294,-1.566294,-0.711114,-1.596157,-0.639018,-1.596157,-0.603843,-1.600000,-0.600000,-1.600000,0.600000,-1.596157,0.603843,-1.596157,0.639018,-1.566294,0.711114,-1.511114,0.766294,-1.439018,0.796157,-1.403843,0.796157,-1.400000,0.800000,0.800000,0.800000,0.800000,0.796148,0.800000,0.796148,$1*%
%AMFreePoly1*
4,1,37,1.403843,0.796157,1.439018,0.796157,1.511114,0.766294,1.566294,0.711114,1.596157,0.639018,1.596157,0.603843,1.600000,0.600000,1.600000,-0.600000,1.596157,-0.603843,1.596157,-0.639018,1.566294,-0.711114,1.511114,-0.766294,1.439018,-0.796157,1.403843,-0.796157,1.400000,-0.800000,-0.800000,-0.800000,-0.800000,-0.796148,-0.878414,-0.796148,-1.032228,-0.765552,-1.177117,-0.705537,
-1.307515,-0.618408,-1.418408,-0.507515,-1.505537,-0.377117,-1.565552,-0.232228,-1.596148,-0.078414,-1.596148,0.078414,-1.565552,0.232228,-1.505537,0.377117,-1.418408,0.507515,-1.307515,0.618408,-1.177117,0.705537,-1.032228,0.765552,-0.878414,0.796148,-0.800000,0.796148,-0.800000,0.800000,1.400000,0.800000,1.403843,0.796157,1.403843,0.796157,$1*%
%AMFreePoly2*
4,1,37,0.603843,0.796157,0.639018,0.796157,0.711114,0.766294,0.766294,0.711114,0.796157,0.639018,0.796157,0.603843,0.800000,0.600000,0.800000,-0.600000,0.796157,-0.603843,0.796157,-0.639018,0.766294,-0.711114,0.711114,-0.766294,0.639018,-0.796157,0.603843,-0.796157,0.600000,-0.800000,0.000000,-0.800000,0.000000,-0.796148,-0.078414,-0.796148,-0.232228,-0.765552,-0.377117,-0.705537,
-0.507515,-0.618408,-0.618408,-0.507515,-0.705537,-0.377117,-0.765552,-0.232228,-0.796148,-0.078414,-0.796148,0.078414,-0.765552,0.232228,-0.705537,0.377117,-0.618408,0.507515,-0.507515,0.618408,-0.377117,0.705537,-0.232228,0.765552,-0.078414,0.796148,0.000000,0.796148,0.000000,0.800000,0.600000,0.800000,0.603843,0.796157,0.603843,0.796157,$1*%
%AMFreePoly3*
4,1,37,0.000000,0.796148,0.078414,0.796148,0.232228,0.765552,0.377117,0.705537,0.507515,0.618408,0.618408,0.507515,0.705537,0.377117,0.765552,0.232228,0.796148,0.078414,0.796148,-0.078414,0.765552,-0.232228,0.705537,-0.377117,0.618408,-0.507515,0.507515,-0.618408,0.377117,-0.705537,0.232228,-0.765552,0.078414,-0.796148,0.000000,-0.796148,0.000000,-0.800000,-0.600000,-0.800000,
-0.603843,-0.796157,-0.639018,-0.796157,-0.711114,-0.766294,-0.766294,-0.711114,-0.796157,-0.639018,-0.796157,-0.603843,-0.800000,-0.600000,-0.800000,0.600000,-0.796157,0.603843,-0.796157,0.639018,-0.766294,0.711114,-0.711114,0.766294,-0.639018,0.796157,-0.603843,0.796157,-0.600000,0.800000,0.000000,0.800000,0.000000,0.796148,0.000000,0.796148,$1*%
G04 Aperture macros list end*
%TA.AperFunction,ComponentPad*%
%ADD10RoundRect,0.250000X0.550000X-0.550000X0.550000X0.550000X-0.550000X0.550000X-0.550000X-0.550000X0*%
%TD*%
%TA.AperFunction,ComponentPad*%
%ADD11C,1.600000*%
%TD*%
%TA.AperFunction,SMDPad,CuDef*%
%ADD12RoundRect,0.162500X-0.162500X0.650000X-0.162500X-0.650000X0.162500X-0.650000X0.162500X0.650000X0*%
%TD*%
%TA.AperFunction,SMDPad,CuDef*%
%ADD13RoundRect,0.250000X-0.350000X-0.450000X0.350000X-0.450000X0.350000X0.450000X-0.350000X0.450000X0*%
%TD*%
%TA.AperFunction,SMDPad,CuDef*%
%ADD14RoundRect,0.250000X0.350000X0.450000X-0.350000X0.450000X-0.350000X-0.450000X0.350000X-0.450000X0*%
%TD*%
%TA.AperFunction,SMDPad,CuDef*%
%ADD15RoundRect,0.250000X-0.450000X0.350000X-0.450000X-0.350000X0.450000X-0.350000X0.450000X0.350000X0*%
%TD*%
%TA.AperFunction,ComponentPad*%
%ADD16RoundRect,0.250000X-0.350000X-0.625000X0.350000X-0.625000X0.350000X0.625000X-0.350000X0.625000X0*%
%TD*%
%TA.AperFunction,ComponentPad*%
%ADD17O,1.200000X1.750000*%
%TD*%
%TA.AperFunction,ComponentPad*%
%ADD18RoundRect,0.250000X-0.625000X0.350000X-0.625000X-0.350000X0.625000X-0.350000X0.625000X0.350000X0*%
%TD*%
%TA.AperFunction,ComponentPad*%
%ADD19O,1.750000X1.200000*%
%TD*%
%TA.AperFunction,ComponentPad*%
%ADD20RoundRect,0.250000X0.625000X-0.350000X0.625000X0.350000X-0.625000X0.350000X-0.625000X-0.350000X0*%
%TD*%
%TA.AperFunction,SMDPad,CuDef*%
%ADD21RoundRect,0.250000X-0.337500X-0.475000X0.337500X-0.475000X0.337500X0.475000X-0.337500X0.475000X0*%
%TD*%
%TA.AperFunction,SMDPad,CuDef*%
%ADD22RoundRect,0.250000X0.475000X-0.337500X0.475000X0.337500X-0.475000X0.337500X-0.475000X-0.337500X0*%
%TD*%
%TA.AperFunction,SMDPad,CuDef*%
%ADD23FreePoly0,0.000000*%
%TD*%
%TA.AperFunction,ComponentPad*%
%ADD24RoundRect,0.200000X-0.600000X-0.600000X0.600000X-0.600000X0.600000X0.600000X-0.600000X0.600000X0*%
%TD*%
%TA.AperFunction,SMDPad,CuDef*%
%ADD25RoundRect,0.800000X-0.800000X-0.000010X0.800000X-0.000010X0.800000X0.000010X-0.800000X0.000010X0*%
%TD*%
%TA.AperFunction,SMDPad,CuDef*%
%ADD26FreePoly1,0.000000*%
%TD*%
%TA.AperFunction,ComponentPad*%
%ADD27FreePoly2,0.000000*%
%TD*%
%TA.AperFunction,ComponentPad*%
%ADD28FreePoly3,0.000000*%
%TD*%
%TA.AperFunction,ViaPad*%
%ADD29C,0.600000*%
%TD*%
%TA.AperFunction,Conductor*%
%ADD30C,0.250000*%
%TD*%
%TA.AperFunction,Conductor*%
%ADD31C,0.500000*%
%TD*%
%TA.AperFunction,Conductor*%
%ADD32C,1.000000*%
%TD*%
G04 APERTURE END LIST*
D10*
%TO.P,M1,1,+*%
%TO.N,Net-(A1-GPIO16)*%
X146700000Y-116600000D03*
D11*
%TO.P,M1,2,-*%
%TO.N,GND*%
X146700000Y-113000000D03*
%TD*%
D12*
%TO.P,U1,1,~{CS}*%
%TO.N,Net-(A1-GPIO7)*%
X117370000Y-89325000D03*
%TO.P,U1,2,DO/IO_{1}*%
%TO.N,Net-(A1-GPIO8)*%
X116100000Y-89325000D03*
%TO.P,U1,3,~{WP}/IO_{2}*%
%TO.N,Net-(U1-~{WP}{slash}IO_{2})*%
X114830000Y-89325000D03*
%TO.P,U1,4,GND*%
%TO.N,GND*%
X113560000Y-89325000D03*
%TO.P,U1,5,DI/IO_{0}*%
%TO.N,Net-(A1-GPIO11)*%
X113560000Y-96500000D03*
%TO.P,U1,6,CLK*%
%TO.N,Net-(A1-GPIO10)*%
X114830000Y-96500000D03*
%TO.P,U1,7,~{HOLD}/~{RESET}/IO_{3}*%
%TO.N,Net-(U1-~{HOLD}{slash}~{RESET}{slash}IO_{3})*%
X116100000Y-96500000D03*
%TO.P,U1,8,VCC*%
%TO.N,+3V3*%
X117370000Y-96500000D03*
%TD*%
D13*
%TO.P,R4,1*%
%TO.N,Net-(A1-GPIO26_ADC0)*%
X152100000Y-72900000D03*
%TO.P,R4,2*%
%TO.N,GND*%
X154100000Y-72900000D03*
%TD*%
D14*
%TO.P,R3,1*%
%TO.N,Net-(A1-GPIO26_ADC0)*%
X154100000Y-75700000D03*
%TO.P,R3,2*%
%TO.N,Net-(J2-VBAT_SENSE)*%
X152100000Y-75700000D03*
%TD*%
D15*
%TO.P,R2,1*%
%TO.N,Net-(U1-~{WP}{slash}IO_{2})*%
X117600000Y-84612500D03*
%TO.P,R2,2*%
%TO.N,+3V3*%
X117600000Y-86612500D03*
%TD*%
%TO.P,R1,1*%
%TO.N,Net-(U1-~{HOLD}{slash}~{RESET}{slash}IO_{3})*%
X117065000Y-99112500D03*
%TO.P,R1,2*%
%TO.N,+3V3*%
X117065000Y-101112500D03*
%TD*%
D16*
%TO.P,J6,1,COM/GND*%
%TO.N,GND*%
X125000000Y-124050000D03*
D17*
%TO.P,J6,2,UP*%
%TO.N,Net-(A1-GPIO18)*%
X127000000Y-124050000D03*
%TO.P,J6,3,DWN*%
%TO.N,Net-(A1-GPIO19)*%
X129000000Y-124050000D03*
%TO.P,J6,4,LET*%
%TO.N,Net-(A1-GPIO4)*%
X131000000Y-124050000D03*
%TO.P,J6,5,RHT*%
%TO.N,Net-(A1-GPIO5)*%
X133000000Y-124050000D03*
%TO.P,J6,6,MID*%
%TO.N,Net-(A1-GPIO6)*%
X135000000Y-124050000D03*
%TO.P,J6,7,SET*%
%TO.N,Net-(A1-GPIO17)*%
X137000000Y-124050000D03*
%TO.P,J6,8,RST*%
%TO.N,Net-(A1-GPIO22)*%
X139000000Y-124050000D03*
%TD*%
D18*
%TO.P,J5,1,VIN*%
%TO.N,+5V*%
X148700000Y-96400000D03*
D19*
%TO.P,J5,2,GND*%
%TO.N,GND*%
X148700000Y-98400000D03*
%TO.P,J5,3,SD*%
%TO.N,Net-(A1-GPIO21)*%
X148700000Y-100400000D03*
%TO.P,J5,4,GAIN*%
%TO.N,unconnected-(J5-GAIN-Pad4)*%
X148700000Y-102400000D03*
%TO.P,J5,5,DIN*%
%TO.N,Net-(A1-GPIO20)*%
X148700000Y-104400000D03*
%TO.P,J5,6,BCLK*%
%TO.N,Net-(A1-GPIO14)*%
X148700000Y-106400000D03*
%TO.P,J5,7,LRC*%
%TO.N,Net-(A1-GPIO15)*%
X148700000Y-108400000D03*
%TD*%
D20*
%TO.P,J4,1,VCC*%
%TO.N,+3V3*%
X147600000Y-89400000D03*
D19*
%TO.P,J4,2,GND*%
%TO.N,GND*%
X147600000Y-87400000D03*
%TO.P,J4,3,OUT*%
%TO.N,Net-(A1-GPIO28_ADC2)*%
X147600000Y-85400000D03*
%TD*%
D18*
%TO.P,J3,1,GND*%
%TO.N,GND*%
X116165000Y-105312500D03*
D19*
%TO.P,J3,2,VCC*%
%TO.N,+3V3*%
X116165000Y-107312500D03*
%TO.P,J3,3,SCK*%
%TO.N,Net-(A1-GPIO10)*%
X116165000Y-109312500D03*
%TO.P,J3,4,SDA*%
%TO.N,Net-(A1-GPIO11)*%
X116165000Y-111312500D03*
%TO.P,J3,5,RES*%
%TO.N,Net-(A1-GPIO13)*%
X116165000Y-113312500D03*
%TO.P,J3,6,DC*%
%TO.N,Net-(A1-GPIO12)*%
X116165000Y-115312500D03*
%TO.P,J3,7,CS*%
%TO.N,Net-(A1-GPIO9)*%
X116165000Y-117312500D03*
%TD*%
D18*
%TO.P,J2,1,VCC*%
%TO.N,+5V*%
X148400000Y-70300000D03*
D19*
%TO.P,J2,2,GND*%
%TO.N,GND*%
X148400000Y-72300000D03*
%TO.P,J2,3,VBAT_SENSE*%
%TO.N,Net-(J2-VBAT_SENSE)*%
X148400000Y-74300000D03*
%TD*%
D20*
%TO.P,J1,1,SLEEP*%
%TO.N,Net-(A1-GPIO3)*%
X115165000Y-80512500D03*
D19*
%TO.P,J1,2,GND*%
%TO.N,GND*%
X115165000Y-78512500D03*
%TO.P,J1,3,VCC*%
%TO.N,+5V*%
X115165000Y-76512500D03*
%TO.P,J1,4,PWRKEY*%
%TO.N,Net-(A1-GPIO2)*%
X115165000Y-74512500D03*
%TO.P,J1,5,TXD*%
%TO.N,Net-(A1-GPIO1)*%
X115165000Y-72512500D03*
%TO.P,J1,6,RXD*%
%TO.N,Net-(A1-GPIO0)*%
X115165000Y-70512500D03*
%TO.P,J1,7,GND*%
%TO.N,GND*%
X115165000Y-68512500D03*
%TD*%
D21*
%TO.P,C3,1*%
%TO.N,Net-(A1-GPIO26_ADC0)*%
X152062500Y-78400000D03*
%TO.P,C3,2*%
%TO.N,GND*%
X154137500Y-78400000D03*
%TD*%
%TO.P,C2,1*%
%TO.N,+3V3*%
X146162500Y-79900000D03*
%TO.P,C2,2*%
%TO.N,GND*%
X148237500Y-79900000D03*
%TD*%
D22*
%TO.P,C1,1*%
%TO.N,+3V3*%
X113500000Y-86537500D03*
%TO.P,C1,2*%
%TO.N,GND*%
X113500000Y-84462500D03*
%TD*%
D23*
%TO.P,A1,1,GPIO0*%
%TO.N,Net-(A1-GPIO0)*%
X122320000Y-69120000D03*
D24*
X123120000Y-69120000D03*
D25*
%TO.P,A1,2,GPIO1*%
%TO.N,Net-(A1-GPIO1)*%
X122320000Y-71660000D03*
D11*
X123120000Y-71660000D03*
D26*
%TO.P,A1,3,GND*%
%TO.N,GND*%
X122320000Y-74200000D03*
D27*
X123120000Y-74200000D03*
D25*
%TO.P,A1,4,GPIO2*%
%TO.N,Net-(A1-GPIO2)*%
X122320000Y-76740000D03*
D11*
X123120000Y-76740000D03*
D25*
%TO.P,A1,5,GPIO3*%
%TO.N,Net-(A1-GPIO3)*%
X122320000Y-79280000D03*
D11*
X123120000Y-79280000D03*
D25*
%TO.P,A1,6,GPIO4*%
%TO.N,Net-(A1-GPIO4)*%
X122320000Y-81820000D03*
D11*
X123120000Y-81820000D03*
D25*
%TO.P,A1,7,GPIO5*%
%TO.N,Net-(A1-GPIO5)*%
X122320000Y-84360000D03*
D11*
X123120000Y-84360000D03*
D26*
%TO.P,A1,8,GND*%
%TO.N,GND*%
X122320000Y-86900000D03*
D27*
X123120000Y-86900000D03*
D25*
%TO.P,A1,9,GPIO6*%
%TO.N,Net-(A1-GPIO6)*%
X122320000Y-89440000D03*
D11*
X123120000Y-89440000D03*
D25*
%TO.P,A1,10,GPIO7*%
%TO.N,Net-(A1-GPIO7)*%
X122320000Y-91980000D03*
D11*
X123120000Y-91980000D03*
D25*
%TO.P,A1,11,GPIO8*%
%TO.N,Net-(A1-GPIO8)*%
X122320000Y-94520000D03*
D11*
X123120000Y-94520000D03*
D25*
%TO.P,A1,12,GPIO9*%
%TO.N,Net-(A1-GPIO9)*%
X122320000Y-97060000D03*
D11*
X123120000Y-97060000D03*
D26*
%TO.P,A1,13,GND*%
%TO.N,GND*%
X122320000Y-99600000D03*
D27*
X123120000Y-99600000D03*
D25*
%TO.P,A1,14,GPIO10*%
%TO.N,Net-(A1-GPIO10)*%
X122320000Y-102140000D03*
D11*
X123120000Y-102140000D03*
D25*
%TO.P,A1,15,GPIO11*%
%TO.N,Net-(A1-GPIO11)*%
X122320000Y-104680000D03*
D11*
X123120000Y-104680000D03*
D25*
%TO.P,A1,16,GPIO12*%
%TO.N,Net-(A1-GPIO12)*%
X122320000Y-107220000D03*
D11*
X123120000Y-107220000D03*
D25*
%TO.P,A1,17,GPIO13*%
%TO.N,Net-(A1-GPIO13)*%
X122320000Y-109760000D03*
D11*
X123120000Y-109760000D03*
D26*
%TO.P,A1,18,GND*%
%TO.N,GND*%
X122320000Y-112300000D03*
D27*
X123120000Y-112300000D03*
D25*
%TO.P,A1,19,GPIO14*%
%TO.N,Net-(A1-GPIO14)*%
X122320000Y-114840000D03*
D11*
X123120000Y-114840000D03*
D25*
%TO.P,A1,20,GPIO15*%
%TO.N,Net-(A1-GPIO15)*%
X122320000Y-117380000D03*
D11*
X123120000Y-117380000D03*
%TO.P,A1,21,GPIO16*%
%TO.N,Net-(A1-GPIO16)*%
X140900000Y-117380000D03*
D25*
X141700000Y-117380000D03*
D11*
%TO.P,A1,22,GPIO17*%
%TO.N,Net-(A1-GPIO17)*%
X140900000Y-114840000D03*
D25*
X141700000Y-114840000D03*
D28*
%TO.P,A1,23,GND*%
%TO.N,GND*%
X140900000Y-112300000D03*
D23*
X141700000Y-112300000D03*
D11*
%TO.P,A1,24,GPIO18*%
%TO.N,Net-(A1-GPIO18)*%
X140900000Y-109760000D03*
D25*
X141700000Y-109760000D03*
D11*
%TO.P,A1,25,GPIO19*%
%TO.N,Net-(A1-GPIO19)*%
X140900000Y-107220000D03*
D25*
X141700000Y-107220000D03*
D11*
%TO.P,A1,26,GPIO20*%
%TO.N,Net-(A1-GPIO20)*%
X140900000Y-104680000D03*
D25*
X141700000Y-104680000D03*
D11*
%TO.P,A1,27,GPIO21*%
%TO.N,Net-(A1-GPIO21)*%
X140900000Y-102140000D03*
D25*
X141700000Y-102140000D03*
D28*
%TO.P,A1,28,GND*%
%TO.N,GND*%
X140900000Y-99600000D03*
D23*
X141700000Y-99600000D03*
D11*
%TO.P,A1,29,GPIO22*%
%TO.N,Net-(A1-GPIO22)*%
X140900000Y-97060000D03*
D25*
X141700000Y-97060000D03*
D11*
%TO.P,A1,30,RUN*%
%TO.N,unconnected-(A1-RUN-Pad30)_1*%
X140900000Y-94520000D03*
D25*
%TO.N,unconnected-(A1-RUN-Pad30)*%
X141700000Y-94520000D03*
D11*
%TO.P,A1,31,GPIO26_ADC0*%
%TO.N,Net-(A1-GPIO26_ADC0)*%
X140900000Y-91980000D03*
D25*
X141700000Y-91980000D03*
D11*
%TO.P,A1,32,GPIO27_ADC1*%
%TO.N,unconnected-(A1-GPIO27_ADC1-Pad32)*%
X140900000Y-89440000D03*
D25*
%TO.N,unconnected-(A1-GPIO27_ADC1-Pad32)_1*%
X141700000Y-89440000D03*
D28*
%TO.P,A1,33,AGND*%
%TO.N,unconnected-(A1-AGND-Pad33)_1*%
X140900000Y-86900000D03*
D23*
%TO.N,unconnected-(A1-AGND-Pad33)*%
X141700000Y-86900000D03*
D11*
%TO.P,A1,34,GPIO28_ADC2*%
%TO.N,Net-(A1-GPIO28_ADC2)*%
X140900000Y-84360000D03*
D25*
X141700000Y-84360000D03*
D11*
%TO.P,A1,35,ADC_VREF*%
%TO.N,unconnected-(A1-ADC_VREF-Pad35)_1*%
X140900000Y-81820000D03*
D25*
%TO.N,unconnected-(A1-ADC_VREF-Pad35)*%
X141700000Y-81820000D03*
D11*
%TO.P,A1,36,3V3*%
%TO.N,+3V3*%
X140900000Y-79280000D03*
D25*
X141700000Y-79280000D03*
D11*
%TO.P,A1,37,3V3_EN*%
%TO.N,unconnected-(A1-3V3_EN-Pad37)*%
X140900000Y-76740000D03*
D25*
%TO.N,unconnected-(A1-3V3_EN-Pad37)_1*%
X141700000Y-76740000D03*
D28*
%TO.P,A1,38,GND*%
%TO.N,GND*%
X140900000Y-74200000D03*
D23*
X141700000Y-74200000D03*
D11*
%TO.P,A1,39,VSYS*%
%TO.N,unconnected-(A1-VSYS-Pad39)*%
X140900000Y-71660000D03*
D25*
%TO.N,unconnected-(A1-VSYS-Pad39)_1*%
X141700000Y-71660000D03*
D11*
%TO.P,A1,40,VBUS*%
%TO.N,+5V*%
X140900000Y-69120000D03*
D25*
X141700000Y-69120000D03*
%TD*%
D29*
%TO.N,GND*%
X137700000Y-101700000D03*
%TO.N,Net-(A1-GPIO15)*%
X139900000Y-108400000D03*
X126863941Y-108363941D03*
%TO.N,Net-(A1-GPIO14)*%
X128500000Y-106100000D03*
%TO.N,+3V3*%
X124900000Y-79300000D03*
X139300000Y-79300000D03*
%TO.N,GND*%
X119374000Y-100300000D03*
X116300000Y-103400000D03*
%TO.N,Net-(A1-GPIO6)*%
X124876000Y-90400000D03*
X125056386Y-120502383D03*
%TO.N,Net-(A1-GPIO5)*%
X124565739Y-121134261D03*
%TO.N,Net-(A1-GPIO4)*%
X120200000Y-83000000D03*
X119100000Y-102900000D03*
%TO.N,Net-(U1-~{WP}{slash}IO_{2})*%
X114800000Y-85787500D03*
X114800000Y-87800000D03*
%TO.N,Net-(A1-GPIO12)*%
X119000000Y-110000000D03*
%TO.N,+3V3*%
X115600000Y-101200000D03*
X119400000Y-96300000D03*
X119400000Y-87100000D03*
X146200000Y-82400000D03*
%TO.N,Net-(A1-GPIO22)*%
X139000000Y-118000000D03*
X139000000Y-115500000D03*
%TD*%
D30*
%TO.N,Net-(A1-GPIO15)*%
X126581808Y-108400000D02*
X126827882Y-108400000D01*
X139900000Y-108400000D02*
X148700000Y-108400000D01*
X126827882Y-108400000D02*
X126863941Y-108363941D01*
%TO.N,Net-(A1-GPIO22)*%
X140900000Y-97060000D02*
X140100000Y-97060000D01*
X140100000Y-97060000D02*
X139200000Y-97960000D01*
X139200000Y-97960000D02*
X139200000Y-109300000D01*
X139200000Y-109300000D02*
X139236000Y-109336000D01*
X139236000Y-109336000D02*
X139236000Y-115264000D01*
X139236000Y-115264000D02*
X139000000Y-115500000D01*
%TO.N,Net-(A1-GPIO14)*%
X128494000Y-106094000D02*
X128500000Y-106100000D01*
X128249998Y-106094000D02*
X128494000Y-106094000D01*
D31*
%TO.N,+3V3*%
X121001818Y-80569000D02*
X119400000Y-82170818D01*
X140900000Y-79280000D02*
X139320000Y-79280000D01*
X139320000Y-79280000D02*
X139300000Y-79300000D01*
X123631000Y-80569000D02*
X121001818Y-80569000D01*
X119400000Y-82170818D02*
X119400000Y-87100000D01*
X124900000Y-79300000D02*
X123631000Y-80569000D01*
D32*
%TO.N,GND*%
X116165000Y-105312500D02*
X116165000Y-103535000D01*
X116165000Y-103535000D02*
X116300000Y-103400000D01*
X119374000Y-100300000D02*
X121620000Y-100300000D01*
X121620000Y-100300000D02*
X122320000Y-99600000D01*
D30*
%TO.N,Net-(A1-GPIO9)*%
X116165000Y-117312500D02*
X112909000Y-114056500D01*
X112909000Y-95643154D02*
X113190654Y-95361500D01*
X112909000Y-114056500D02*
X112909000Y-95643154D01*
X120621500Y-95361500D02*
X122320000Y-97060000D01*
X113190654Y-95361500D02*
X120621500Y-95361500D01*
%TO.N,Net-(A1-GPIO6)*%
X131452383Y-120502383D02*
X125056386Y-120502383D01*
X123280000Y-90400000D02*
X122320000Y-89440000D01*
X135000000Y-124050000D02*
X131452383Y-120502383D01*
X124876000Y-90400000D02*
X123280000Y-90400000D01*
%TO.N,Net-(A1-GPIO5)*%
X130150000Y-121200000D02*
X124500000Y-121200000D01*
X133000000Y-124050000D02*
X130150000Y-121200000D01*
X124500000Y-121200000D02*
X124565739Y-121134261D01*
%TO.N,Net-(A1-GPIO4)*%
X131000000Y-124050000D02*
X129799000Y-122849000D01*
X119626000Y-117078406D02*
X119626000Y-103426000D01*
X119626000Y-103426000D02*
X119100000Y-102900000D01*
X125396594Y-122849000D02*
X119626000Y-117078406D01*
X129799000Y-122849000D02*
X125396594Y-122849000D01*
X120200000Y-83000000D02*
X121140000Y-83000000D01*
X121140000Y-83000000D02*
X122320000Y-81820000D01*
%TO.N,Net-(A1-GPIO10)*%
X114830000Y-96500000D02*
X114830000Y-101315298D01*
X114830000Y-101315298D02*
X115654702Y-102140000D01*
X115654702Y-102140000D02*
X122320000Y-102140000D01*
%TO.N,Net-(U1-~{HOLD}{slash}~{RESET}{slash}IO_{3})*%
X116100000Y-96500000D02*
X116100000Y-98147500D01*
X116100000Y-98147500D02*
X117065000Y-99112500D01*
%TO.N,Net-(A1-GPIO8)*%
X116100000Y-89325000D02*
X116100000Y-90137499D01*
X120482501Y-94520000D02*
X122320000Y-94520000D01*
X116100000Y-90137499D02*
X120482501Y-94520000D01*
%TO.N,Net-(U1-~{WP}{slash}IO_{2})*%
X115975000Y-84612500D02*
X117600000Y-84612500D01*
X114830000Y-89325000D02*
X114830000Y-87830000D01*
X114800000Y-85787500D02*
X115975000Y-84612500D01*
X114830000Y-87830000D02*
X114800000Y-87800000D01*
%TO.N,Net-(A1-GPIO7)*%
X122320000Y-91980000D02*
X120025000Y-91980000D01*
X120025000Y-91980000D02*
X117370000Y-89325000D01*
%TO.N,Net-(A1-GPIO12)*%
X119000000Y-110000000D02*
X119000000Y-113500000D01*
X119000000Y-113500000D02*
X117187500Y-115312500D01*
X117187500Y-115312500D02*
X116165000Y-115312500D01*
%TO.N,Net-(A1-GPIO11)*%
X116165000Y-111312500D02*
X113560000Y-108707500D01*
X113560000Y-108707500D02*
X113560000Y-96500000D01*
D31*
%TO.N,+3V3*%
X117065000Y-101112500D02*
X115687500Y-101112500D01*
X115687500Y-101112500D02*
X115600000Y-101200000D01*
X117570000Y-96300000D02*
X117370000Y-96500000D01*
X119400000Y-96300000D02*
X117570000Y-96300000D01*
X119337500Y-86537500D02*
X113500000Y-86537500D01*
X146162500Y-79900000D02*
X146162500Y-82362500D01*
X146162500Y-82362500D02*
X146200000Y-82400000D01*
D30*
%TO.N,Net-(A1-GPIO22)*%
X139000000Y-124050000D02*
X139000000Y-118000000D01*
%TO.N,Net-(A1-GPIO17)*%
X140900000Y-114840000D02*
X137000000Y-118740000D01*
X137000000Y-118740000D02*
X137000000Y-124050000D01*
%TO.N,Net-(A1-GPIO14)*%
X148700000Y-106400000D02*
X148394000Y-106094000D01*
X128249998Y-106094000D02*
X124251000Y-110092998D01*
X124251000Y-110092998D02*
X124251000Y-113709000D01*
X124251000Y-113709000D02*
X123120000Y-114840000D01*
%TO.N,Net-(A1-GPIO15)*%
X124784000Y-116584000D02*
X124800000Y-116600000D01*
X124020000Y-117380000D02*
X123120000Y-117380000D01*
X126581808Y-108400000D02*
X124784000Y-110197808D01*
X124784000Y-110197808D02*
X124784000Y-116584000D01*
X124800000Y-116600000D02*
X124020000Y-117380000D01*
%TO.N,Net-(A1-GPIO20)*%
X141980000Y-104400000D02*
X141700000Y-104680000D01*
%TO.N,Net-(A1-GPIO26_ADC0)*%
X152062500Y-78400000D02*
X143900000Y-86562500D01*
X143900000Y-86562500D02*
X143900000Y-92000000D01*
X143900000Y-92000000D02*
X143700000Y-92000000D01*
X143700000Y-92000000D02*
X143680000Y-91980000D01*
X143680000Y-91980000D02*
X141700000Y-91980000D01*
X154100000Y-75700000D02*
X152062500Y-77737500D01*
X152062500Y-77737500D02*
X152062500Y-78400000D01*
X152100000Y-72900000D02*
X152100000Y-73700000D01*
X152100000Y-73700000D02*
X154100000Y-75700000D01*
D31*
X152062500Y-78400000D02*
X152062500Y-78437500D01*
X143300000Y-91980000D02*
X141700000Y-91980000D01*
X154100000Y-75700000D02*
X154100000Y-76362500D01*
%TO.N,Net-(J2-VBAT_SENSE)*%
X148400000Y-74300000D02*
X150700000Y-74300000D01*
X150700000Y-74300000D02*
X152100000Y-75700000D01*
%TO.N,GND*%
X141700000Y-112300000D02*
X146000000Y-112300000D01*
X146000000Y-112300000D02*
X146700000Y-113000000D01*
%TO.N,Net-(A1-GPIO16)*%
X141700000Y-117380000D02*
X145920000Y-117380000D01*
X145920000Y-117380000D02*
X146700000Y-116600000D01*
%TO.N,GND*%
X142537500Y-74200000D02*
X141700000Y-74200000D01*
%TO.N,+3V3*%
X141700000Y-79280000D02*
X145542500Y-79280000D01*
X145542500Y-79280000D02*
X146162500Y-79900000D01*
%TD*%
%TA.AperFunction,Conductor*%
%TO.N,GND*%
G36*
X114390703Y-101761039D02*
G01*
X114397181Y-101767071D01*
X114435586Y-101805476D01*
X114435608Y-101805496D01*
X115165718Y-102535606D01*
X115165747Y-102535637D01*
X115255966Y-102625856D01*
X115255969Y-102625858D01*
X115332892Y-102677256D01*
X115358417Y-102694312D01*
X115396910Y-102710256D01*
X115472250Y-102741463D01*
X115532673Y-102753481D01*
X115593095Y-102765500D01*
X115593096Y-102765500D01*
X118175500Y-102765500D01*
X118242539Y-102785185D01*
X118288294Y-102837989D01*
X118299500Y-102889500D01*
X118299500Y-102978846D01*
X118330261Y-103133489D01*
X118330264Y-103133501D01*
X118390602Y-103279172D01*
X118390609Y-103279185D01*
X118478210Y-103410288D01*
X118478213Y-103410292D01*
X118589707Y-103521786D01*
X118589711Y-103521789D01*
X118720814Y-103609390D01*
X118720827Y-103609397D01*
X118808230Y-103645599D01*
X118866503Y-103669737D01*
X118900691Y-103676537D01*
X118962601Y-103708920D01*
X118997176Y-103769635D01*
X119000500Y-103798154D01*
X119000500Y-109081953D01*
X118980815Y-109148992D01*
X118928011Y-109194747D01*
X118900692Y-109203570D01*
X118766508Y-109230261D01*
X118766498Y-109230264D01*
X118620827Y-109290602D01*
X118620814Y-109290609D01*
X118489711Y-109378210D01*
X118489707Y-109378213D01*
X118378213Y-109489707D01*
X118378210Y-109489711D01*
X118290609Y-109620814D01*
X118290602Y-109620827D01*
X118230264Y-109766498D01*
X118230261Y-109766510D01*
X118199500Y-109921153D01*
X118199500Y-110078846D01*
X118230261Y-110233489D01*
X118230264Y-110233501D01*
X118290602Y-110379172D01*
X118290609Y-110379184D01*
X118353602Y-110473459D01*
X118374480Y-110540136D01*
X118374500Y-110542350D01*
X118374500Y-113189547D01*
X118354815Y-113256586D01*
X118338181Y-113277228D01*
X117576207Y-114039201D01*
X117514884Y-114072686D01*
X117445192Y-114067702D01*
X117389259Y-114025830D01*
X117364842Y-113960366D01*
X117379325Y-113893784D01*
X117379020Y-113893629D01*
X117379613Y-113892465D01*
X117379694Y-113892093D01*
X117380597Y-113890532D01*
X117381228Y-113889293D01*
X117381232Y-113889288D01*
X117459873Y-113734945D01*
X117513402Y-113570201D01*
X117540500Y-113399111D01*
X117540500Y-113225889D01*
X117513402Y-113054799D01*
X117459873Y-112890055D01*
X117381232Y-112735712D01*
X117279414Y-112595572D01*
X117156928Y-112473086D01*
X117073975Y-112412817D01*
X117031311Y-112357488D01*
X117025332Y-112287874D01*
X117057938Y-112226079D01*
X117073976Y-112212182D01*
X117156928Y-112151914D01*
X117279414Y-112029428D01*
X117381232Y-111889288D01*
X117459873Y-111734945D01*
X117513402Y-111570201D01*
X117540500Y-111399111D01*
X117540500Y-111225889D01*
X117513402Y-111054799D01*
X117459873Y-110890055D01*
X117381232Y-110735712D01*
X117279414Y-110595572D01*
X117156928Y-110473086D01*
X117073975Y-110412817D01*
X117031311Y-110357488D01*
X117025332Y-110287874D01*
X117057938Y-110226079D01*
X117073976Y-110212182D01*
X117156928Y-110151914D01*
X117279414Y-110029428D01*
X117381232Y-109889288D01*
X117459873Y-109734945D01*
X117513402Y-109570201D01*
X117540500Y-109399111D01*
X117540500Y-109225889D01*
X117513402Y-109054799D01*
X117459873Y-108890055D01*
X117381232Y-108735712D01*
X117279414Y-108595572D01*
X117156928Y-108473086D01*
X117073975Y-108412817D01*
X117031311Y-108357488D01*
X117025332Y-108287874D01*
X117057938Y-108226079D01*
X117073976Y-108212182D01*
X117156928Y-108151914D01*
X117279414Y-108029428D01*
X117381232Y-107889288D01*
X117459873Y-107734945D01*
X117513402Y-107570201D01*
X117540500Y-107399111D01*
X117540500Y-107225889D01*
X117513402Y-107054799D01*
X117459873Y-106890055D01*
X117381232Y-106735712D01*
X117279414Y-106595572D01*
X117171508Y-106487666D01*
X117138023Y-106426343D01*
X117143007Y-106356651D01*
X117184879Y-106300718D01*
X117194094Y-106294445D01*
X117258345Y-106254815D01*
X117382315Y-106130845D01*
X117474356Y-105981624D01*
X117474358Y-105981619D01*
X117529505Y-105815197D01*
X117529506Y-105815190D01*
X117539999Y-105712486D01*
X117540000Y-105712473D01*
X117540000Y-105562500D01*
X116445330Y-105562500D01*
X116465075Y-105542755D01*
X116514444Y-105457245D01*
X116540000Y-105361870D01*
X116540000Y-105263130D01*
X116514444Y-105167755D01*
X116465075Y-105082245D01*
X116445330Y-105062500D01*
X117539999Y-105062500D01*
X117539999Y-104912528D01*
X117539998Y-104912513D01*
X117529505Y-104809802D01*
X117474358Y-104643380D01*
X117474356Y-104643375D01*
X117382315Y-104494154D01*
X117258345Y-104370184D01*
X117109124Y-104278143D01*
X117109119Y-104278141D01*
X116942697Y-104222994D01*
X116942690Y-104222993D01*
X116839986Y-104212500D01*
X116415000Y-104212500D01*
X116415000Y-105032170D01*
X116395255Y-105012425D01*
X116309745Y-104963056D01*
X116214370Y-104937500D01*
X116115630Y-104937500D01*
X116020255Y-104963056D01*
X115934745Y-105012425D01*
X115915000Y-105032170D01*
X115915000Y-104212500D01*
X115490028Y-104212500D01*
X115490012Y-104212501D01*
X115387302Y-104222994D01*
X115220880Y-104278141D01*
X115220875Y-104278143D01*
X115071654Y-104370184D01*
X114947684Y-104494154D01*
X114855643Y-104643375D01*
X114855641Y-104643380D01*
X114800494Y-104809802D01*
X114800493Y-104809809D01*
X114790000Y-104912513D01*
X114790000Y-105062500D01*
X115884670Y-105062500D01*
X115864925Y-105082245D01*
X115815556Y-105167755D01*
X115790000Y-105263130D01*
X115790000Y-105361870D01*
X115815556Y-105457245D01*
X115864925Y-105542755D01*
X115884670Y-105562500D01*
X114790001Y-105562500D01*
X114790001Y-105712486D01*
X114800494Y-105815197D01*
X114855641Y-105981619D01*
X114855643Y-105981624D01*
X114947684Y-106130845D01*
X115071656Y-106254817D01*
X115135906Y-106294446D01*
X115182631Y-106346393D01*
X115193854Y-106415356D01*
X115166011Y-106479438D01*
X115158492Y-106487666D01*
X115050585Y-106595573D01*
X114948768Y-106735711D01*
X114870128Y-106890052D01*
X114816597Y-107054802D01*
X114789500Y-107225889D01*
X114789500Y-107399110D01*
X114807164Y-107510641D01*
X114816598Y-107570201D01*
X114870127Y-107734945D01*
X114948768Y-107889288D01*
X115050586Y-108029428D01*
X115173072Y-108151914D01*
X115173078Y-108151918D01*
X115256023Y-108212183D01*
X115298689Y-108267513D01*
X115304667Y-108337126D01*
X115272061Y-108398921D01*
X115256023Y-108412817D01*
X115173078Y-108473081D01*
X115173069Y-108473088D01*
X115050588Y-108595569D01*
X115050588Y-108595570D01*
X115050586Y-108595572D01*
X115016466Y-108642534D01*
X114948768Y-108735711D01*
X114870124Y-108890059D01*
X114869976Y-108890418D01*
X114869883Y-108890533D01*
X114867915Y-108894396D01*
X114867103Y-108893982D01*
X114826134Y-108944820D01*
X114759840Y-108966884D01*
X114692141Y-108949604D01*
X114667735Y-108930644D01*
X114221819Y-108484728D01*
X114188334Y-108423405D01*
X114185500Y-108397047D01*
X114185500Y-101854752D01*
X114205185Y-101787713D01*
X114257989Y-101741958D01*
X114327147Y-101732014D01*
X114390703Y-101761039D01*
G37*
%TD.AperFunction*%
%TA.AperFunction,Conductor*%
G36*
X120147065Y-96787526D02*
G01*
X120202999Y-96829397D01*
X120227416Y-96894861D01*
X120227260Y-96914515D01*
X120219500Y-97003211D01*
X120219500Y-97116785D01*
X120234364Y-97286687D01*
X120234366Y-97286697D01*
X120293258Y-97506488D01*
X120293261Y-97506497D01*
X120389431Y-97712732D01*
X120389432Y-97712734D01*
X120519954Y-97899141D01*
X120680858Y-98060045D01*
X120680861Y-98060047D01*
X120867266Y-98190568D01*
X120919219Y-98214794D01*
X120971659Y-98260966D01*
X120990811Y-98328159D01*
X120970596Y-98395041D01*
X120925269Y-98436534D01*
X120860499Y-98471155D01*
X120860478Y-98471167D01*
X120729469Y-98558704D01*
X120729463Y-98558708D01*
X120652935Y-98621514D01*
X120541514Y-98732935D01*
X120478708Y-98809463D01*
X120478704Y-98809469D01*
X120391167Y-98940478D01*
X120391155Y-98940498D01*
X120344490Y-99027801D01*
X120284185Y-99173387D01*
X120255443Y-99268139D01*
X120255440Y-99268150D01*
X120239160Y-99349999D01*
X120239161Y-99350000D01*
X122686988Y-99350000D01*
X122654075Y-99407007D01*
X122620000Y-99534174D01*
X122620000Y-99665826D01*
X122654075Y-99792993D01*
X122686988Y-99850000D01*
X120239160Y-99850000D01*
X120255440Y-99931849D01*
X120255443Y-99931860D01*
X120284185Y-100026612D01*
X120344490Y-100172198D01*
X120391155Y-100259501D01*
X120391167Y-100259521D01*
X120478704Y-100390530D01*
X120478708Y-100390536D01*
X120541514Y-100467064D01*
X120652935Y-100578485D01*
X120729463Y-100641291D01*
X120729469Y-100641295D01*
X120860478Y-100728832D01*
X120860506Y-100728849D01*
X120925268Y-100763465D01*
X120975112Y-100812427D01*
X120990573Y-100880565D01*
X120966741Y-100946244D01*
X120919221Y-100985205D01*
X120867264Y-101009433D01*
X120680858Y-101139954D01*
X120519954Y-101300858D01*
X120407387Y-101461623D01*
X120352811Y-101505248D01*
X120305812Y-101514500D01*
X118389500Y-101514500D01*
X118322461Y-101494815D01*
X118276706Y-101442011D01*
X118265500Y-101390500D01*
X118265499Y-100712498D01*
X118265498Y-100712480D01*
X118254999Y-100609703D01*
X118254998Y-100609700D01*
X118214210Y-100486611D01*
X118199814Y-100443166D01*
X118107712Y-100293844D01*
X118014049Y-100200181D01*
X117980564Y-100138858D01*
X117985548Y-100069166D01*
X118014049Y-100024819D01*
X118038769Y-100000099D01*
X118107712Y-99931156D01*
X118199814Y-99781834D01*
X118254999Y-99615297D01*
X118265500Y-99512509D01*
X118265499Y-98712492D01*
X118254999Y-98609703D01*
X118199814Y-98443166D01*
X118107712Y-98293844D01*
X117983656Y-98169788D01*
X117878582Y-98104978D01*
X117834336Y-98077687D01*
X117834331Y-98077685D01*
X117781094Y-98060044D01*
X117691459Y-98030342D01*
X117634016Y-97990570D01*
X117607193Y-97926055D01*
X117619508Y-97857279D01*
X117667051Y-97806079D01*
X117693575Y-97794252D01*
X117778728Y-97767716D01*
X117806602Y-97759031D01*
X117944388Y-97675736D01*
X118058236Y-97561888D01*
X118141531Y-97424102D01*
X118189430Y-97270387D01*
X118195500Y-97203591D01*
X118195500Y-97174500D01*
X118215185Y-97107461D01*
X118267989Y-97061706D01*
X118319500Y-97050500D01*
X119095396Y-97050500D01*
X119142844Y-97059937D01*
X119166503Y-97069737D01*
X119166508Y-97069738D01*
X119166511Y-97069739D01*
X119321153Y-97100499D01*
X119321156Y-97100500D01*
X119321158Y-97100500D01*
X119478844Y-97100500D01*
X119478845Y-97100499D01*
X119633497Y-97069737D01*
X119779179Y-97009394D01*
X119910289Y-96921789D01*
X120016052Y-96816025D01*
X120077373Y-96782542D01*
X120147065Y-96787526D01*
G37*
%TD.AperFunction*%
%TA.AperFunction,Conductor*%
G36*
X122654075Y-86707007D02*
G01*
X122620000Y-86834174D01*
X122620000Y-86965826D01*
X122654075Y-87092993D01*
X122686988Y-87150000D01*
X122444000Y-87150000D01*
X122376961Y-87130315D01*
X122331206Y-87077511D01*
X122320000Y-87026000D01*
X122320000Y-86774000D01*
X122339685Y-86706961D01*
X122392489Y-86661206D01*
X122444000Y-86650000D01*
X122686988Y-86650000D01*
X122654075Y-86707007D01*
G37*
%TD.AperFunction*%
%TA.AperFunction,Conductor*%
G36*
X155442539Y-66520185D02*
G01*
X155488294Y-66572989D01*
X155499500Y-66624500D01*
X155499500Y-115246435D01*
X155479815Y-115313474D01*
X155459930Y-115337251D01*
X142735448Y-127167044D01*
X142672947Y-127198274D01*
X142651600Y-127200227D01*
X121449560Y-127299767D01*
X121382429Y-127280397D01*
X121363932Y-127266008D01*
X121258924Y-127167044D01*
X115022244Y-121289309D01*
X107539454Y-114237183D01*
X107504168Y-114176878D01*
X107500500Y-114146943D01*
X107500500Y-90028543D01*
X112735000Y-90028543D01*
X112741065Y-90095292D01*
X112788929Y-90248896D01*
X112872163Y-90386580D01*
X112985919Y-90500336D01*
X113123607Y-90583572D01*
X113123606Y-90583572D01*
X113277197Y-90631432D01*
X113277207Y-90631435D01*
X113309999Y-90634414D01*
X113310000Y-90634414D01*
X113310000Y-89575000D01*
X112735000Y-89575000D01*
X112735000Y-90028543D01*
X107500500Y-90028543D01*
X107500500Y-88621456D01*
X112735000Y-88621456D01*
X112735000Y-89075000D01*
X113310000Y-89075000D01*
X113310000Y-88015585D01*
X113309999Y-88015585D01*
X113277205Y-88018566D01*
X113123603Y-88066429D01*
X112985919Y-88149663D01*
X112872163Y-88263419D01*
X112788929Y-88401103D01*
X112741065Y-88554707D01*
X112735000Y-88621456D01*
X107500500Y-88621456D01*
X107500500Y-86149983D01*
X112274500Y-86149983D01*
X112274500Y-86925001D01*
X112274501Y-86925019D01*
X112285000Y-87027796D01*
X112285001Y-87027799D01*
X112308902Y-87099925D01*
X112340186Y-87194334D01*
X112432288Y-87343656D01*
X112556344Y-87467712D01*
X112705666Y-87559814D01*
X112872203Y-87614999D01*
X112974991Y-87625500D01*
X113875500Y-87625499D01*
X113883523Y-87627854D01*
X113891788Y-87626573D01*
X113916548Y-87637551D01*
X113942539Y-87645183D01*
X113948016Y-87651504D01*
X113955661Y-87654894D01*
X113970554Y-87677514D01*
X113988294Y-87697987D01*
X113990480Y-87707779D01*
X113994083Y-87713250D01*
X113998896Y-87745460D01*
X113999492Y-87748127D01*
X113999500Y-87748850D01*
X113999500Y-87878842D01*
X114001022Y-87886496D01*
X114001150Y-87898020D01*
X113994676Y-87921006D01*
X113992547Y-87944795D01*
X113985377Y-87954023D01*
X113982209Y-87965274D01*
X113964332Y-87981113D01*
X113949682Y-87999972D01*
X113938661Y-88003859D01*
X113929914Y-88011610D01*
X113906311Y-88015270D01*
X113883792Y-88023214D01*
X113867889Y-88021229D01*
X113860870Y-88022318D01*
X113854702Y-88019583D01*
X113849413Y-88018923D01*
X113849230Y-88019846D01*
X113842796Y-88018566D01*
X113810000Y-88015585D01*
X113810000Y-90634414D01*
X113842792Y-90631435D01*
X113842802Y-90631432D01*
X113996393Y-90583572D01*
X113996394Y-90583571D01*
X114130365Y-90502582D01*
X114197920Y-90484745D01*
X114258664Y-90502581D01*
X114393398Y-90584031D01*
X114547113Y-90631930D01*
X114613909Y-90638000D01*
X115046090Y-90637999D01*
X115046098Y-90637999D01*
X115112882Y-90631931D01*
X115112885Y-90631930D01*
X115112887Y-90631930D01*
X115266602Y-90584031D01*
X115400850Y-90502874D01*
X115414847Y-90499178D01*
X115426810Y-90491018D01*
X115447954Y-90490437D01*
X115468403Y-90485038D01*
X115483467Y-90489461D01*
X115496654Y-90489099D01*
X115529147Y-90502873D01*
X115646830Y-90574015D01*
X115670360Y-90592450D01*
X115708332Y-90630422D01*
X115708338Y-90630427D01*
X119602229Y-94524319D01*
X119635714Y-94585642D01*
X119630730Y-94655334D01*
X119588858Y-94711267D01*
X119523394Y-94735684D01*
X119514548Y-94736000D01*
X113252261Y-94736000D01*
X113129047Y-94736000D01*
X113075294Y-94746692D01*
X113075293Y-94746691D01*
X113008208Y-94760035D01*
X113008195Y-94760039D01*
X112975916Y-94773409D01*
X112961051Y-94779567D01*
X112934015Y-94790766D01*
X112894371Y-94807187D01*
X112894360Y-94807193D01*
X112880754Y-94816285D01*
X112880753Y-94816286D01*
X112791922Y-94875640D01*
X112748359Y-94919203D01*
X112704796Y-94962767D01*
X112423144Y-95244418D01*
X112423138Y-95244426D01*
X112354690Y-95346862D01*
X112354688Y-95346867D01*
X112323109Y-95423106D01*
X112308952Y-95457288D01*
X112307537Y-95460703D01*
X112283541Y-95581344D01*
X112283500Y-95581548D01*
X112283500Y-95581652D01*
X112283500Y-114118110D01*
X112300735Y-114204755D01*
X112307537Y-114238952D01*
X112313659Y-114253732D01*
X112313659Y-114253733D01*
X112354684Y-114352778D01*
X112354690Y-114352789D01*
X112367035Y-114371263D01*
X112367036Y-114371268D01*
X112367038Y-114371268D01*
X112423140Y-114455231D01*
X112423141Y-114455232D01*
X112423142Y-114455233D01*
X112510267Y-114542358D01*
X112510268Y-114542358D01*
X112517335Y-114549425D01*
X112517334Y-114549425D01*
X112517338Y-114549428D01*
X114813412Y-116845502D01*
X114846897Y-116906825D01*
X114843662Y-116971500D01*
X114816599Y-117054790D01*
X114816598Y-117054797D01*
X114807976Y-117109233D01*
X114789500Y-117225889D01*
X114789500Y-117399111D01*
X114797677Y-117450739D01*
X114815657Y-117564264D01*
X114816598Y-117570201D01*
X114870127Y-117734945D01*
X114948768Y-117889288D01*
X115050586Y-118029428D01*
X115173072Y-118151914D01*
X115313212Y-118253732D01*
X115467555Y-118332373D01*
X115632299Y-118385902D01*
X115803389Y-118413000D01*
X115803390Y-118413000D01*
X116526610Y-118413000D01*
X116526611Y-118413000D01*
X116697701Y-118385902D01*
X116862445Y-118332373D01*
X117016788Y-118253732D01*
X117156928Y-118151914D01*
X117279414Y-118029428D01*
X117381232Y-117889288D01*
X117459873Y-117734945D01*
X117513402Y-117570201D01*
X117540500Y-117399111D01*
X117540500Y-117225889D01*
X117513402Y-117054799D01*
X117459873Y-116890055D01*
X117381232Y-116735712D01*
X117279414Y-116595572D01*
X117156928Y-116473086D01*
X117073975Y-116412817D01*
X117031311Y-116357488D01*
X117025332Y-116287874D01*
X117057938Y-116226079D01*
X117073976Y-116212182D01*
X117156928Y-116151914D01*
X117279414Y-116029428D01*
X117339886Y-115946194D01*
X117353314Y-115935607D01*
X117362393Y-115922531D01*
X117392742Y-115904524D01*
X117392744Y-115904521D01*
X117410414Y-115897203D01*
X117483786Y-115866812D01*
X117556371Y-115818311D01*
X117586233Y-115798358D01*
X117673358Y-115711233D01*
X117673359Y-115711230D01*
X117680425Y-115704165D01*
X117680427Y-115704161D01*
X118788820Y-114595768D01*
X118850142Y-114562285D01*
X118919834Y-114567269D01*
X118975767Y-114609141D01*
X119000184Y-114674605D01*
X119000500Y-114683451D01*
X119000500Y-117016799D01*
X119000500Y-117140013D01*
X119003344Y-117154310D01*
X119003343Y-117154310D01*
X119017581Y-117225889D01*
X119018451Y-117230263D01*
X119022498Y-117250611D01*
X119024536Y-117260854D01*
X119071686Y-117374689D01*
X119071687Y-117374691D01*
X119087751Y-117398730D01*
X119087752Y-117398732D01*
X119140141Y-117477139D01*
X119231586Y-117568584D01*
X119231608Y-117568604D01*
X124264994Y-122601990D01*
X124298479Y-122663313D01*
X124293495Y-122733005D01*
X124251623Y-122788938D01*
X124242410Y-122795210D01*
X124181654Y-122832684D01*
X124057684Y-122956654D01*
X123965643Y-123105875D01*
X123965641Y-123105880D01*
X123910494Y-123272302D01*
X123910493Y-123272309D01*
X123900000Y-123375013D01*
X123900000Y-123800000D01*
X124719670Y-123800000D01*
X124699925Y-123819745D01*
X124650556Y-123905255D01*
X124625000Y-124000630D01*
X124625000Y-124099370D01*
X124650556Y-124194745D01*
X124699925Y-124280255D01*
X124719670Y-124300000D01*
X123900001Y-124300000D01*
X123900001Y-124724986D01*
X123910494Y-124827697D01*
X123965641Y-124994119D01*
X123965643Y-124994124D01*
X124057684Y-125143345D01*
X124181654Y-125267315D01*
X124330875Y-125359356D01*
X124330880Y-125359358D01*
X124497302Y-125414505D01*
X124497309Y-125414506D01*
X124600019Y-125424999D01*
X124749999Y-125424999D01*
X124750000Y-125424998D01*
X124750000Y-124330330D01*
X124769745Y-124350075D01*
X124855255Y-124399444D01*
X124950630Y-124425000D01*
X125049370Y-124425000D01*
X125144745Y-124399444D01*
X125230255Y-124350075D01*
X125250000Y-124330330D01*
X125250000Y-125424999D01*
X125399972Y-125424999D01*
X125399986Y-125424998D01*
X125502697Y-125414505D01*
X125669119Y-125359358D01*
X125669124Y-125359356D01*
X125818345Y-125267315D01*
X125942315Y-125143345D01*
X125981945Y-125079094D01*
X126033893Y-125032368D01*
X126102855Y-125021145D01*
X126166937Y-125048988D01*
X126175166Y-125056508D01*
X126283072Y-125164414D01*
X126423212Y-125266232D01*
X126577555Y-125344873D01*
X126742299Y-125398402D01*
X126913389Y-125425500D01*
X126913390Y-125425500D01*
X127086610Y-125425500D01*
X127086611Y-125425500D01*
X127257701Y-125398402D01*
X127422445Y-125344873D01*
X127576788Y-125266232D01*
X127716928Y-125164414D01*
X127839414Y-125041928D01*
X127899682Y-124958975D01*
X127955012Y-124916311D01*
X128024626Y-124910332D01*
X128086421Y-124942938D01*
X128100315Y-124958973D01*
X128160586Y-125041928D01*
X128283072Y-125164414D01*
X128423212Y-125266232D01*
X128577555Y-125344873D01*
X128742299Y-125398402D01*
X128913389Y-125425500D01*
X128913390Y-125425500D01*
X129086610Y-125425500D01*
X129086611Y-125425500D01*
X129257701Y-125398402D01*
X129422445Y-125344873D01*
X129576788Y-125266232D01*
X129716928Y-125164414D01*
X129839414Y-125041928D01*
X129899682Y-124958975D01*
X129955012Y-124916311D01*
X130024626Y-124910332D01*
X130086421Y-124942938D01*
X130100315Y-124958973D01*
X130160586Y-125041928D01*
X130283072Y-125164414D01*
X130423212Y-125266232D01*
X130577555Y-125344873D01*
X130742299Y-125398402D01*
X130913389Y-125425500D01*
X130913390Y-125425500D01*
X131086610Y-125425500D01*
X131086611Y-125425500D01*
X131257701Y-125398402D01*
X131422445Y-125344873D01*
X131576788Y-125266232D01*
X131716928Y-125164414D01*
X131839414Y-125041928D01*
X131899682Y-124958975D01*
X131955012Y-124916311D01*
X132024626Y-124910332D01*
X132086421Y-124942938D01*
X132100315Y-124958973D01*
X132160586Y-125041928D01*
X132283072Y-125164414D01*
X132423212Y-125266232D01*
X132577555Y-125344873D01*
X132742299Y-125398402D01*
X132913389Y-125425500D01*
X132913390Y-125425500D01*
X133086610Y-125425500D01*
X133086611Y-125425500D01*
X133257701Y-125398402D01*
X133422445Y-125344873D01*
X133576788Y-125266232D01*
X133716928Y-125164414D01*
X133839414Y-125041928D01*
X133899682Y-124958975D01*
X133955012Y-124916311D01*
X134024626Y-124910332D01*
X134086421Y-124942938D01*
X134100315Y-124958973D01*
X134160586Y-125041928D01*
X134283072Y-125164414D01*
X134423212Y-125266232D01*
X134577555Y-125344873D01*
X134742299Y-125398402D01*
X134913389Y-125425500D01*
X134913390Y-125425500D01*
X135086610Y-125425500D01*
X135086611Y-125425500D01*
X135257701Y-125398402D01*
X135422445Y-125344873D01*
X135576788Y-125266232D01*
X135716928Y-125164414D01*
X135839414Y-125041928D01*
X135899682Y-124958975D01*
X135955012Y-124916311D01*
X136024626Y-124910332D01*
X136086421Y-124942938D01*
X136100315Y-124958973D01*
X136160586Y-125041928D01*
X136283072Y-125164414D01*
X136423212Y-125266232D01*
X136577555Y-125344873D01*
X136742299Y-125398402D01*
X136913389Y-125425500D01*
X136913390Y-125425500D01*
X137086610Y-125425500D01*
X137086611Y-125425500D01*
X137257701Y-125398402D01*
X137422445Y-125344873D01*
X137576788Y-125266232D01*
X137716928Y-125164414D01*
X137839414Y-125041928D01*
X137899682Y-124958975D01*
X137955012Y-124916311D01*
X138024626Y-124910332D01*
X138086421Y-124942938D01*
X138100315Y-124958973D01*
X138160586Y-125041928D01*
X138283072Y-125164414D01*
X138423212Y-125266232D01*
X138577555Y-125344873D01*
X138742299Y-125398402D01*
X138913389Y-125425500D01*
X138913390Y-125425500D01*
X139086610Y-125425500D01*
X139086611Y-125425500D01*
X139257701Y-125398402D01*
X139422445Y-125344873D01*
X139576788Y-125266232D01*
X139716928Y-125164414D01*
X139839414Y-125041928D01*
X139941232Y-124901788D01*
X140019873Y-124747445D01*
X140073402Y-124582701D01*
X140100500Y-124411611D01*
X140100500Y-123688389D01*
X140073402Y-123517299D01*
X140019873Y-123352555D01*
X139941232Y-123198212D01*
X139839414Y-123058072D01*
X139716928Y-122935586D01*
X139676613Y-122906295D01*
X139633948Y-122850965D01*
X139625500Y-122805978D01*
X139625500Y-118542350D01*
X139629279Y-118527688D01*
X139628460Y-118515417D01*
X139638488Y-118491958D01*
X139640951Y-118482407D01*
X139643483Y-118477820D01*
X139709394Y-118379179D01*
X139743724Y-118296297D01*
X139747075Y-118290230D01*
X139767161Y-118270332D01*
X139784902Y-118248318D01*
X139791656Y-118246069D01*
X139796714Y-118241060D01*
X139824370Y-118235180D01*
X139851196Y-118226252D01*
X139858093Y-118228012D01*
X139865057Y-118226532D01*
X139891499Y-118236538D01*
X139918896Y-118243530D01*
X139927366Y-118250110D01*
X139930405Y-118251260D01*
X139932520Y-118254114D01*
X139943305Y-118262492D01*
X140060858Y-118380045D01*
X140143904Y-118438194D01*
X140144800Y-118438821D01*
X140218390Y-118492287D01*
X140228547Y-118497462D01*
X140235648Y-118502434D01*
X140235652Y-118502436D01*
X140247265Y-118510567D01*
X140247266Y-118510568D01*
X140329827Y-118549067D01*
X140400781Y-118585220D01*
X140422467Y-118592266D01*
X140453504Y-118606739D01*
X140453510Y-118606740D01*
X140453513Y-118606742D01*
X140527386Y-118626535D01*
X140530528Y-118627377D01*
X140595466Y-118648477D01*
X140629233Y-118653825D01*
X140673308Y-118665635D01*
X140737103Y-118671215D01*
X140745690Y-118672269D01*
X140797648Y-118680500D01*
X140797649Y-118680500D01*
X142556785Y-118680500D01*
X142556785Y-118680499D01*
X142726692Y-118665635D01*
X142946496Y-118606739D01*
X143152734Y-118510568D01*
X143339139Y-118380047D01*
X143500047Y-118219139D01*
X143525088Y-118183377D01*
X143579665Y-118139752D01*
X143626663Y-118130500D01*
X145993920Y-118130500D01*
X146091462Y-118111096D01*
X146138913Y-118101658D01*
X146275495Y-118045084D01*
X146334737Y-118005500D01*
X146398416Y-117962952D01*
X146430101Y-117931265D01*
X146436309Y-117926459D01*
X146461824Y-117916464D01*
X146485873Y-117903333D01*
X146498933Y-117901928D01*
X146501366Y-117900976D01*
X146503610Y-117901425D01*
X146512231Y-117900499D01*
X147300002Y-117900499D01*
X147300008Y-117900499D01*
X147402797Y-117889999D01*
X147569334Y-117834814D01*
X147718656Y-117742712D01*
X147842712Y-117618656D01*
X147934814Y-117469334D01*
X147989999Y-117302797D01*
X148000500Y-117200009D01*
X148000499Y-115999992D01*
X148000498Y-115999981D01*
X147989999Y-115897201D01*
X147989998Y-115897200D01*
X147971059Y-115840047D01*
X147934814Y-115730666D01*
X147842712Y-115581344D01*
X147718656Y-115457288D01*
X147569334Y-115365186D01*
X147402797Y-115310001D01*
X147402795Y-115310000D01*
X147300010Y-115299500D01*
X146099998Y-115299500D01*
X146099981Y-115299501D01*
X145997203Y-115310000D01*
X145997200Y-115310001D01*
X145830668Y-115365185D01*
X145830663Y-115365187D01*
X145681342Y-115457289D01*
X145557289Y-115581342D01*
X145465187Y-115730663D01*
X145465185Y-115730668D01*
X145442756Y-115798355D01*
X145429925Y-115837078D01*
X145410002Y-115897201D01*
X145410000Y-115897204D01*
X145399500Y-115999983D01*
X145399500Y-115999991D01*
X145399500Y-116312500D01*
X145399501Y-116505500D01*
X145379817Y-116572539D01*
X145327013Y-116618294D01*
X145275501Y-116629500D01*
X143626663Y-116629500D01*
X143559624Y-116609815D01*
X143525088Y-116576623D01*
X143500045Y-116540858D01*
X143339141Y-116379954D01*
X143152734Y-116249432D01*
X143152728Y-116249429D01*
X143125038Y-116236517D01*
X143094724Y-116222381D01*
X143042285Y-116176210D01*
X143023133Y-116109017D01*
X143043348Y-116042135D01*
X143094725Y-115997618D01*
X143152734Y-115970568D01*
X143339139Y-115840047D01*
X143500047Y-115679139D01*
X143630568Y-115492734D01*
X143726739Y-115286496D01*
X143785635Y-115066692D01*
X143800500Y-114896784D01*
X143800500Y-114783216D01*
X143785635Y-114613308D01*
X143731914Y-114412817D01*
X143726741Y-114393511D01*
X143726738Y-114393502D01*
X143661562Y-114253733D01*
X143630568Y-114187266D01*
X143555092Y-114079474D01*
X145974076Y-114079474D01*
X146018650Y-114111859D01*
X146200968Y-114204755D01*
X146395582Y-114267990D01*
X146597683Y-114300000D01*
X146802317Y-114300000D01*
X147004417Y-114267990D01*
X147199031Y-114204755D01*
X147381349Y-114111859D01*
X147425921Y-114079474D01*
X146700000Y-113353553D01*
X145974076Y-114079474D01*
X143555092Y-114079474D01*
X143500047Y-114000861D01*
X143500046Y-114000860D01*
X143500044Y-114000857D01*
X143339141Y-113839954D01*
X143152734Y-113709432D01*
X143152732Y-113709431D01*
X143100779Y-113685205D01*
X143048340Y-113639032D01*
X143029188Y-113571839D01*
X143049404Y-113504958D01*
X143094732Y-113463464D01*
X143159500Y-113428844D01*
X143159521Y-113428832D01*
X143290530Y-113341295D01*
X143290536Y-113341291D01*
X143367064Y-113278485D01*
X143478485Y-113167064D01*
X143541291Y-113090536D01*
X143541295Y-113090530D01*
X143628832Y-112959521D01*
X143628844Y-112959501D01*
X143661887Y-112897682D01*
X145400000Y-112897682D01*
X145400000Y-113102317D01*
X145432009Y-113304417D01*
X145495244Y-113499031D01*
X145588141Y-113681350D01*
X145588147Y-113681359D01*
X145620523Y-113725921D01*
X145620524Y-113725922D01*
X146346446Y-113000001D01*
X146346446Y-112999999D01*
X146306951Y-112960504D01*
X146400000Y-112960504D01*
X146400000Y-113039496D01*
X146420444Y-113115796D01*
X146459940Y-113184205D01*
X146515795Y-113240060D01*
X146584204Y-113279556D01*
X146660504Y-113300000D01*
X146739496Y-113300000D01*
X146815796Y-113279556D01*
X146884205Y-113240060D01*
X146940060Y-113184205D01*
X146979556Y-113115796D01*
X147000000Y-113039496D01*
X147000000Y-112999999D01*
X147053553Y-112999999D01*
X147053553Y-113000000D01*
X147779474Y-113725921D01*
X147802876Y-113693713D01*
X151249500Y-113693713D01*
X151249500Y-113906286D01*
X151282059Y-114111859D01*
X151282754Y-114116243D01*
X151327427Y-114253733D01*
X151348444Y-114318414D01*
X151444951Y-114507820D01*
X151569890Y-114679786D01*
X151720213Y-114830109D01*
X151892179Y-114955048D01*
X151892181Y-114955049D01*
X151892184Y-114955051D01*
X152081588Y-115051557D01*
X152283757Y-115117246D01*
X152493713Y-115150500D01*
X152493714Y-115150500D01*
X152706286Y-115150500D01*
X152706287Y-115150500D01*
X152916243Y-115117246D01*
X153118412Y-115051557D01*
X153307816Y-114955051D01*
X153388013Y-114896785D01*
X153479786Y-114830109D01*
X153479788Y-114830106D01*
X153479792Y-114830104D01*
X153630104Y-114679792D01*
X153630106Y-114679788D01*
X153630109Y-114679786D01*
X153755048Y-114507820D01*
X153755047Y-114507820D01*
X153755051Y-114507816D01*
X153851557Y-114318412D01*
X153917246Y-114116243D01*
X153950500Y-113906287D01*
X153950500Y-113693713D01*
X153917246Y-113483757D01*
X153851557Y-113281588D01*
X153755051Y-113092184D01*
X153755049Y-113092181D01*
X153755048Y-113092179D01*
X153630109Y-112920213D01*
X153479786Y-112769890D01*
X153307820Y-112644951D01*
X153118414Y-112548444D01*
X153118413Y-112548443D01*
X153118412Y-112548443D01*
X152916243Y-112482754D01*
X152916241Y-112482753D01*
X152916240Y-112482753D01*
X152754957Y-112457208D01*
X152706287Y-112449500D01*
X152493713Y-112449500D01*
X152445042Y-112457208D01*
X152283760Y-112482753D01*
X152081585Y-112548444D01*
X151892179Y-112644951D01*
X151720213Y-112769890D01*
X151569890Y-112920213D01*
X151444951Y-113092179D01*
X151348444Y-113281585D01*
X151282753Y-113483760D01*
X151249500Y-113693713D01*
X147802876Y-113693713D01*
X147811861Y-113681347D01*
X147811861Y-113681346D01*
X147836726Y-113632547D01*
X147836726Y-113632546D01*
X147904755Y-113499031D01*
X147967990Y-113304417D01*
X148000000Y-113102317D01*
X148000000Y-112897682D01*
X147967990Y-112695582D01*
X147904755Y-112500968D01*
X147811859Y-112318650D01*
X147779474Y-112274077D01*
X147779474Y-112274076D01*
X147053553Y-112999999D01*
X147000000Y-112999999D01*
X147000000Y-112960504D01*
X146979556Y-112884204D01*
X146940060Y-112815795D01*
X146884205Y-112759940D01*
X146815796Y-112720444D01*
X146739496Y-112700000D01*
X146660504Y-112700000D01*
X146584204Y-112720444D01*
X146515795Y-112759940D01*
X146459940Y-112815795D01*
X146420444Y-112884204D01*
X146400000Y-112960504D01*
X146306951Y-112960504D01*
X145620524Y-112274077D01*
X145620523Y-112274077D01*
X145588143Y-112318644D01*
X145495244Y-112500968D01*
X145432009Y-112695582D01*
X145400000Y-112897682D01*
X143661887Y-112897682D01*
X143675510Y-112872196D01*
X143675511Y-112872193D01*
X143686625Y-112845364D01*
X143686625Y-112845363D01*
X143735814Y-112726612D01*
X143764556Y-112631860D01*
X143764559Y-112631849D01*
X143780839Y-112550000D01*
X141824000Y-112550000D01*
X141756961Y-112530315D01*
X141711206Y-112477511D01*
X141700000Y-112426000D01*
X141700000Y-112174000D01*
X141719685Y-112106961D01*
X141772489Y-112061206D01*
X141824000Y-112050000D01*
X143780839Y-112050000D01*
X143780839Y-112049999D01*
X143769298Y-111991974D01*
X143764558Y-111968147D01*
X143764556Y-111968139D01*
X143750112Y-111920523D01*
X145974077Y-111920523D01*
X145974077Y-111920524D01*
X146700000Y-112646446D01*
X147425922Y-111920524D01*
X147425921Y-111920523D01*
X147381359Y-111888147D01*
X147381350Y-111888141D01*
X147199031Y-111795244D01*
X147004417Y-111732009D01*
X146802317Y-111700000D01*
X146597683Y-111700000D01*
X146395582Y-111732009D01*
X146200968Y-111795244D01*
X146018644Y-111888143D01*
X145974077Y-111920523D01*
X143750112Y-111920523D01*
X143735814Y-111873387D01*
X143675509Y-111727801D01*
X143628844Y-111640498D01*
X143628832Y-111640478D01*
X143541295Y-111509469D01*
X143541291Y-111509463D01*
X143478485Y-111432935D01*
X143367064Y-111321514D01*
X143290536Y-111258708D01*
X143290530Y-111258704D01*
X143159521Y-111171167D01*
X143159501Y-111171155D01*
X143094730Y-111136534D01*
X143044886Y-111087571D01*
X143029426Y-111019434D01*
X143053258Y-110953754D01*
X143100777Y-110914795D01*
X143152734Y-110890568D01*
X143339139Y-110760047D01*
X143500047Y-110599139D01*
X143630568Y-110412734D01*
X143726739Y-110206496D01*
X143785635Y-109986692D01*
X143800500Y-109816784D01*
X143800500Y-109703216D01*
X143785635Y-109533308D01*
X143726739Y-109313504D01*
X143674698Y-109201904D01*
X143664207Y-109132828D01*
X143692727Y-109069044D01*
X143751203Y-109030804D01*
X143787081Y-109025500D01*
X147455978Y-109025500D01*
X147523017Y-109045185D01*
X147556295Y-109076613D01*
X147585586Y-109116928D01*
X147708072Y-109239414D01*
X147848212Y-109341232D01*
X148002555Y-109419873D01*
X148167299Y-109473402D01*
X148338389Y-109500500D01*
X148338390Y-109500500D01*
X149061610Y-109500500D01*
X149061611Y-109500500D01*
X149232701Y-109473402D01*
X149397445Y-109419873D01*
X149551788Y-109341232D01*
X149691928Y-109239414D01*
X149814414Y-109116928D01*
X149916232Y-108976788D01*
X149994873Y-108822445D01*
X150048402Y-108657701D01*
X150075500Y-108486611D01*
X150075500Y-108313389D01*
X150048402Y-108142299D01*
X149994873Y-107977555D01*
X149916232Y-107823212D01*
X149814414Y-107683072D01*
X149691928Y-107560586D01*
X149608975Y-107500317D01*
X149566311Y-107444988D01*
X149560332Y-107375374D01*
X149592938Y-107313579D01*
X149608976Y-107299682D01*
X149691928Y-107239414D01*
X149814414Y-107116928D01*
X149916232Y-106976788D01*
X149994873Y-106822445D01*
X150048402Y-106657701D01*
X150075500Y-106486611D01*
X150075500Y-106313389D01*
X150048402Y-106142299D01*
X149994873Y-105977555D01*
X149916232Y-105823212D01*
X149814414Y-105683072D01*
X149691928Y-105560586D01*
X149608975Y-105500317D01*
X149566311Y-105444988D01*
X149560332Y-105375374D01*
X149592938Y-105313579D01*
X149608976Y-105299682D01*
X149691928Y-105239414D01*
X149814414Y-105116928D01*
X149916232Y-104976788D01*
X149994873Y-104822445D01*
X150048402Y-104657701D01*
X150075500Y-104486611D01*
X150075500Y-104313389D01*
X150048402Y-104142299D01*
X149994873Y-103977555D01*
X149916232Y-103823212D01*
X149814414Y-103683072D01*
X149691928Y-103560586D01*
X149608975Y-103500317D01*
X149566311Y-103444988D01*
X149560332Y-103375374D01*
X149592938Y-103313579D01*
X149608976Y-103299682D01*
X149611817Y-103297618D01*
X149691928Y-103239414D01*
X149814414Y-103116928D01*
X149916232Y-102976788D01*
X149994873Y-102822445D01*
X150048402Y-102657701D01*
X150075500Y-102486611D01*
X150075500Y-102313389D01*
X150048402Y-102142299D01*
X149994873Y-101977555D01*
X149916232Y-101823212D01*
X149814414Y-101683072D01*
X149691928Y-101560586D01*
X149608975Y-101500317D01*
X149566311Y-101444988D01*
X149560332Y-101375374D01*
X149592938Y-101313579D01*
X149608976Y-101299682D01*
X149691928Y-101239414D01*
X149814414Y-101116928D01*
X149916232Y-100976788D01*
X149994873Y-100822445D01*
X150048402Y-100657701D01*
X150075500Y-100486611D01*
X150075500Y-100313389D01*
X150048402Y-100142299D01*
X149994873Y-99977555D01*
X149916232Y-99823212D01*
X149814414Y-99683072D01*
X149691928Y-99560586D01*
X149608550Y-99500008D01*
X149565885Y-99444677D01*
X149559906Y-99375064D01*
X149592512Y-99313269D01*
X149608552Y-99299371D01*
X149691598Y-99239036D01*
X149814032Y-99116602D01*
X149915804Y-98976524D01*
X149994408Y-98822255D01*
X150047914Y-98657584D01*
X150049115Y-98650000D01*
X148980330Y-98650000D01*
X149000075Y-98630255D01*
X149049444Y-98544745D01*
X149075000Y-98449370D01*
X149075000Y-98350630D01*
X149049444Y-98255255D01*
X149000075Y-98169745D01*
X148980330Y-98150000D01*
X150049115Y-98150000D01*
X150049115Y-98149999D01*
X150047914Y-98142415D01*
X149994408Y-97977744D01*
X149915804Y-97823475D01*
X149814032Y-97683397D01*
X149706434Y-97575799D01*
X149672949Y-97514476D01*
X149677933Y-97444784D01*
X149719805Y-97388851D01*
X149728995Y-97382594D01*
X149793656Y-97342712D01*
X149917712Y-97218656D01*
X150009814Y-97069334D01*
X150064999Y-96902797D01*
X150075500Y-96800009D01*
X150075499Y-95999992D01*
X150064999Y-95897203D01*
X150009814Y-95730666D01*
X149917712Y-95581344D01*
X149793656Y-95457288D01*
X149644334Y-95365186D01*
X149477797Y-95310001D01*
X149477795Y-95310000D01*
X149375010Y-95299500D01*
X148024998Y-95299500D01*
X148024981Y-95299501D01*
X147922203Y-95310000D01*
X147922200Y-95310001D01*
X147755668Y-95365185D01*
X147755663Y-95365187D01*
X147606342Y-95457289D01*
X147482289Y-95581342D01*
X147390187Y-95730663D01*
X147390185Y-95730668D01*
X147387940Y-95737444D01*
X147335001Y-95897203D01*
X147335001Y-95897204D01*
X147335000Y-95897204D01*
X147324500Y-95999983D01*
X147324500Y-96800001D01*
X147324501Y-96800019D01*
X147335000Y-96902796D01*
X147335001Y-96902799D01*
X147390185Y-97069331D01*
X147390187Y-97069336D01*
X147390435Y-97069738D01*
X147482288Y-97218656D01*
X147606344Y-97342712D01*
X147670981Y-97382580D01*
X147717705Y-97434526D01*
X147728928Y-97503489D01*
X147701085Y-97567571D01*
X147693566Y-97575799D01*
X147585964Y-97683401D01*
X147484195Y-97823475D01*
X147405591Y-97977744D01*
X147352085Y-98142415D01*
X147350884Y-98149999D01*
X147350885Y-98150000D01*
X148419670Y-98150000D01*
X148399925Y-98169745D01*
X148350556Y-98255255D01*
X148325000Y-98350630D01*
X148325000Y-98449370D01*
X148350556Y-98544745D01*
X148399925Y-98630255D01*
X148419670Y-98650000D01*
X147350885Y-98650000D01*
X147352085Y-98657584D01*
X147405591Y-98822255D01*
X147484195Y-98976524D01*
X147585967Y-99116602D01*
X147708401Y-99239036D01*
X147791447Y-99299371D01*
X147834114Y-99354701D01*
X147840093Y-99424314D01*
X147807488Y-99486109D01*
X147791450Y-99500007D01*
X147708072Y-99560585D01*
X147585588Y-99683069D01*
X147585588Y-99683070D01*
X147585586Y-99683072D01*
X147554397Y-99726000D01*
X147483768Y-99823211D01*
X147405128Y-99977552D01*
X147351597Y-100142302D01*
X147324500Y-100313389D01*
X147324500Y-100486610D01*
X147348999Y-100641295D01*
X147351598Y-100657701D01*
X147405127Y-100822445D01*
X147483768Y-100976788D01*
X147585586Y-101116928D01*
X147708072Y-101239414D01*
X147708078Y-101239418D01*
X147791023Y-101299683D01*
X147833689Y-101355013D01*
X147839667Y-101424626D01*
X147807061Y-101486421D01*
X147791023Y-101500317D01*
X147708078Y-101560581D01*
X147708069Y-101560588D01*
X147585588Y-101683069D01*
X147585588Y-101683070D01*
X147585586Y-101683072D01*
X147542803Y-101741958D01*
X147483768Y-101823211D01*
X147405128Y-101977552D01*
X147351597Y-102142302D01*
X147342968Y-102196784D01*
X147324500Y-102313389D01*
X147324500Y-102486611D01*
X147328619Y-102512617D01*
X147348670Y-102639219D01*
X147351598Y-102657701D01*
X147405127Y-102822445D01*
X147483768Y-102976788D01*
X147585586Y-103116928D01*
X147708072Y-103239414D01*
X147708078Y-103239418D01*
X147791023Y-103299683D01*
X147833689Y-103355013D01*
X147839667Y-103424626D01*
X147807061Y-103486421D01*
X147791023Y-103500317D01*
X147708078Y-103560581D01*
X147708069Y-103560588D01*
X147585588Y-103683069D01*
X147585588Y-103683070D01*
X147585586Y-103683072D01*
X147549940Y-103732134D01*
X147483768Y-103823211D01*
X147405128Y-103977552D01*
X147351597Y-104142302D01*
X147324500Y-104313389D01*
X147324500Y-104486610D01*
X147349329Y-104643380D01*
X147351598Y-104657701D01*
X147405127Y-104822445D01*
X147483768Y-104976788D01*
X147585586Y-105116928D01*
X147708072Y-105239414D01*
X147708078Y-105239418D01*
X147791023Y-105299683D01*
X147833689Y-105355013D01*
X147839667Y-105424626D01*
X147807061Y-105486421D01*
X147791023Y-105500317D01*
X147708078Y-105560581D01*
X147708069Y-105560588D01*
X147585588Y-105683069D01*
X147585588Y-105683070D01*
X147585586Y-105683072D01*
X147556720Y-105722803D01*
X147483768Y-105823211D01*
X147405128Y-105977552D01*
X147405127Y-105977554D01*
X147405127Y-105977555D01*
X147393032Y-106014780D01*
X147351597Y-106142302D01*
X147324500Y-106313389D01*
X147324500Y-106486610D01*
X147350038Y-106647855D01*
X147351598Y-106657701D01*
X147405127Y-106822445D01*
X147483768Y-106976788D01*
X147585586Y-107116928D01*
X147708072Y-107239414D01*
X147708078Y-107239418D01*
X147791023Y-107299683D01*
X147833689Y-107355013D01*
X147839667Y-107424626D01*
X147807061Y-107486421D01*
X147791023Y-107500317D01*
X147708078Y-107560581D01*
X147708069Y-107560588D01*
X147585585Y-107683072D01*
X147556295Y-107723387D01*
X147500965Y-107766052D01*
X147455978Y-107774500D01*
X143859400Y-107774500D01*
X143792361Y-107754815D01*
X143746606Y-107702011D01*
X143736662Y-107632853D01*
X143739625Y-107618407D01*
X143773825Y-107490766D01*
X143785635Y-107446692D01*
X143800500Y-107276784D01*
X143800500Y-107163216D01*
X143785635Y-106993308D01*
X143736355Y-106809390D01*
X143726741Y-106773511D01*
X143726738Y-106773502D01*
X143715472Y-106749343D01*
X143630568Y-106567266D01*
X143500047Y-106380861D01*
X143500045Y-106380858D01*
X143339141Y-106219954D01*
X143152734Y-106089432D01*
X143152728Y-106089429D01*
X143094725Y-106062382D01*
X143042285Y-106016210D01*
X143023133Y-105949017D01*
X143043348Y-105882135D01*
X143094725Y-105837618D01*
X143152734Y-105810568D01*
X143339139Y-105680047D01*
X143500047Y-105519139D01*
X143630568Y-105332734D01*
X143726739Y-105126496D01*
X143785635Y-104906692D01*
X143800500Y-104736784D01*
X143800500Y-104623216D01*
X143785635Y-104453308D01*
X143738699Y-104278141D01*
X143726741Y-104233511D01*
X143726738Y-104233502D01*
X143715472Y-104209343D01*
X143630568Y-104027266D01*
X143500047Y-103840861D01*
X143500045Y-103840858D01*
X143339141Y-103679954D01*
X143152734Y-103549432D01*
X143152728Y-103549429D01*
X143094725Y-103522382D01*
X143042285Y-103476210D01*
X143023133Y-103409017D01*
X143043348Y-103342135D01*
X143094725Y-103297618D01*
X143152734Y-103270568D01*
X143339139Y-103140047D01*
X143500047Y-102979139D01*
X143630568Y-102792734D01*
X143726739Y-102586496D01*
X143785635Y-102366692D01*
X143800500Y-102196784D01*
X143800500Y-102083216D01*
X143785635Y-101913308D01*
X143732239Y-101714031D01*
X143726741Y-101693511D01*
X143726738Y-101693502D01*
X143721874Y-101683072D01*
X143630568Y-101487266D01*
X143500047Y-101300861D01*
X143500045Y-101300858D01*
X143339141Y-101139954D01*
X143152734Y-101009432D01*
X143152732Y-101009431D01*
X143100779Y-100985205D01*
X143048340Y-100939032D01*
X143029188Y-100871839D01*
X143049404Y-100804958D01*
X143094732Y-100763464D01*
X143159500Y-100728844D01*
X143159521Y-100728832D01*
X143290530Y-100641295D01*
X143290536Y-100641291D01*
X143367064Y-100578485D01*
X143478485Y-100467064D01*
X143541291Y-100390536D01*
X143541295Y-100390530D01*
X143628832Y-100259521D01*
X143628844Y-100259501D01*
X143675509Y-100172198D01*
X143735814Y-100026612D01*
X143764556Y-99931860D01*
X143764559Y-99931849D01*
X143780839Y-99850000D01*
X141824000Y-99850000D01*
X141756961Y-99830315D01*
X141711206Y-99777511D01*
X141700000Y-99726000D01*
X141700000Y-99474000D01*
X141719685Y-99406961D01*
X141772489Y-99361206D01*
X141824000Y-99350000D01*
X143780839Y-99350000D01*
X143780839Y-99349999D01*
X143764559Y-99268150D01*
X143764556Y-99268139D01*
X143735814Y-99173387D01*
X143675509Y-99027801D01*
X143628844Y-98940498D01*
X143628832Y-98940478D01*
X143541295Y-98809469D01*
X143541291Y-98809463D01*
X143478485Y-98732935D01*
X143367064Y-98621514D01*
X143290536Y-98558708D01*
X143290530Y-98558704D01*
X143159521Y-98471167D01*
X143159501Y-98471155D01*
X143094730Y-98436534D01*
X143044886Y-98387571D01*
X143029426Y-98319434D01*
X143053258Y-98253754D01*
X143100777Y-98214795D01*
X143152734Y-98190568D01*
X143339139Y-98060047D01*
X143500047Y-97899139D01*
X143630568Y-97712734D01*
X143726739Y-97506496D01*
X143785635Y-97286692D01*
X143800500Y-97116784D01*
X143800500Y-97003216D01*
X143785635Y-96833308D01*
X143739536Y-96661265D01*
X143726741Y-96613511D01*
X143726738Y-96613502D01*
X143715472Y-96589343D01*
X143630568Y-96407266D01*
X143500047Y-96220861D01*
X143500045Y-96220858D01*
X143339141Y-96059954D01*
X143152734Y-95929432D01*
X143152728Y-95929429D01*
X143094725Y-95902382D01*
X143042285Y-95856210D01*
X143023133Y-95789017D01*
X143043348Y-95722135D01*
X143094725Y-95677618D01*
X143152734Y-95650568D01*
X143339139Y-95520047D01*
X143500047Y-95359139D01*
X143630568Y-95172734D01*
X143726739Y-94966496D01*
X143785635Y-94746692D01*
X143800500Y-94576784D01*
X143800500Y-94463216D01*
X143785635Y-94293308D01*
X143740916Y-94126415D01*
X143726741Y-94073511D01*
X143726738Y-94073503D01*
X143630568Y-93867266D01*
X143500047Y-93680861D01*
X143500045Y-93680858D01*
X143339141Y-93519954D01*
X143152734Y-93389432D01*
X143152728Y-93389429D01*
X143094725Y-93362382D01*
X143042285Y-93316210D01*
X143023133Y-93249017D01*
X143043348Y-93182135D01*
X143094725Y-93137618D01*
X143152734Y-93110568D01*
X143339139Y-92980047D01*
X143500047Y-92819139D01*
X143587473Y-92694278D01*
X143599423Y-92684166D01*
X143606331Y-92673023D01*
X143630717Y-92657683D01*
X143635707Y-92653461D01*
X143638608Y-92652078D01*
X143655495Y-92645084D01*
X143660984Y-92641416D01*
X143669079Y-92637559D01*
X143695084Y-92633386D01*
X143720217Y-92625520D01*
X143722420Y-92625500D01*
X143961607Y-92625500D01*
X143961608Y-92625499D01*
X144082452Y-92601463D01*
X144196286Y-92554311D01*
X144298733Y-92485858D01*
X144385858Y-92398733D01*
X144454311Y-92296286D01*
X144501463Y-92182452D01*
X144525500Y-92061606D01*
X144525500Y-86872951D01*
X144545185Y-86805912D01*
X144561814Y-86785275D01*
X146012819Y-85334269D01*
X146074142Y-85300785D01*
X146143834Y-85305769D01*
X146199767Y-85347641D01*
X146224184Y-85413105D01*
X146224500Y-85421951D01*
X146224500Y-85486610D01*
X146250630Y-85651593D01*
X146251598Y-85657701D01*
X146305127Y-85822445D01*
X146383768Y-85976788D01*
X146485586Y-86116928D01*
X146608072Y-86239414D01*
X146636708Y-86260219D01*
X146691449Y-86299991D01*
X146734114Y-86355322D01*
X146740093Y-86424935D01*
X146707487Y-86486730D01*
X146691448Y-86500627D01*
X146608404Y-86560961D01*
X146608399Y-86560965D01*
X146485967Y-86683397D01*
X146384195Y-86823475D01*
X146305591Y-86977744D01*
X146252085Y-87142415D01*
X146250884Y-87149999D01*
X146250885Y-87150000D01*
X147319670Y-87150000D01*
X147299925Y-87169745D01*
X147250556Y-87255255D01*
X147225000Y-87350630D01*
X147225000Y-87449370D01*
X147250556Y-87544745D01*
X147299925Y-87630255D01*
X147319670Y-87650000D01*
X146250885Y-87650000D01*
X146252085Y-87657584D01*
X146305591Y-87822255D01*
X146384195Y-87976524D01*
X146485967Y-88116602D01*
X146593565Y-88224200D01*
X146627050Y-88285523D01*
X146622066Y-88355215D01*
X146580194Y-88411148D01*
X146570981Y-88417420D01*
X146506342Y-88457289D01*
X146382289Y-88581342D01*
X146290187Y-88730663D01*
X146290185Y-88730668D01*
X146271430Y-88787267D01*
X146235001Y-88897203D01*
X146235001Y-88897204D01*
X146235000Y-88897204D01*
X146224500Y-88999983D01*
X146224500Y-89800001D01*
X146224501Y-89800019D01*
X146235000Y-89902796D01*
X146235001Y-89902799D01*
X146290185Y-90069331D01*
X146290187Y-90069336D01*
X146311781Y-90104346D01*
X146382288Y-90218656D01*
X146506344Y-90342712D01*
X146655666Y-90434814D01*
X146822203Y-90489999D01*
X146924991Y-90500500D01*
X148275008Y-90500499D01*
X148377797Y-90489999D01*
X148544334Y-90434814D01*
X148693656Y-90342712D01*
X148817712Y-90218656D01*
X148909814Y-90069334D01*
X148964999Y-89902797D01*
X148975500Y-89800009D01*
X148975499Y-88999992D01*
X148964999Y-88897203D01*
X148909814Y-88730666D01*
X148817712Y-88581344D01*
X148693656Y-88457288D01*
X148693655Y-88457287D01*
X148629019Y-88417420D01*
X148582294Y-88365472D01*
X148571071Y-88296510D01*
X148598914Y-88232428D01*
X148606434Y-88224199D01*
X148714035Y-88116598D01*
X148815804Y-87976524D01*
X148894408Y-87822255D01*
X148947914Y-87657584D01*
X148949115Y-87650000D01*
X147880330Y-87650000D01*
X147900075Y-87630255D01*
X147949444Y-87544745D01*
X147975000Y-87449370D01*
X147975000Y-87350630D01*
X147949444Y-87255255D01*
X147900075Y-87169745D01*
X147880330Y-87150000D01*
X148949115Y-87150000D01*
X148949115Y-87149999D01*
X148947914Y-87142415D01*
X148894408Y-86977744D01*
X148815804Y-86823475D01*
X148714032Y-86683397D01*
X148591602Y-86560967D01*
X148508551Y-86500628D01*
X148465885Y-86445298D01*
X148459906Y-86375685D01*
X148492511Y-86313889D01*
X148508551Y-86299991D01*
X148563292Y-86260219D01*
X148591928Y-86239414D01*
X148714414Y-86116928D01*
X148816232Y-85976788D01*
X148894873Y-85822445D01*
X148948402Y-85657701D01*
X148975500Y-85486611D01*
X148975500Y-85313389D01*
X148948402Y-85142299D01*
X148894873Y-84977555D01*
X148816232Y-84823212D01*
X148714414Y-84683072D01*
X148591928Y-84560586D01*
X148451788Y-84458768D01*
X148297445Y-84380127D01*
X148132701Y-84326598D01*
X148132699Y-84326597D01*
X148132698Y-84326597D01*
X148001271Y-84305781D01*
X147961611Y-84299500D01*
X147346951Y-84299500D01*
X147279912Y-84279815D01*
X147234157Y-84227011D01*
X147224213Y-84157853D01*
X147253238Y-84094297D01*
X147259270Y-84087819D01*
X151685271Y-79661818D01*
X151746594Y-79628333D01*
X151772952Y-79625499D01*
X152450002Y-79625499D01*
X152450008Y-79625499D01*
X152552797Y-79614999D01*
X152719334Y-79559814D01*
X152868656Y-79467712D01*
X152992712Y-79343656D01*
X152994752Y-79340347D01*
X152996745Y-79338555D01*
X152997193Y-79337989D01*
X152997289Y-79338065D01*
X153046694Y-79293623D01*
X153115656Y-79282395D01*
X153179740Y-79310234D01*
X153205829Y-79340339D01*
X153207681Y-79343341D01*
X153207683Y-79343344D01*
X153331654Y-79467315D01*
X153480875Y-79559356D01*
X153480880Y-79559358D01*
X153647302Y-79614505D01*
X153647309Y-79614506D01*
X153750019Y-79624999D01*
X153887499Y-79624999D01*
X154387500Y-79624999D01*
X154524972Y-79624999D01*
X154524986Y-79624998D01*
X154627697Y-79614505D01*
X154794119Y-79559358D01*
X154794124Y-79559356D01*
X154943345Y-79467315D01*
X155067315Y-79343345D01*
X155159356Y-79194124D01*
X155159358Y-79194119D01*
X155214505Y-79027697D01*
X155214506Y-79027690D01*
X155224999Y-78924986D01*
X155225000Y-78924973D01*
X155225000Y-78650000D01*
X154387500Y-78650000D01*
X154387500Y-79624999D01*
X153887499Y-79624999D01*
X153887500Y-79624998D01*
X153887500Y-78524000D01*
X153907185Y-78456961D01*
X153959989Y-78411206D01*
X154011500Y-78400000D01*
X154137500Y-78400000D01*
X154137500Y-78274000D01*
X154157185Y-78206961D01*
X154209989Y-78161206D01*
X154261500Y-78150000D01*
X155224999Y-78150000D01*
X155224999Y-77875028D01*
X155224998Y-77875013D01*
X155214505Y-77772302D01*
X155159358Y-77605880D01*
X155159356Y-77605875D01*
X155067315Y-77456654D01*
X154943345Y-77332684D01*
X154794124Y-77240643D01*
X154794119Y-77240641D01*
X154627697Y-77185494D01*
X154627691Y-77185493D01*
X154616139Y-77184313D01*
X154598108Y-77176955D01*
X154578798Y-77174451D01*
X154566426Y-77164027D01*
X154551448Y-77157915D01*
X154540257Y-77141977D01*
X154525367Y-77129431D01*
X154520595Y-77113974D01*
X154511298Y-77100733D01*
X154510500Y-77081274D01*
X154504757Y-77062670D01*
X154509099Y-77047086D01*
X154508437Y-77030921D01*
X154518286Y-77014120D01*
X154523513Y-76995364D01*
X154538122Y-76980284D01*
X154543773Y-76970646D01*
X154546254Y-76968374D01*
X154552685Y-76962643D01*
X154578416Y-76945451D01*
X154631017Y-76892848D01*
X154633676Y-76890480D01*
X154645531Y-76884866D01*
X154677160Y-76865356D01*
X154769334Y-76834814D01*
X154918656Y-76742712D01*
X155042712Y-76618656D01*
X155134814Y-76469334D01*
X155189999Y-76302797D01*
X155200500Y-76200009D01*
X155200499Y-75199992D01*
X155189999Y-75097203D01*
X155134814Y-74930666D01*
X155042712Y-74781344D01*
X154918656Y-74657288D01*
X154769334Y-74565186D01*
X154602797Y-74510001D01*
X154602795Y-74510000D01*
X154500016Y-74499500D01*
X154500009Y-74499500D01*
X153835452Y-74499500D01*
X153806011Y-74490855D01*
X153776025Y-74484332D01*
X153771009Y-74480577D01*
X153768413Y-74479815D01*
X153747771Y-74463181D01*
X153595161Y-74310571D01*
X153561676Y-74249248D01*
X153566660Y-74179556D01*
X153608532Y-74123623D01*
X153673996Y-74099206D01*
X153695454Y-74099533D01*
X153700021Y-74099999D01*
X153849999Y-74099999D01*
X154350000Y-74099999D01*
X154499972Y-74099999D01*
X154499986Y-74099998D01*
X154602697Y-74089505D01*
X154769119Y-74034358D01*
X154769124Y-74034356D01*
X154918345Y-73942315D01*
X155042315Y-73818345D01*
X155134356Y-73669124D01*
X155134358Y-73669119D01*
X155189505Y-73502697D01*
X155189506Y-73502690D01*
X155199999Y-73399986D01*
X155200000Y-73399973D01*
X155200000Y-73150000D01*
X154350000Y-73150000D01*
X154350000Y-74099999D01*
X153849999Y-74099999D01*
X153850000Y-74099998D01*
X153850000Y-72650000D01*
X154350000Y-72650000D01*
X155199999Y-72650000D01*
X155199999Y-72400028D01*
X155199998Y-72400013D01*
X155189505Y-72297302D01*
X155134358Y-72130880D01*
X155134356Y-72130875D01*
X155042315Y-71981654D01*
X154918345Y-71857684D01*
X154769124Y-71765643D01*
X154769119Y-71765641D01*
X154602697Y-71710494D01*
X154602690Y-71710493D01*
X154499986Y-71700000D01*
X154350000Y-71700000D01*
X154350000Y-72650000D01*
X153850000Y-72650000D01*
X153850000Y-71700000D01*
X153700027Y-71700000D01*
X153700012Y-71700001D01*
X153597302Y-71710494D01*
X153430880Y-71765641D01*
X153430875Y-71765643D01*
X153281657Y-71857682D01*
X153188034Y-71951305D01*
X153126710Y-71984789D01*
X153057019Y-71979805D01*
X153012672Y-71951304D01*
X152918657Y-71857289D01*
X152918656Y-71857288D01*
X152769334Y-71765186D01*
X152602797Y-71710001D01*
X152602795Y-71710000D01*
X152500010Y-71699500D01*
X151699998Y-71699500D01*
X151699980Y-71699501D01*
X151597203Y-71710000D01*
X151597200Y-71710001D01*
X151430668Y-71765185D01*
X151430663Y-71765187D01*
X151281342Y-71857289D01*
X151157289Y-71981342D01*
X151157288Y-71981344D01*
X151065186Y-72130666D01*
X151010001Y-72297203D01*
X151010001Y-72297204D01*
X151010000Y-72297204D01*
X150999500Y-72399983D01*
X150999500Y-73400001D01*
X150999502Y-73400026D01*
X151002711Y-73431445D01*
X150989940Y-73500137D01*
X150942058Y-73551020D01*
X150874267Y-73567939D01*
X150855161Y-73565660D01*
X150773920Y-73549500D01*
X150773918Y-73549500D01*
X149532204Y-73549500D01*
X149507919Y-73542369D01*
X149482799Y-73539233D01*
X149471842Y-73531775D01*
X149465165Y-73529815D01*
X149452758Y-73520707D01*
X149448475Y-73517133D01*
X149391928Y-73460586D01*
X149305186Y-73397564D01*
X149301990Y-73394897D01*
X149284777Y-73369178D01*
X149265885Y-73344677D01*
X149265517Y-73340400D01*
X149263129Y-73336831D01*
X149262553Y-73305890D01*
X149259906Y-73275064D01*
X149261909Y-73271266D01*
X149261830Y-73266973D01*
X149278071Y-73240637D01*
X149292512Y-73213269D01*
X149297745Y-73208734D01*
X149298505Y-73207503D01*
X149299986Y-73206793D01*
X149308552Y-73199371D01*
X149391598Y-73139036D01*
X149514032Y-73016602D01*
X149615804Y-72876524D01*
X149694408Y-72722255D01*
X149747914Y-72557584D01*
X149749115Y-72550000D01*
X148680330Y-72550000D01*
X148700075Y-72530255D01*
X148749444Y-72444745D01*
X148775000Y-72349370D01*
X148775000Y-72250630D01*
X148749444Y-72155255D01*
X148700075Y-72069745D01*
X148680330Y-72050000D01*
X149749115Y-72050000D01*
X149749115Y-72049999D01*
X149747914Y-72042415D01*
X149694408Y-71877744D01*
X149615804Y-71723475D01*
X149514032Y-71583397D01*
X149406434Y-71475799D01*
X149372949Y-71414476D01*
X149377933Y-71344784D01*
X149419805Y-71288851D01*
X149428995Y-71282594D01*
X149493656Y-71242712D01*
X149617712Y-71118656D01*
X149709814Y-70969334D01*
X149764999Y-70802797D01*
X149775500Y-70700009D01*
X149775499Y-69899992D01*
X149775281Y-69897861D01*
X149764999Y-69797203D01*
X149764998Y-69797200D01*
X149755459Y-69768414D01*
X149709814Y-69630666D01*
X149617712Y-69481344D01*
X149493656Y-69357288D01*
X149366053Y-69278582D01*
X149344336Y-69265187D01*
X149344331Y-69265185D01*
X149315556Y-69255650D01*
X149177797Y-69210001D01*
X149177795Y-69210000D01*
X149075010Y-69199500D01*
X147724998Y-69199500D01*
X147724981Y-69199501D01*
X147622203Y-69210000D01*
X147622200Y-69210001D01*
X147455668Y-69265185D01*
X147455663Y-69265187D01*
X147306342Y-69357289D01*
X147182289Y-69481342D01*
X147090187Y-69630663D01*
X147090185Y-69630668D01*
X147076130Y-69673085D01*
X147035001Y-69797203D01*
X147035001Y-69797204D01*
X147035000Y-69797204D01*
X147024500Y-69899983D01*
X147024500Y-70700001D01*
X147024501Y-70700019D01*
X147035000Y-70802796D01*
X147035001Y-70802799D01*
X147090185Y-70969331D01*
X147090187Y-70969336D01*
X147113583Y-71007267D01*
X147182288Y-71118656D01*
X147306344Y-71242712D01*
X147370981Y-71282580D01*
X147417705Y-71334526D01*
X147428928Y-71403489D01*
X147401085Y-71467571D01*
X147393566Y-71475799D01*
X147285964Y-71583401D01*
X147184195Y-71723475D01*
X147105591Y-71877744D01*
X147052085Y-72042415D01*
X147050884Y-72049999D01*
X147050885Y-72050000D01*
X148119670Y-72050000D01*
X148099925Y-72069745D01*
X148050556Y-72155255D01*
X148025000Y-72250630D01*
X148025000Y-72349370D01*
X148050556Y-72444745D01*
X148099925Y-72530255D01*
X148119670Y-72550000D01*
X147050885Y-72550000D01*
X147052085Y-72557584D01*
X147105591Y-72722255D01*
X147184195Y-72876524D01*
X147285967Y-73016602D01*
X147408401Y-73139036D01*
X147491447Y-73199371D01*
X147534114Y-73254701D01*
X147540093Y-73324314D01*
X147507488Y-73386109D01*
X147491450Y-73400007D01*
X147408072Y-73460585D01*
X147285588Y-73583069D01*
X147285588Y-73583070D01*
X147285586Y-73583072D01*
X147248517Y-73634093D01*
X147183768Y-73723211D01*
X147105128Y-73877552D01*
X147105127Y-73877554D01*
X147105127Y-73877555D01*
X147084085Y-73942315D01*
X147051597Y-74042302D01*
X147024500Y-74213389D01*
X147024500Y-74386610D01*
X147041010Y-74490855D01*
X147051598Y-74557701D01*
X147105127Y-74722445D01*
X147183768Y-74876788D01*
X147285586Y-75016928D01*
X147408072Y-75139414D01*
X147548212Y-75241232D01*
X147702555Y-75319873D01*
X147867299Y-75373402D01*
X148038389Y-75400500D01*
X148038390Y-75400500D01*
X148761610Y-75400500D01*
X148761611Y-75400500D01*
X148932701Y-75373402D01*
X149097445Y-75319873D01*
X149251788Y-75241232D01*
X149391928Y-75139414D01*
X149444523Y-75086819D01*
X149505846Y-75053334D01*
X149532204Y-75050500D01*
X150337770Y-75050500D01*
X150404809Y-75070185D01*
X150425451Y-75086819D01*
X150963181Y-75624549D01*
X150996666Y-75685872D01*
X150999500Y-75712230D01*
X150999500Y-76200001D01*
X150999501Y-76200019D01*
X151010000Y-76302796D01*
X151010001Y-76302799D01*
X151065185Y-76469331D01*
X151065187Y-76469336D01*
X151092309Y-76513308D01*
X151157288Y-76618656D01*
X151281344Y-76742712D01*
X151430666Y-76834814D01*
X151597203Y-76889999D01*
X151699991Y-76900500D01*
X151715543Y-76900499D01*
X151736789Y-76906737D01*
X151758881Y-76908317D01*
X151769661Y-76916387D01*
X151782581Y-76920180D01*
X151797085Y-76936917D01*
X151814814Y-76950189D01*
X151819519Y-76962804D01*
X151828339Y-76972982D01*
X151831492Y-76994904D01*
X151839231Y-77015653D01*
X151836368Y-77028809D01*
X151838286Y-77042139D01*
X151829086Y-77062285D01*
X151824379Y-77083926D01*
X151811113Y-77101645D01*
X151809264Y-77105697D01*
X151803228Y-77112180D01*
X151777227Y-77138181D01*
X151715904Y-77171666D01*
X151689553Y-77174500D01*
X151675001Y-77174500D01*
X151674981Y-77174501D01*
X151572202Y-77185001D01*
X151572200Y-77185001D01*
X151405668Y-77240185D01*
X151405663Y-77240187D01*
X151256342Y-77332289D01*
X151132289Y-77456342D01*
X151040187Y-77605663D01*
X151040185Y-77605668D01*
X151037713Y-77613128D01*
X150985001Y-77772203D01*
X150985001Y-77772204D01*
X150985000Y-77772204D01*
X150974500Y-77874983D01*
X150974500Y-78552046D01*
X150954815Y-78619085D01*
X150938181Y-78639727D01*
X149464135Y-80113772D01*
X149402812Y-80147257D01*
X149376363Y-80145365D01*
X149376363Y-80150000D01*
X148487500Y-80150000D01*
X148487500Y-81039047D01*
X148467815Y-81106086D01*
X148451181Y-81126728D01*
X147207054Y-82370854D01*
X147145731Y-82404339D01*
X147076039Y-82399355D01*
X147020106Y-82357483D01*
X146997756Y-82307364D01*
X146969739Y-82166510D01*
X146969736Y-82166501D01*
X146922439Y-82052314D01*
X146913000Y-82004862D01*
X146913000Y-81071248D01*
X146932685Y-81004209D01*
X146948651Y-80984239D01*
X146959157Y-80973570D01*
X146968656Y-80967712D01*
X147092712Y-80843656D01*
X147102114Y-80828411D01*
X147111944Y-80818431D01*
X147130722Y-80807990D01*
X147146694Y-80793623D01*
X147160650Y-80791350D01*
X147173010Y-80784479D01*
X147194450Y-80785847D01*
X147215656Y-80782395D01*
X147228625Y-80788029D01*
X147242737Y-80788930D01*
X147260034Y-80801673D01*
X147279740Y-80810234D01*
X147294019Y-80826712D01*
X147298989Y-80830373D01*
X147300403Y-80834078D01*
X147305829Y-80840339D01*
X147307681Y-80843341D01*
X147307683Y-80843344D01*
X147431654Y-80967315D01*
X147580875Y-81059356D01*
X147580880Y-81059358D01*
X147747302Y-81114505D01*
X147747309Y-81114506D01*
X147850019Y-81124999D01*
X147987499Y-81124999D01*
X147987500Y-81124998D01*
X147987500Y-79650000D01*
X148487500Y-79650000D01*
X149324999Y-79650000D01*
X149324999Y-79375028D01*
X149324998Y-79375013D01*
X149314505Y-79272302D01*
X149259358Y-79105880D01*
X149259356Y-79105875D01*
X149167315Y-78956654D01*
X149043345Y-78832684D01*
X148894124Y-78740643D01*
X148894119Y-78740641D01*
X148727697Y-78685494D01*
X148727690Y-78685493D01*
X148624986Y-78675000D01*
X148487500Y-78675000D01*
X148487500Y-79650000D01*
X147987500Y-79650000D01*
X147987500Y-78675000D01*
X147850027Y-78675000D01*
X147850012Y-78675001D01*
X147747302Y-78685494D01*
X147580880Y-78740641D01*
X147580875Y-78740643D01*
X147431654Y-78832684D01*
X147307683Y-78956655D01*
X147307679Y-78956660D01*
X147305826Y-78959665D01*
X147304018Y-78961290D01*
X147303202Y-78962323D01*
X147303025Y-78962183D01*
X147253874Y-79006385D01*
X147184911Y-79017601D01*
X147120831Y-78989752D01*
X147094753Y-78959653D01*
X147094737Y-78959628D01*
X147092712Y-78956344D01*
X146968656Y-78832288D01*
X146819334Y-78740186D01*
X146652797Y-78685001D01*
X146652795Y-78685000D01*
X146550016Y-78674500D01*
X146550009Y-78674500D01*
X146024785Y-78674500D01*
X146006640Y-78669172D01*
X145987734Y-78668835D01*
X145959515Y-78655334D01*
X145957746Y-78654815D01*
X145955896Y-78653603D01*
X145927928Y-78634916D01*
X145927926Y-78634915D01*
X145897995Y-78614916D01*
X145897988Y-78614912D01*
X145761417Y-78558343D01*
X145761407Y-78558340D01*
X145616420Y-78529500D01*
X145616418Y-78529500D01*
X143626663Y-78529500D01*
X143559624Y-78509815D01*
X143525088Y-78476623D01*
X143500045Y-78440858D01*
X143339141Y-78279954D01*
X143152734Y-78149432D01*
X143152728Y-78149429D01*
X143094725Y-78122382D01*
X143042285Y-78076210D01*
X143023133Y-78009017D01*
X143043348Y-77942135D01*
X143094725Y-77897618D01*
X143152734Y-77870568D01*
X143339139Y-77740047D01*
X143500047Y-77579139D01*
X143630568Y-77392734D01*
X143726739Y-77186496D01*
X143785635Y-76966692D01*
X143800500Y-76796784D01*
X143800500Y-76683216D01*
X143785635Y-76513308D01*
X143729229Y-76302795D01*
X143726741Y-76293511D01*
X143726738Y-76293503D01*
X143630568Y-76087266D01*
X143500047Y-75900861D01*
X143500045Y-75900858D01*
X143339141Y-75739954D01*
X143152734Y-75609432D01*
X143152732Y-75609431D01*
X143100779Y-75585205D01*
X143048340Y-75539032D01*
X143029188Y-75471839D01*
X143049404Y-75404958D01*
X143094732Y-75363464D01*
X143159500Y-75328844D01*
X143159521Y-75328832D01*
X143290530Y-75241295D01*
X143290536Y-75241291D01*
X143367064Y-75178485D01*
X143478485Y-75067064D01*
X143541291Y-74990536D01*
X143541295Y-74990530D01*
X143628832Y-74859521D01*
X143628844Y-74859501D01*
X143675509Y-74772198D01*
X143735814Y-74626612D01*
X143764556Y-74531860D01*
X143764559Y-74531849D01*
X143780839Y-74450000D01*
X141333012Y-74450000D01*
X141365925Y-74392993D01*
X141400000Y-74265826D01*
X141400000Y-74134174D01*
X141365925Y-74007007D01*
X141333012Y-73950000D01*
X143780839Y-73950000D01*
X143780839Y-73949999D01*
X143764559Y-73868150D01*
X143764556Y-73868139D01*
X143735814Y-73773387D01*
X143675509Y-73627801D01*
X143628844Y-73540498D01*
X143628832Y-73540478D01*
X143541295Y-73409469D01*
X143541291Y-73409463D01*
X143478485Y-73332935D01*
X143367064Y-73221514D01*
X143290536Y-73158708D01*
X143290530Y-73158704D01*
X143159521Y-73071167D01*
X143159501Y-73071155D01*
X143094730Y-73036534D01*
X143044886Y-72987571D01*
X143029426Y-72919434D01*
X143053258Y-72853754D01*
X143100777Y-72814795D01*
X143152734Y-72790568D01*
X143339139Y-72660047D01*
X143500047Y-72499139D01*
X143630568Y-72312734D01*
X143726739Y-72106496D01*
X143785635Y-71886692D01*
X143800500Y-71716784D01*
X143800500Y-71603216D01*
X143785635Y-71433308D01*
X143731006Y-71229428D01*
X143726741Y-71213511D01*
X143726738Y-71213503D01*
X143630568Y-71007266D01*
X143500047Y-70820861D01*
X143500045Y-70820858D01*
X143339141Y-70659954D01*
X143152734Y-70529432D01*
X143152728Y-70529429D01*
X143125038Y-70516517D01*
X143094724Y-70502381D01*
X143042285Y-70456210D01*
X143023133Y-70389017D01*
X143043348Y-70322135D01*
X143094725Y-70277618D01*
X143152734Y-70250568D01*
X143339139Y-70120047D01*
X143500047Y-69959139D01*
X143630568Y-69772734D01*
X143726739Y-69566496D01*
X143785635Y-69346692D01*
X143800500Y-69176784D01*
X143800500Y-69063216D01*
X143785635Y-68893308D01*
X143726739Y-68673504D01*
X143630568Y-68467266D01*
X143500047Y-68280861D01*
X143500045Y-68280858D01*
X143339141Y-68119954D01*
X143152734Y-67989432D01*
X143152732Y-67989431D01*
X142946497Y-67893261D01*
X142946488Y-67893258D01*
X142726697Y-67834366D01*
X142726687Y-67834364D01*
X142556785Y-67819500D01*
X142556784Y-67819500D01*
X141002352Y-67819500D01*
X140797648Y-67819500D01*
X140797644Y-67819500D01*
X140745697Y-67827728D01*
X140745695Y-67827728D01*
X140741410Y-67828406D01*
X140673308Y-67834365D01*
X140629245Y-67846170D01*
X140622841Y-67847185D01*
X140622824Y-67847189D01*
X140595463Y-67851523D01*
X140595459Y-67851524D01*
X140533627Y-67871615D01*
X140527404Y-67873459D01*
X140453504Y-67893261D01*
X140453503Y-67893261D01*
X140429338Y-67904529D01*
X140429337Y-67904528D01*
X140422456Y-67907736D01*
X140400781Y-67914780D01*
X140329886Y-67950901D01*
X140327900Y-67951828D01*
X140327882Y-67951838D01*
X140247262Y-67989433D01*
X140235655Y-67997559D01*
X140235656Y-67997560D01*
X140228549Y-68002535D01*
X140218390Y-68007713D01*
X140144870Y-68061126D01*
X140143939Y-68061779D01*
X140060859Y-68119954D01*
X139899954Y-68280859D01*
X139841781Y-68363934D01*
X139841782Y-68363935D01*
X139841132Y-68364863D01*
X139787713Y-68438390D01*
X139782535Y-68448550D01*
X139777560Y-68455656D01*
X139777558Y-68455656D01*
X139769433Y-68467262D01*
X139731838Y-68547882D01*
X139730920Y-68549849D01*
X139694780Y-68620781D01*
X139687735Y-68642458D01*
X139684532Y-68649329D01*
X139684529Y-68649338D01*
X139673261Y-68673503D01*
X139673261Y-68673504D01*
X139653459Y-68747404D01*
X139653458Y-68747403D01*
X139652614Y-68750551D01*
X139631523Y-68815466D01*
X139626175Y-68849224D01*
X139624492Y-68855507D01*
X139624492Y-68855511D01*
X139614366Y-68893304D01*
X139614364Y-68893313D01*
X139608783Y-68957106D01*
X139607942Y-68963954D01*
X139607941Y-68964301D01*
X139607837Y-68965007D01*
X139599500Y-69017648D01*
X139599500Y-69222352D01*
X139608406Y-69278582D01*
X139614365Y-69346692D01*
X139626171Y-69390756D01*
X139627188Y-69397175D01*
X139627190Y-69397181D01*
X139631521Y-69424525D01*
X139631522Y-69424530D01*
X139631523Y-69424534D01*
X139636255Y-69439098D01*
X139651617Y-69486378D01*
X139653460Y-69492600D01*
X139673260Y-69566494D01*
X139684529Y-69590662D01*
X139685231Y-69592167D01*
X139687733Y-69597532D01*
X139694780Y-69619219D01*
X139730930Y-69690169D01*
X139731844Y-69692128D01*
X139769432Y-69772734D01*
X139777562Y-69784346D01*
X139782535Y-69791448D01*
X139787713Y-69801610D01*
X139841164Y-69875180D01*
X139841793Y-69876078D01*
X139899953Y-69959140D01*
X140060858Y-70120045D01*
X140060861Y-70120047D01*
X140144800Y-70178821D01*
X140218390Y-70232287D01*
X140228547Y-70237462D01*
X140235648Y-70242434D01*
X140235652Y-70242436D01*
X140247266Y-70250568D01*
X140247270Y-70250570D01*
X140305272Y-70277617D01*
X140315927Y-70286999D01*
X140329131Y-70292224D01*
X140341629Y-70309629D01*
X140357712Y-70323789D01*
X140361604Y-70337444D01*
X140369886Y-70348977D01*
X140370990Y-70370375D01*
X140376864Y-70390982D01*
X140372755Y-70404573D01*
X140373488Y-70418754D01*
X140362848Y-70437352D01*
X140356649Y-70457864D01*
X140345167Y-70468259D01*
X140338794Y-70479401D01*
X140314369Y-70496145D01*
X140310126Y-70499988D01*
X140307711Y-70501244D01*
X140247266Y-70529432D01*
X140229002Y-70542219D01*
X140221792Y-70545973D01*
X140221591Y-70546012D01*
X140220847Y-70546460D01*
X140218397Y-70547708D01*
X140218394Y-70547710D01*
X140145696Y-70600526D01*
X140143939Y-70601779D01*
X140060859Y-70659954D01*
X139899954Y-70820859D01*
X139841781Y-70903934D01*
X139841782Y-70903935D01*
X139841132Y-70904863D01*
X139787713Y-70978390D01*
X139782535Y-70988550D01*
X139777560Y-70995656D01*
X139777558Y-70995656D01*
X139769433Y-71007262D01*
X139731838Y-71087882D01*
X139730920Y-71089849D01*
X139694780Y-71160781D01*
X139687735Y-71182458D01*
X139684532Y-71189329D01*
X139684529Y-71189338D01*
X139673261Y-71213503D01*
X139673261Y-71213504D01*
X139653459Y-71287404D01*
X139653458Y-71287403D01*
X139652614Y-71290551D01*
X139631523Y-71355466D01*
X139626175Y-71389224D01*
X139624492Y-71395507D01*
X139624492Y-71395511D01*
X139614366Y-71433304D01*
X139614364Y-71433313D01*
X139608783Y-71497106D01*
X139607728Y-71505697D01*
X139599500Y-71557643D01*
X139599500Y-71557648D01*
X139599500Y-71762352D01*
X139608406Y-71818582D01*
X139614365Y-71886692D01*
X139626171Y-71930756D01*
X139627188Y-71937175D01*
X139627190Y-71937181D01*
X139631521Y-71964525D01*
X139631522Y-71964530D01*
X139651617Y-72026378D01*
X139653460Y-72032600D01*
X139673260Y-72106494D01*
X139684529Y-72130662D01*
X139684631Y-72130880D01*
X139687733Y-72137532D01*
X139694780Y-72159219D01*
X139730930Y-72230169D01*
X139731844Y-72232128D01*
X139769432Y-72312734D01*
X139777562Y-72324346D01*
X139782535Y-72331448D01*
X139787713Y-72341610D01*
X139841164Y-72415180D01*
X139841793Y-72416078D01*
X139899953Y-72499140D01*
X140060858Y-72660045D01*
X140127379Y-72706623D01*
X140171004Y-72761199D01*
X140178198Y-72830698D01*
X140146676Y-72893052D01*
X140086922Y-72928346D01*
X140066976Y-72933436D01*
X140066962Y-72933441D01*
X140010415Y-72956863D01*
X140770589Y-73717037D01*
X140707007Y-73734075D01*
X140592993Y-73799901D01*
X140499901Y-73892993D01*
X140434075Y-74007007D01*
X140400000Y-74134174D01*
X140400000Y-74265826D01*
X140434075Y-74392993D01*
X140499901Y-74507007D01*
X140592993Y-74600099D01*
X140707007Y-74665925D01*
X140770588Y-74682961D01*
X140010414Y-75443135D01*
X140066960Y-75466557D01*
X140066965Y-75466559D01*
X140095159Y-75476505D01*
X140151832Y-75517370D01*
X140177415Y-75582388D01*
X140163786Y-75650915D01*
X140125035Y-75695016D01*
X140060859Y-75739954D01*
X139899954Y-75900859D01*
X139841781Y-75983934D01*
X139841782Y-75983935D01*
X139841132Y-75984863D01*
X139787713Y-76058390D01*
X139782535Y-76068550D01*
X139777560Y-76075656D01*
X139777558Y-76075656D01*
X139769433Y-76087262D01*
X139731838Y-76167882D01*
X139730920Y-76169849D01*
X139694780Y-76240781D01*
X139687735Y-76262458D01*
X139684532Y-76269329D01*
X139684529Y-76269338D01*
X139673261Y-76293503D01*
X139673261Y-76293504D01*
X139653459Y-76367404D01*
X139653458Y-76367403D01*
X139652614Y-76370550D01*
X139631523Y-76435466D01*
X139626174Y-76469233D01*
X139624494Y-76475504D01*
X139624492Y-76475512D01*
X139614364Y-76513310D01*
X139608784Y-76577101D01*
X139607729Y-76585692D01*
X139599500Y-76637648D01*
X139599500Y-76842352D01*
X139608406Y-76898582D01*
X139614365Y-76966692D01*
X139626171Y-77010756D01*
X139627188Y-77017175D01*
X139627190Y-77017181D01*
X139631521Y-77044525D01*
X139631522Y-77044530D01*
X139631523Y-77044534D01*
X139646064Y-77089288D01*
X139651617Y-77106378D01*
X139653460Y-77112600D01*
X139673260Y-77186494D01*
X139684529Y-77210662D01*
X139687733Y-77217532D01*
X139694780Y-77239219D01*
X139730930Y-77310169D01*
X139731844Y-77312128D01*
X139769432Y-77392734D01*
X139777562Y-77404346D01*
X139782535Y-77411448D01*
X139787713Y-77421610D01*
X139841164Y-77495180D01*
X139841793Y-77496078D01*
X139899953Y-77579140D01*
X140060858Y-77740045D01*
X140106786Y-77772204D01*
X140144800Y-77798821D01*
X140218390Y-77852287D01*
X140228547Y-77857462D01*
X140235648Y-77862434D01*
X140235652Y-77862436D01*
X140247266Y-77870568D01*
X140247270Y-77870570D01*
X140305272Y-77897617D01*
X140315927Y-77906999D01*
X140329131Y-77912224D01*
X140341629Y-77929629D01*
X140357712Y-77943789D01*
X140361604Y-77957444D01*
X140369886Y-77968977D01*
X140370990Y-77990375D01*
X140376864Y-78010982D01*
X140372755Y-78024573D01*
X140373488Y-78038754D01*
X140362848Y-78057352D01*
X140356649Y-78077864D01*
X140345167Y-78088259D01*
X140338794Y-78099401D01*
X140314369Y-78116145D01*
X140310126Y-78119988D01*
X140307711Y-78121244D01*
X140247266Y-78149432D01*
X140229002Y-78162219D01*
X140221792Y-78165973D01*
X140221591Y-78166012D01*
X140220847Y-78166460D01*
X140218397Y-78167708D01*
X140218394Y-78167710D01*
X140145696Y-78220526D01*
X140143939Y-78221779D01*
X140060859Y-78279954D01*
X139899955Y-78440858D01*
X139874911Y-78476625D01*
X139869779Y-78480726D01*
X139867050Y-78486703D01*
X139842824Y-78502271D01*
X139820333Y-78520249D01*
X139812430Y-78521804D01*
X139808272Y-78524477D01*
X139773337Y-78529500D01*
X139541872Y-78529500D01*
X139517681Y-78527117D01*
X139430699Y-78509815D01*
X139378844Y-78499500D01*
X139378842Y-78499500D01*
X139221158Y-78499500D01*
X139221155Y-78499500D01*
X139066510Y-78530261D01*
X139066498Y-78530264D01*
X138920827Y-78590602D01*
X138920814Y-78590609D01*
X138789711Y-78678210D01*
X138789707Y-78678213D01*
X138678213Y-78789707D01*
X138678210Y-78789711D01*
X138590609Y-78920814D01*
X138590602Y-78920827D01*
X138530264Y-79066498D01*
X138530261Y-79066510D01*
X138499500Y-79221153D01*
X138499500Y-79378846D01*
X138530261Y-79533489D01*
X138530264Y-79533501D01*
X138590602Y-79679172D01*
X138590609Y-79679185D01*
X138678210Y-79810288D01*
X138678213Y-79810292D01*
X138789707Y-79921786D01*
X138789711Y-79921789D01*
X138920814Y-80009390D01*
X138920827Y-80009397D01*
X139066498Y-80069735D01*
X139066503Y-80069737D01*
X139176561Y-80091629D01*
X139221153Y-80100499D01*
X139221156Y-80100500D01*
X139221158Y-80100500D01*
X139378844Y-80100500D01*
X139378845Y-80100499D01*
X139533497Y-80069737D01*
X139598317Y-80042888D01*
X139605437Y-80039939D01*
X139613613Y-80038312D01*
X139617954Y-80035523D01*
X139652889Y-80030500D01*
X139773337Y-80030500D01*
X139840376Y-80050185D01*
X139874912Y-80083377D01*
X139899954Y-80119141D01*
X140060858Y-80280045D01*
X140060861Y-80280047D01*
X140144800Y-80338821D01*
X140218390Y-80392287D01*
X140228547Y-80397462D01*
X140235648Y-80402434D01*
X140235652Y-80402436D01*
X140247266Y-80410568D01*
X140247270Y-80410570D01*
X140305272Y-80437617D01*
X140315927Y-80446999D01*
X140329131Y-80452224D01*
X140341629Y-80469629D01*
X140357712Y-80483789D01*
X140361604Y-80497444D01*
X140369886Y-80508977D01*
X140370990Y-80530375D01*
X140376864Y-80550982D01*
X140372755Y-80564573D01*
X140373488Y-80578754D01*
X140362848Y-80597352D01*
X140356649Y-80617864D01*
X140345167Y-80628259D01*
X140338794Y-80639401D01*
X140314369Y-80656145D01*
X140310126Y-80659988D01*
X140307711Y-80661244D01*
X140247266Y-80689432D01*
X140229002Y-80702219D01*
X140221792Y-80705973D01*
X140221591Y-80706012D01*
X140220847Y-80706460D01*
X140218397Y-80707708D01*
X140218394Y-80707710D01*
X140145696Y-80760526D01*
X140143939Y-80761779D01*
X140060859Y-80819954D01*
X139899954Y-80980859D01*
X139841781Y-81063934D01*
X139841782Y-81063935D01*
X139841132Y-81064863D01*
X139787713Y-81138390D01*
X139782535Y-81148550D01*
X139777560Y-81155656D01*
X139777558Y-81155656D01*
X139769433Y-81167262D01*
X139731838Y-81247882D01*
X139730920Y-81249849D01*
X139694780Y-81320781D01*
X139687735Y-81342458D01*
X139684532Y-81349329D01*
X139684529Y-81349338D01*
X139673261Y-81373503D01*
X139673261Y-81373504D01*
X139653459Y-81447404D01*
X139653458Y-81447403D01*
X139652614Y-81450551D01*
X139631523Y-81515466D01*
X139626175Y-81549224D01*
X139624492Y-81555507D01*
X139624492Y-81555511D01*
X139614366Y-81593304D01*
X139614364Y-81593313D01*
X139608783Y-81657106D01*
X139607728Y-81665697D01*
X139599500Y-81717643D01*
X139599500Y-81717648D01*
X139599500Y-81922352D01*
X139608406Y-81978582D01*
X139614365Y-82046692D01*
X139626171Y-82090756D01*
X139627188Y-82097175D01*
X139627190Y-82097181D01*
X139631521Y-82124525D01*
X139631522Y-82124530D01*
X139651617Y-82186378D01*
X139653460Y-82192600D01*
X139673260Y-82266494D01*
X139684529Y-82290662D01*
X139687733Y-82297532D01*
X139694780Y-82319219D01*
X139730930Y-82390169D01*
X139731844Y-82392128D01*
X139769432Y-82472734D01*
X139777562Y-82484346D01*
X139782535Y-82491448D01*
X139787713Y-82501610D01*
X139841164Y-82575180D01*
X139841793Y-82576078D01*
X139899953Y-82659140D01*
X140060858Y-82820045D01*
X140060861Y-82820047D01*
X140144800Y-82878821D01*
X140218390Y-82932287D01*
X140228547Y-82937462D01*
X140235648Y-82942434D01*
X140235652Y-82942436D01*
X140247266Y-82950568D01*
X140247270Y-82950570D01*
X140305272Y-82977617D01*
X140315927Y-82986999D01*
X140329131Y-82992224D01*
X140341629Y-83009629D01*
X140357712Y-83023789D01*
X140361604Y-83037444D01*
X140369886Y-83048977D01*
X140370990Y-83070375D01*
X140376864Y-83090982D01*
X140372755Y-83104573D01*
X140373488Y-83118754D01*
X140362848Y-83137352D01*
X140356649Y-83157864D01*
X140345167Y-83168259D01*
X140338794Y-83179401D01*
X140314369Y-83196145D01*
X140310126Y-83199988D01*
X140307711Y-83201244D01*
X140247266Y-83229432D01*
X140229002Y-83242219D01*
X140221792Y-83245973D01*
X140221591Y-83246012D01*
X140220847Y-83246460D01*
X140218397Y-83247708D01*
X140218394Y-83247710D01*
X140145696Y-83300526D01*
X140143939Y-83301779D01*
X140060859Y-83359954D01*
X139899954Y-83520859D01*
X139841781Y-83603934D01*
X139841782Y-83603935D01*
X139841132Y-83604863D01*
X139787713Y-83678390D01*
X139782535Y-83688550D01*
X139777560Y-83695656D01*
X139777558Y-83695656D01*
X139769433Y-83707262D01*
X139731838Y-83787882D01*
X139730920Y-83789849D01*
X139694780Y-83860781D01*
X139687735Y-83882458D01*
X139684532Y-83889329D01*
X139684529Y-83889338D01*
X139673261Y-83913503D01*
X139673261Y-83913504D01*
X139653459Y-83987404D01*
X139653458Y-83987403D01*
X139652614Y-83990551D01*
X139631523Y-84055466D01*
X139626175Y-84089224D01*
X139624492Y-84095507D01*
X139624492Y-84095511D01*
X139614366Y-84133304D01*
X139614364Y-84133313D01*
X139608783Y-84197106D01*
X139607728Y-84205697D01*
X139599500Y-84257643D01*
X139599500Y-84257648D01*
X139599500Y-84462352D01*
X139608406Y-84518582D01*
X139614365Y-84586692D01*
X139626171Y-84630756D01*
X139627188Y-84637175D01*
X139627190Y-84637181D01*
X139631521Y-84664525D01*
X139631522Y-84664530D01*
X139651617Y-84726378D01*
X139653460Y-84732600D01*
X139673260Y-84806494D01*
X139684529Y-84830662D01*
X139687733Y-84837532D01*
X139694780Y-84859219D01*
X139730930Y-84930169D01*
X139731844Y-84932128D01*
X139769432Y-85012734D01*
X139777562Y-85024346D01*
X139782535Y-85031448D01*
X139787713Y-85041610D01*
X139841164Y-85115180D01*
X139841793Y-85116078D01*
X139899953Y-85199140D01*
X140060857Y-85360044D01*
X140060860Y-85360046D01*
X140060861Y-85360047D01*
X140126843Y-85406248D01*
X140170469Y-85460824D01*
X140177663Y-85530322D01*
X140146141Y-85592677D01*
X140086391Y-85627970D01*
X140066780Y-85632975D01*
X140066766Y-85632980D01*
X139993280Y-85663419D01*
X139993252Y-85663431D01*
X139944451Y-85686779D01*
X139944446Y-85686782D01*
X139829268Y-85773005D01*
X139829256Y-85773015D01*
X139773019Y-85829252D01*
X139736843Y-85869524D01*
X139736837Y-85869532D01*
X139663426Y-85993263D01*
X139632978Y-86066774D01*
X139632970Y-86066795D01*
X139614976Y-86117800D01*
X139594500Y-86260219D01*
X139594500Y-87539784D01*
X139597395Y-87593814D01*
X139597396Y-87593818D01*
X139632976Y-87733221D01*
X139632980Y-87733233D01*
X139663419Y-87806719D01*
X139663431Y-87806747D01*
X139686779Y-87855548D01*
X139686782Y-87855553D01*
X139715992Y-87894572D01*
X139773006Y-87970733D01*
X139773010Y-87970737D01*
X139773015Y-87970743D01*
X139829252Y-88026980D01*
X139829261Y-88026988D01*
X139829267Y-88026994D01*
X139869524Y-88063156D01*
X139869532Y-88063162D01*
X139993263Y-88136573D01*
X139993262Y-88136573D01*
X140000329Y-88139500D01*
X140066774Y-88167022D01*
X140079898Y-88171652D01*
X140094660Y-88176860D01*
X140151332Y-88217726D01*
X140176913Y-88282745D01*
X140163281Y-88351272D01*
X140124531Y-88395370D01*
X140060858Y-88439955D01*
X139899954Y-88600859D01*
X139841781Y-88683934D01*
X139841782Y-88683935D01*
X139841132Y-88684863D01*
X139787713Y-88758390D01*
X139782535Y-88768550D01*
X139777560Y-88775656D01*
X139777558Y-88775656D01*
X139769433Y-88787262D01*
X139731838Y-88867882D01*
X139730920Y-88869849D01*
X139694780Y-88940781D01*
X139687735Y-88962458D01*
X139684532Y-88969329D01*
X139684529Y-88969338D01*
X139673261Y-88993503D01*
X139673261Y-88993504D01*
X139653459Y-89067404D01*
X139653458Y-89067403D01*
X139652614Y-89070551D01*
X139631523Y-89135466D01*
X139626175Y-89169224D01*
X139624492Y-89175507D01*
X139624492Y-89175511D01*
X139614366Y-89213304D01*
X139614364Y-89213313D01*
X139608783Y-89277106D01*
X139607728Y-89285697D01*
X139599500Y-89337643D01*
X139599500Y-89337648D01*
X139599500Y-89542352D01*
X139608406Y-89598582D01*
X139614365Y-89666692D01*
X139626171Y-89710756D01*
X139627188Y-89717175D01*
X139627190Y-89717181D01*
X139631521Y-89744525D01*
X139631522Y-89744530D01*
X139651617Y-89806378D01*
X139653460Y-89812600D01*
X139673260Y-89886494D01*
X139684529Y-89910662D01*
X139687733Y-89917532D01*
X139694780Y-89939219D01*
X139730930Y-90010169D01*
X139731844Y-90012128D01*
X139769432Y-90092734D01*
X139777562Y-90104346D01*
X139782535Y-90111448D01*
X139787713Y-90121610D01*
X139841164Y-90195180D01*
X139841793Y-90196078D01*
X139899953Y-90279140D01*
X140060858Y-90440045D01*
X140132200Y-90489999D01*
X140144800Y-90498821D01*
X140218390Y-90552287D01*
X140228547Y-90557462D01*
X140235648Y-90562434D01*
X140235652Y-90562436D01*
X140247266Y-90570568D01*
X140247270Y-90570570D01*
X140305272Y-90597617D01*
X140315927Y-90606999D01*
X140329131Y-90612224D01*
X140341629Y-90629629D01*
X140357712Y-90643789D01*
X140361604Y-90657444D01*
X140369886Y-90668977D01*
X140370990Y-90690375D01*
X140376864Y-90710982D01*
X140372755Y-90724573D01*
X140373488Y-90738754D01*
X140362848Y-90757352D01*
X140356649Y-90777864D01*
X140345167Y-90788259D01*
X140338794Y-90799401D01*
X140314369Y-90816145D01*
X140310126Y-90819988D01*
X140307711Y-90821244D01*
X140247266Y-90849432D01*
X140229002Y-90862219D01*
X140221792Y-90865973D01*
X140221591Y-90866012D01*
X140220847Y-90866460D01*
X140218397Y-90867708D01*
X140218394Y-90867710D01*
X140145696Y-90920526D01*
X140143939Y-90921779D01*
X140060859Y-90979954D01*
X139899954Y-91140859D01*
X139841781Y-91223934D01*
X139841782Y-91223935D01*
X139841132Y-91224863D01*
X139787713Y-91298390D01*
X139782535Y-91308550D01*
X139777560Y-91315656D01*
X139777558Y-91315656D01*
X139769433Y-91327262D01*
X139731838Y-91407882D01*
X139730920Y-91409849D01*
X139694780Y-91480781D01*
X139687735Y-91502458D01*
X139684532Y-91509329D01*
X139684529Y-91509338D01*
X139673261Y-91533503D01*
X139673261Y-91533504D01*
X139653459Y-91607404D01*
X139653458Y-91607403D01*
X139652614Y-91610551D01*
X139631523Y-91675466D01*
X139626175Y-91709224D01*
X139624492Y-91715507D01*
X139624492Y-91715511D01*
X139614366Y-91753304D01*
X139614364Y-91753313D01*
X139608783Y-91817106D01*
X139607728Y-91825697D01*
X139599500Y-91877643D01*
X139599500Y-91877648D01*
X139599500Y-92082352D01*
X139608406Y-92138582D01*
X139614365Y-92206692D01*
X139626171Y-92250756D01*
X139627188Y-92257175D01*
X139627190Y-92257181D01*
X139631521Y-92284525D01*
X139631522Y-92284530D01*
X139631523Y-92284534D01*
X139649347Y-92339391D01*
X139651617Y-92346378D01*
X139653460Y-92352600D01*
X139673260Y-92426494D01*
X139684529Y-92450662D01*
X139687733Y-92457532D01*
X139694780Y-92479219D01*
X139730930Y-92550169D01*
X139731844Y-92552128D01*
X139769432Y-92632734D01*
X139777562Y-92644346D01*
X139782535Y-92651448D01*
X139787713Y-92661610D01*
X139841164Y-92735180D01*
X139841793Y-92736078D01*
X139899953Y-92819140D01*
X140060858Y-92980045D01*
X140060861Y-92980047D01*
X140144800Y-93038821D01*
X140218390Y-93092287D01*
X140228547Y-93097462D01*
X140235648Y-93102434D01*
X140235652Y-93102436D01*
X140247266Y-93110568D01*
X140247270Y-93110570D01*
X140305272Y-93137617D01*
X140315927Y-93146999D01*
X140329131Y-93152224D01*
X140341629Y-93169629D01*
X140357712Y-93183789D01*
X140361604Y-93197444D01*
X140369886Y-93208977D01*
X140370990Y-93230375D01*
X140376864Y-93250982D01*
X140372755Y-93264573D01*
X140373488Y-93278754D01*
X140362848Y-93297352D01*
X140356649Y-93317864D01*
X140345167Y-93328259D01*
X140338794Y-93339401D01*
X140314369Y-93356145D01*
X140310126Y-93359988D01*
X140307711Y-93361244D01*
X140247266Y-93389432D01*
X140229002Y-93402219D01*
X140221792Y-93405973D01*
X140221591Y-93406012D01*
X140220847Y-93406460D01*
X140218397Y-93407708D01*
X140218394Y-93407710D01*
X140145696Y-93460526D01*
X140143939Y-93461779D01*
X140060859Y-93519954D01*
X139899954Y-93680859D01*
X139841781Y-93763934D01*
X139841782Y-93763935D01*
X139841132Y-93764863D01*
X139787713Y-93838390D01*
X139782535Y-93848550D01*
X139777560Y-93855656D01*
X139777558Y-93855656D01*
X139769433Y-93867262D01*
X139731838Y-93947882D01*
X139730920Y-93949849D01*
X139694780Y-94020781D01*
X139687735Y-94042458D01*
X139684532Y-94049329D01*
X139684529Y-94049338D01*
X139673261Y-94073503D01*
X139673261Y-94073504D01*
X139653459Y-94147404D01*
X139653458Y-94147403D01*
X139652614Y-94150551D01*
X139631523Y-94215466D01*
X139626175Y-94249224D01*
X139624492Y-94255507D01*
X139624492Y-94255511D01*
X139614366Y-94293304D01*
X139614364Y-94293313D01*
X139608783Y-94357106D01*
X139607728Y-94365697D01*
X139599500Y-94417643D01*
X139599500Y-94417648D01*
X139599500Y-94622352D01*
X139608406Y-94678582D01*
X139614365Y-94746692D01*
X139626171Y-94790756D01*
X139627188Y-94797175D01*
X139627190Y-94797181D01*
X139631521Y-94824525D01*
X139631522Y-94824530D01*
X139651617Y-94886378D01*
X139653460Y-94892600D01*
X139673260Y-94966494D01*
X139684529Y-94990662D01*
X139687733Y-94997532D01*
X139694780Y-95019219D01*
X139730930Y-95090169D01*
X139731844Y-95092128D01*
X139769432Y-95172734D01*
X139777562Y-95184346D01*
X139782535Y-95191448D01*
X139787713Y-95201610D01*
X139841164Y-95275180D01*
X139841793Y-95276078D01*
X139899953Y-95359140D01*
X140060858Y-95520045D01*
X140060861Y-95520047D01*
X140144800Y-95578821D01*
X140218390Y-95632287D01*
X140228547Y-95637462D01*
X140235648Y-95642434D01*
X140235652Y-95642436D01*
X140247266Y-95650568D01*
X140247270Y-95650570D01*
X140305272Y-95677617D01*
X140315927Y-95686999D01*
X140329131Y-95692224D01*
X140341629Y-95709629D01*
X140357712Y-95723789D01*
X140361604Y-95737444D01*
X140369886Y-95748977D01*
X140370990Y-95770375D01*
X140376864Y-95790982D01*
X140372755Y-95804573D01*
X140373488Y-95818754D01*
X140362848Y-95837352D01*
X140356649Y-95857864D01*
X140345167Y-95868259D01*
X140338794Y-95879401D01*
X140314369Y-95896145D01*
X140310126Y-95899988D01*
X140307711Y-95901244D01*
X140247266Y-95929432D01*
X140229002Y-95942219D01*
X140221792Y-95945973D01*
X140221591Y-95946012D01*
X140220847Y-95946460D01*
X140218397Y-95947708D01*
X140218394Y-95947710D01*
X140145696Y-96000526D01*
X140143939Y-96001779D01*
X140060859Y-96059954D01*
X139899954Y-96220859D01*
X139841781Y-96303934D01*
X139841782Y-96303935D01*
X139841132Y-96304863D01*
X139787713Y-96378390D01*
X139782535Y-96388550D01*
X139777560Y-96395656D01*
X139777558Y-96395656D01*
X139769433Y-96407262D01*
X139731838Y-96487882D01*
X139730905Y-96489838D01*
X139730424Y-96490822D01*
X139694780Y-96560781D01*
X139691746Y-96570114D01*
X139687944Y-96577911D01*
X139677744Y-96589093D01*
X139664179Y-96611227D01*
X139614143Y-96661265D01*
X139614139Y-96661270D01*
X138801270Y-97474139D01*
X138801267Y-97474142D01*
X138774910Y-97500499D01*
X138714142Y-97561266D01*
X138692813Y-97593188D01*
X138692812Y-97593187D01*
X138645689Y-97663712D01*
X138645688Y-97663713D01*
X138631576Y-97697784D01*
X138598537Y-97777549D01*
X138598535Y-97777556D01*
X138574500Y-97898389D01*
X138574500Y-98149823D01*
X138554815Y-98216862D01*
X138502011Y-98262617D01*
X138432853Y-98272561D01*
X138371460Y-98245367D01*
X138228919Y-98127447D01*
X138058584Y-98035348D01*
X138058583Y-98035347D01*
X138058580Y-98035346D01*
X137873609Y-97978087D01*
X137681029Y-97957846D01*
X137681027Y-97957846D01*
X137607670Y-97964522D01*
X137488182Y-97975396D01*
X137302426Y-98030067D01*
X137302422Y-98030069D01*
X137130831Y-98119773D01*
X137130819Y-98119781D01*
X136979910Y-98241115D01*
X136979909Y-98241116D01*
X136855444Y-98389446D01*
X136855442Y-98389449D01*
X136762154Y-98559139D01*
X136703602Y-98743718D01*
X136703602Y-98743719D01*
X136682019Y-98936146D01*
X136682019Y-98936153D01*
X136698221Y-99129101D01*
X136698222Y-99129107D01*
X136729744Y-99239036D01*
X136751596Y-99315245D01*
X136840106Y-99487468D01*
X136840107Y-99487470D01*
X136955123Y-99632583D01*
X136960387Y-99639225D01*
X137107851Y-99764726D01*
X137107854Y-99764728D01*
X137107857Y-99764730D01*
X137158428Y-99792993D01*
X137276882Y-99859195D01*
X137461044Y-99919033D01*
X137653321Y-99941960D01*
X137846390Y-99927105D01*
X138032896Y-99875031D01*
X138205736Y-99787724D01*
X138358325Y-99668507D01*
X138358330Y-99668500D01*
X138362722Y-99664320D01*
X138364030Y-99665694D01*
X138415335Y-99632583D01*
X138485204Y-99632447D01*
X138544055Y-99670108D01*
X138573203Y-99733607D01*
X138574500Y-99751492D01*
X138574500Y-109361606D01*
X138581960Y-109399110D01*
X138598537Y-109482453D01*
X138601060Y-109488542D01*
X138610500Y-109535998D01*
X138610500Y-110126000D01*
X138590815Y-110193039D01*
X138538011Y-110238794D01*
X138486500Y-110250000D01*
X125915760Y-110250000D01*
X125848721Y-110230315D01*
X125802966Y-110177511D01*
X125793022Y-110108353D01*
X125822047Y-110044797D01*
X125828079Y-110038319D01*
X126000446Y-109865952D01*
X126668885Y-109197511D01*
X126730206Y-109164028D01*
X126780760Y-109163578D01*
X126785099Y-109164441D01*
X126785102Y-109164441D01*
X126942785Y-109164441D01*
X126942786Y-109164440D01*
X127097438Y-109133678D01*
X127243120Y-109073335D01*
X127374230Y-108985730D01*
X127485730Y-108874230D01*
X127573335Y-108743120D01*
X127576404Y-108735712D01*
X127608718Y-108657697D01*
X127633678Y-108597438D01*
X127664441Y-108442783D01*
X127664441Y-108285099D01*
X127664441Y-108285096D01*
X127664440Y-108285094D01*
X127637949Y-108151918D01*
X127633678Y-108130444D01*
X127604143Y-108059139D01*
X127573338Y-107984768D01*
X127573331Y-107984755D01*
X127497889Y-107871849D01*
X127477011Y-107805172D01*
X127495495Y-107737792D01*
X127513306Y-107715281D01*
X128296663Y-106931923D01*
X128357984Y-106898440D01*
X128408534Y-106897989D01*
X128421158Y-106900500D01*
X128578844Y-106900500D01*
X128578845Y-106900499D01*
X128733497Y-106869737D01*
X128879179Y-106809394D01*
X129010289Y-106721789D01*
X129121789Y-106610289D01*
X129209394Y-106479179D01*
X129269737Y-106333497D01*
X129300500Y-106178842D01*
X129300500Y-106021158D01*
X129300500Y-106021155D01*
X129300499Y-106021153D01*
X129291826Y-105977552D01*
X129269737Y-105866503D01*
X129262515Y-105849067D01*
X129209397Y-105720827D01*
X129209390Y-105720814D01*
X129121789Y-105589711D01*
X129121786Y-105589707D01*
X129010292Y-105478213D01*
X129010288Y-105478210D01*
X128879185Y-105390609D01*
X128879172Y-105390602D01*
X128733501Y-105330264D01*
X128733489Y-105330261D01*
X128578845Y-105299500D01*
X128578842Y-105299500D01*
X128421158Y-105299500D01*
X128421155Y-105299500D01*
X128266510Y-105330261D01*
X128266498Y-105330264D01*
X128120827Y-105390602D01*
X128120814Y-105390609D01*
X127989711Y-105478210D01*
X127885562Y-105582359D01*
X127882321Y-105585484D01*
X127875035Y-105592258D01*
X127851265Y-105608142D01*
X127764140Y-105695267D01*
X127764137Y-105695270D01*
X127762553Y-105696853D01*
X127762539Y-105696867D01*
X124397535Y-109061871D01*
X124336212Y-109095356D01*
X124266520Y-109090372D01*
X124210587Y-109048500D01*
X124209536Y-109047076D01*
X124197714Y-109030804D01*
X124179433Y-109005643D01*
X124178205Y-109003920D01*
X124120045Y-108920858D01*
X123959140Y-108759953D01*
X123876078Y-108701793D01*
X123875180Y-108701164D01*
X123801610Y-108647713D01*
X123791448Y-108642535D01*
X123784346Y-108637562D01*
X123772736Y-108629433D01*
X123714724Y-108602381D01*
X123704066Y-108592996D01*
X123690866Y-108587773D01*
X123678368Y-108570369D01*
X123662285Y-108556208D01*
X123658393Y-108542552D01*
X123650112Y-108531021D01*
X123649007Y-108509621D01*
X123643134Y-108489014D01*
X123647241Y-108475423D01*
X123646510Y-108461244D01*
X123657149Y-108442644D01*
X123663350Y-108422133D01*
X123674830Y-108411737D01*
X123681204Y-108400597D01*
X123705623Y-108383856D01*
X123709872Y-108380010D01*
X123712252Y-108378770D01*
X123772734Y-108350568D01*
X123791002Y-108337775D01*
X123798207Y-108334025D01*
X123798416Y-108333983D01*
X123799180Y-108333524D01*
X123801610Y-108332287D01*
X123874358Y-108279432D01*
X123876047Y-108278227D01*
X123959139Y-108220047D01*
X124120047Y-108059139D01*
X124178821Y-107975199D01*
X124232287Y-107901610D01*
X124237465Y-107891446D01*
X124250568Y-107872734D01*
X124289067Y-107790172D01*
X124325220Y-107719219D01*
X124332266Y-107697532D01*
X124346739Y-107666496D01*
X124367377Y-107589471D01*
X124388477Y-107524534D01*
X124393825Y-107490766D01*
X124405635Y-107446692D01*
X124411215Y-107382892D01*
X124412270Y-107374306D01*
X124420500Y-107322350D01*
X124420500Y-107117649D01*
X124412270Y-107065691D01*
X124412270Y-107065690D01*
X124411592Y-107061414D01*
X124405635Y-106993308D01*
X124393825Y-106949233D01*
X124388477Y-106915466D01*
X124368378Y-106853609D01*
X124366535Y-106847386D01*
X124346742Y-106773513D01*
X124346740Y-106773510D01*
X124346739Y-106773504D01*
X124332266Y-106742467D01*
X124325220Y-106720781D01*
X124289067Y-106649827D01*
X124250568Y-106567266D01*
X124242436Y-106555652D01*
X124242436Y-106555651D01*
X124237462Y-106548548D01*
X124232287Y-106538390D01*
X124178821Y-106464800D01*
X124176435Y-106461393D01*
X124120045Y-106380858D01*
X123959140Y-106219953D01*
X123876078Y-106161793D01*
X123875180Y-106161164D01*
X123801610Y-106107713D01*
X123791448Y-106102535D01*
X123784346Y-106097562D01*
X123772736Y-106089433D01*
X123772727Y-106089429D01*
X123714723Y-106062380D01*
X123704066Y-106052996D01*
X123690866Y-106047773D01*
X123678368Y-106030369D01*
X123662285Y-106016208D01*
X123658393Y-106002552D01*
X123650112Y-105991021D01*
X123649007Y-105969621D01*
X123643134Y-105949014D01*
X123647241Y-105935423D01*
X123646510Y-105921244D01*
X123657149Y-105902644D01*
X123663350Y-105882133D01*
X123674830Y-105871737D01*
X123681204Y-105860597D01*
X123705623Y-105843856D01*
X123709872Y-105840010D01*
X123712252Y-105838770D01*
X123772734Y-105810568D01*
X123791002Y-105797775D01*
X123798207Y-105794025D01*
X123798416Y-105793983D01*
X123799180Y-105793524D01*
X123801610Y-105792287D01*
X123874358Y-105739432D01*
X123876047Y-105738227D01*
X123959139Y-105680047D01*
X124120047Y-105519139D01*
X124178821Y-105435199D01*
X124232287Y-105361610D01*
X124237465Y-105351446D01*
X124250568Y-105332734D01*
X124289067Y-105250172D01*
X124325220Y-105179219D01*
X124332266Y-105157532D01*
X124346739Y-105126496D01*
X124346742Y-105126488D01*
X124366534Y-105052617D01*
X124367377Y-105049471D01*
X124388477Y-104984534D01*
X124393825Y-104950766D01*
X124405635Y-104906692D01*
X124411215Y-104842892D01*
X124412270Y-104834306D01*
X124416151Y-104809809D01*
X124420500Y-104782352D01*
X124420500Y-104577648D01*
X124411593Y-104521417D01*
X124405635Y-104453308D01*
X124393825Y-104409233D01*
X124388477Y-104375466D01*
X124368378Y-104313609D01*
X124366535Y-104307386D01*
X124346742Y-104233513D01*
X124346740Y-104233510D01*
X124346739Y-104233504D01*
X124332266Y-104202467D01*
X124325220Y-104180781D01*
X124289067Y-104109827D01*
X124250568Y-104027266D01*
X124242436Y-104015652D01*
X124242436Y-104015651D01*
X124237462Y-104008548D01*
X124232287Y-103998390D01*
X124178821Y-103924800D01*
X124176435Y-103921393D01*
X124120045Y-103840858D01*
X123959140Y-103679953D01*
X123876078Y-103621793D01*
X123875180Y-103621164D01*
X123801610Y-103567713D01*
X123791448Y-103562535D01*
X123784346Y-103557562D01*
X123772736Y-103549433D01*
X123772727Y-103549429D01*
X123714723Y-103522380D01*
X123704066Y-103512996D01*
X123690866Y-103507773D01*
X123678368Y-103490369D01*
X123662285Y-103476208D01*
X123658393Y-103462552D01*
X123650112Y-103451021D01*
X123649007Y-103429621D01*
X123643134Y-103409014D01*
X123647241Y-103395423D01*
X123646510Y-103381244D01*
X123657149Y-103362644D01*
X123663350Y-103342133D01*
X123674830Y-103331737D01*
X123681204Y-103320597D01*
X123705623Y-103303856D01*
X123709872Y-103300010D01*
X123712252Y-103298770D01*
X123772734Y-103270568D01*
X123791002Y-103257775D01*
X123798207Y-103254025D01*
X123798416Y-103253983D01*
X123799180Y-103253524D01*
X123801610Y-103252287D01*
X123874358Y-103199432D01*
X123876047Y-103198227D01*
X123959139Y-103140047D01*
X124120047Y-102979139D01*
X124178821Y-102895199D01*
X124232287Y-102821610D01*
X124237465Y-102811446D01*
X124250568Y-102792734D01*
X124289067Y-102710172D01*
X124325220Y-102639219D01*
X124332266Y-102617532D01*
X124346739Y-102586496D01*
X124346742Y-102586488D01*
X124366534Y-102512617D01*
X124367377Y-102509471D01*
X124388477Y-102444534D01*
X124393825Y-102410766D01*
X124405635Y-102366692D01*
X124411215Y-102302892D01*
X124412270Y-102294306D01*
X124420500Y-102242350D01*
X124420500Y-102037649D01*
X124412270Y-101985691D01*
X124412270Y-101985690D01*
X124411592Y-101981414D01*
X124405635Y-101913308D01*
X124393825Y-101869233D01*
X124388477Y-101835466D01*
X124368378Y-101773609D01*
X124366535Y-101767386D01*
X124346742Y-101693513D01*
X124346740Y-101693510D01*
X124346739Y-101693504D01*
X124332266Y-101662467D01*
X124325220Y-101640781D01*
X124289067Y-101569827D01*
X124250568Y-101487266D01*
X124242436Y-101475652D01*
X124242436Y-101475651D01*
X124237462Y-101468548D01*
X124232287Y-101458390D01*
X124178821Y-101384800D01*
X124120047Y-101300861D01*
X124120045Y-101300858D01*
X123959143Y-101139956D01*
X123892620Y-101093376D01*
X123848996Y-101038799D01*
X123841803Y-100969300D01*
X123873325Y-100906946D01*
X123933082Y-100871652D01*
X123953040Y-100866558D01*
X124009584Y-100843136D01*
X124009584Y-100843135D01*
X123249410Y-100082962D01*
X123312993Y-100065925D01*
X123427007Y-100000099D01*
X123520099Y-99907007D01*
X123553012Y-99850000D01*
X123723551Y-99850000D01*
X124363135Y-100489584D01*
X124363136Y-100489584D01*
X124386552Y-100433053D01*
X124404544Y-100382053D01*
X124424999Y-100239780D01*
X124425000Y-100239779D01*
X124425000Y-99850000D01*
X123723551Y-99850000D01*
X123553012Y-99850000D01*
X123585925Y-99792993D01*
X123620000Y-99665826D01*
X123620000Y-99534174D01*
X123585925Y-99407007D01*
X123553011Y-99349999D01*
X123723551Y-99349999D01*
X123723552Y-99350000D01*
X124425000Y-99350000D01*
X124425000Y-98960214D01*
X124422106Y-98906237D01*
X124422106Y-98906235D01*
X124386561Y-98766969D01*
X124386559Y-98766962D01*
X124363135Y-98710414D01*
X123723551Y-99349999D01*
X123553011Y-99349999D01*
X123520099Y-99292993D01*
X123427007Y-99199901D01*
X123312993Y-99134075D01*
X123249410Y-99117037D01*
X124009584Y-98356862D01*
X123953059Y-98333449D01*
X123953048Y-98333445D01*
X123924833Y-98323491D01*
X123914996Y-98316397D01*
X123903235Y-98313445D01*
X123887186Y-98296342D01*
X123868162Y-98282624D01*
X123863721Y-98271338D01*
X123855424Y-98262496D01*
X123851168Y-98239432D01*
X123842581Y-98217605D01*
X123844947Y-98205710D01*
X123842747Y-98193786D01*
X123851636Y-98172084D01*
X123853523Y-98162600D01*
X131606700Y-98162600D01*
X131606700Y-99737400D01*
X131608622Y-99776800D01*
X131623700Y-99813201D01*
X131638778Y-99849603D01*
X131694496Y-99905321D01*
X131694497Y-99905321D01*
X131694498Y-99905322D01*
X131767300Y-99935478D01*
X131806700Y-99937400D01*
X131806715Y-99937400D01*
X133381485Y-99937400D01*
X133381500Y-99937400D01*
X133420900Y-99935478D01*
X133493702Y-99905323D01*
X133549423Y-99849602D01*
X133579578Y-99776800D01*
X133581500Y-99737400D01*
X133581500Y-98936146D01*
X134142019Y-98936146D01*
X134142019Y-98936153D01*
X134158221Y-99129101D01*
X134158222Y-99129107D01*
X134189744Y-99239036D01*
X134211596Y-99315245D01*
X134300106Y-99487468D01*
X134300107Y-99487470D01*
X134415123Y-99632583D01*
X134420387Y-99639225D01*
X134567851Y-99764726D01*
X134567854Y-99764728D01*
X134567857Y-99764730D01*
X134618428Y-99792993D01*
X134736882Y-99859195D01*
X134921044Y-99919033D01*
X135113321Y-99941960D01*
X135306390Y-99927105D01*
X135492896Y-99875031D01*
X135665736Y-99787724D01*
X135818325Y-99668507D01*
X135944853Y-99521923D01*
X135950206Y-99512501D01*
X136034500Y-99364116D01*
X136040500Y-99353555D01*
X136101622Y-99169816D01*
X136125891Y-98977703D01*
X136126278Y-98950000D01*
X136107382Y-98757285D01*
X136051414Y-98571910D01*
X136051413Y-98571908D01*
X136051413Y-98571907D01*
X135983289Y-98443786D01*
X135960506Y-98400937D01*
X135838120Y-98250877D01*
X135688919Y-98127447D01*
X135518584Y-98035348D01*
X135518583Y-98035347D01*
X135518580Y-98035346D01*
X135333609Y-97978087D01*
X135141029Y-97957846D01*
X135141027Y-97957846D01*
X135067670Y-97964522D01*
X134948182Y-97975396D01*
X134762426Y-98030067D01*
X134762422Y-98030069D01*
X134590831Y-98119773D01*
X134590819Y-98119781D01*
X134439910Y-98241115D01*
X134439909Y-98241116D01*
X134315444Y-98389446D01*
X134315442Y-98389449D01*
X134222154Y-98559139D01*
X134163602Y-98743718D01*
X134163602Y-98743719D01*
X134142019Y-98936146D01*
X133581500Y-98936146D01*
X133581500Y-98162600D01*
X133579578Y-98123200D01*
X133572030Y-98104978D01*
X133549425Y-98050403D01*
X133549423Y-98050398D01*
X133493702Y-97994677D01*
X133493698Y-97994675D01*
X133493696Y-97994674D01*
X133420901Y-97964522D01*
X133420903Y-97964522D01*
X133412457Y-97964110D01*
X133381500Y-97962600D01*
X132594100Y-97962600D01*
X131806700Y-97962600D01*
X131767300Y-97964522D01*
X131694496Y-97994678D01*
X131694495Y-97994680D01*
X131638780Y-98050395D01*
X131638778Y-98050396D01*
X131610038Y-98119781D01*
X131608622Y-98123200D01*
X131606700Y-98162600D01*
X123853523Y-98162600D01*
X123856213Y-98149078D01*
X123865291Y-98138746D01*
X123869231Y-98129130D01*
X123894960Y-98104984D01*
X123959139Y-98060047D01*
X124120047Y-97899139D01*
X124178821Y-97815199D01*
X124232287Y-97741610D01*
X124237465Y-97731446D01*
X124250568Y-97712734D01*
X124289067Y-97630172D01*
X124325220Y-97559219D01*
X124332266Y-97537532D01*
X124346739Y-97506496D01*
X124346742Y-97506488D01*
X124366534Y-97432617D01*
X124367377Y-97429471D01*
X124388477Y-97364534D01*
X124393825Y-97330766D01*
X124405635Y-97286692D01*
X124411215Y-97222892D01*
X124412270Y-97214306D01*
X124413968Y-97203591D01*
X124420500Y-97162352D01*
X124420500Y-96957648D01*
X124411812Y-96902797D01*
X124411592Y-96901414D01*
X124405635Y-96833308D01*
X124393825Y-96789233D01*
X124388477Y-96755466D01*
X124368378Y-96693609D01*
X124366535Y-96687386D01*
X124346742Y-96613513D01*
X124346740Y-96613510D01*
X124346739Y-96613504D01*
X124332266Y-96582467D01*
X124325220Y-96560781D01*
X124289067Y-96489827D01*
X124250568Y-96407266D01*
X124242436Y-96395652D01*
X124242436Y-96395651D01*
X124237462Y-96388548D01*
X124232287Y-96378390D01*
X124178821Y-96304800D01*
X124178215Y-96303935D01*
X124178205Y-96303920D01*
X124120045Y-96220858D01*
X123959140Y-96059953D01*
X123876078Y-96001793D01*
X123875180Y-96001164D01*
X123801610Y-95947713D01*
X123791448Y-95942535D01*
X123784346Y-95937562D01*
X123772736Y-95929433D01*
X123772727Y-95929429D01*
X123714723Y-95902380D01*
X123704066Y-95892996D01*
X123690866Y-95887773D01*
X123678368Y-95870369D01*
X123662285Y-95856208D01*
X123658393Y-95842552D01*
X123650112Y-95831021D01*
X123649007Y-95809621D01*
X123643134Y-95789014D01*
X123647241Y-95775423D01*
X123646510Y-95761244D01*
X123657149Y-95742644D01*
X123663350Y-95722133D01*
X123674830Y-95711737D01*
X123681204Y-95700597D01*
X123705623Y-95683856D01*
X123709872Y-95680010D01*
X123712252Y-95678770D01*
X123772734Y-95650568D01*
X123791002Y-95637775D01*
X123798207Y-95634025D01*
X123798416Y-95633983D01*
X123799180Y-95633524D01*
X123801610Y-95632287D01*
X123874358Y-95579432D01*
X123876047Y-95578227D01*
X123959139Y-95520047D01*
X124120047Y-95359139D01*
X124178821Y-95275199D01*
X124232287Y-95201610D01*
X124237465Y-95191446D01*
X124250568Y-95172734D01*
X124289067Y-95090172D01*
X124325220Y-95019219D01*
X124332266Y-94997532D01*
X124346739Y-94966496D01*
X124346742Y-94966488D01*
X124366534Y-94892617D01*
X124367377Y-94889471D01*
X124388477Y-94824534D01*
X124393825Y-94790766D01*
X124405635Y-94746692D01*
X124411215Y-94682892D01*
X124412270Y-94674306D01*
X124415276Y-94655334D01*
X124420500Y-94622352D01*
X124420500Y-94417648D01*
X124411593Y-94361417D01*
X124405635Y-94293308D01*
X124393825Y-94249233D01*
X124388477Y-94215466D01*
X124368378Y-94153609D01*
X124366535Y-94147386D01*
X124346742Y-94073513D01*
X124346740Y-94073510D01*
X124346739Y-94073504D01*
X124332266Y-94042467D01*
X124325220Y-94020781D01*
X124289067Y-93949827D01*
X124250568Y-93867266D01*
X124242436Y-93855652D01*
X124242436Y-93855651D01*
X124237462Y-93848548D01*
X124232287Y-93838390D01*
X124178821Y-93764800D01*
X124178215Y-93763935D01*
X124178205Y-93763920D01*
X124120045Y-93680858D01*
X123959140Y-93519953D01*
X123876078Y-93461793D01*
X123875180Y-93461164D01*
X123801610Y-93407713D01*
X123791448Y-93402535D01*
X123784346Y-93397562D01*
X123772736Y-93389433D01*
X123772727Y-93389429D01*
X123714723Y-93362380D01*
X123704066Y-93352996D01*
X123690866Y-93347773D01*
X123678368Y-93330369D01*
X123662285Y-93316208D01*
X123658393Y-93302552D01*
X123650112Y-93291021D01*
X123649007Y-93269621D01*
X123643134Y-93249014D01*
X123647241Y-93235423D01*
X123646510Y-93221244D01*
X123657149Y-93202644D01*
X123663350Y-93182133D01*
X123674830Y-93171737D01*
X123681204Y-93160597D01*
X123705623Y-93143856D01*
X123709872Y-93140010D01*
X123712252Y-93138770D01*
X123772734Y-93110568D01*
X123791002Y-93097775D01*
X123798207Y-93094025D01*
X123798416Y-93093983D01*
X123799180Y-93093524D01*
X123801610Y-93092287D01*
X123874358Y-93039432D01*
X123876047Y-93038227D01*
X123959139Y-92980047D01*
X124120047Y-92819139D01*
X124178821Y-92735199D01*
X124232287Y-92661610D01*
X124237465Y-92651446D01*
X124250568Y-92632734D01*
X124289067Y-92550172D01*
X124325220Y-92479219D01*
X124332266Y-92457532D01*
X124346739Y-92426496D01*
X124367377Y-92349471D01*
X124388477Y-92284534D01*
X124393825Y-92250766D01*
X124405635Y-92206692D01*
X124411215Y-92142892D01*
X124412270Y-92134306D01*
X124420500Y-92082350D01*
X124420500Y-91877649D01*
X124412270Y-91825691D01*
X124412270Y-91825690D01*
X124411592Y-91821414D01*
X124405635Y-91753308D01*
X124393825Y-91709233D01*
X124388477Y-91675466D01*
X124368378Y-91613609D01*
X124366535Y-91607386D01*
X124346742Y-91533513D01*
X124346740Y-91533510D01*
X124346739Y-91533504D01*
X124332266Y-91502467D01*
X124325220Y-91480781D01*
X124289067Y-91409827D01*
X124250568Y-91327266D01*
X124242436Y-91315652D01*
X124239374Y-91307511D01*
X124234965Y-91302467D01*
X124234835Y-91302548D01*
X124234363Y-91301778D01*
X124233524Y-91300818D01*
X124232288Y-91298391D01*
X124232286Y-91298388D01*
X124179462Y-91225682D01*
X124178211Y-91223929D01*
X124175901Y-91220630D01*
X124153569Y-91154428D01*
X124170574Y-91086659D01*
X124221518Y-91038842D01*
X124277471Y-91025500D01*
X124333650Y-91025500D01*
X124335758Y-91026119D01*
X124337889Y-91025572D01*
X124369138Y-91035920D01*
X124400689Y-91045185D01*
X124402541Y-91046398D01*
X124496821Y-91109394D01*
X124496823Y-91109395D01*
X124496827Y-91109397D01*
X124642498Y-91169735D01*
X124642503Y-91169737D01*
X124797153Y-91200499D01*
X124797156Y-91200500D01*
X124797158Y-91200500D01*
X124954844Y-91200500D01*
X124954845Y-91200499D01*
X125109497Y-91169737D01*
X125255179Y-91109394D01*
X125386289Y-91021789D01*
X125497789Y-90910289D01*
X125585394Y-90779179D01*
X125645737Y-90633497D01*
X125676500Y-90478842D01*
X125676500Y-90321158D01*
X125676500Y-90321155D01*
X125676499Y-90321153D01*
X125645738Y-90166510D01*
X125645737Y-90166503D01*
X125615181Y-90092734D01*
X125585397Y-90020827D01*
X125585390Y-90020814D01*
X125497789Y-89889711D01*
X125497786Y-89889707D01*
X125386292Y-89778213D01*
X125386288Y-89778210D01*
X125255185Y-89690609D01*
X125255172Y-89690602D01*
X125109501Y-89630264D01*
X125109489Y-89630261D01*
X124954845Y-89599500D01*
X124954842Y-89599500D01*
X124797158Y-89599500D01*
X124797155Y-89599500D01*
X124642510Y-89630261D01*
X124642507Y-89630262D01*
X124642506Y-89630262D01*
X124642503Y-89630263D01*
X124591951Y-89651202D01*
X124522482Y-89658670D01*
X124460003Y-89627394D01*
X124424351Y-89567305D01*
X124420500Y-89536640D01*
X124420500Y-89337649D01*
X124412270Y-89285691D01*
X124412270Y-89285690D01*
X124411592Y-89281414D01*
X124405635Y-89213308D01*
X124393825Y-89169233D01*
X124388477Y-89135466D01*
X124368378Y-89073609D01*
X124366535Y-89067386D01*
X124346742Y-88993513D01*
X124346740Y-88993510D01*
X124346739Y-88993504D01*
X124332266Y-88962467D01*
X124325220Y-88940781D01*
X124289067Y-88869827D01*
X124250568Y-88787266D01*
X124242436Y-88775652D01*
X124242436Y-88775651D01*
X124237462Y-88768548D01*
X124232287Y-88758390D01*
X124178821Y-88684800D01*
X124178215Y-88683935D01*
X124178205Y-88683920D01*
X124120045Y-88600858D01*
X123959143Y-88439956D01*
X123892620Y-88393376D01*
X123848996Y-88338799D01*
X123841803Y-88269300D01*
X123873325Y-88206946D01*
X123933082Y-88171652D01*
X123953040Y-88166558D01*
X124009584Y-88143136D01*
X124009584Y-88143135D01*
X123666448Y-87799999D01*
X132060000Y-87799999D01*
X132060000Y-88700000D01*
X132062138Y-88765541D01*
X132062138Y-88765544D01*
X132062139Y-88765545D01*
X132096068Y-88892167D01*
X132161612Y-89005694D01*
X132254306Y-89098388D01*
X132367833Y-89163932D01*
X132494455Y-89197861D01*
X132560000Y-89200000D01*
X133460000Y-89200000D01*
X133525545Y-89197861D01*
X133652167Y-89163933D01*
X133765694Y-89098388D01*
X133858388Y-89005694D01*
X133923933Y-88892167D01*
X133957861Y-88765545D01*
X133960000Y-88700000D01*
X133960000Y-87800000D01*
X133957861Y-87734455D01*
X133923933Y-87607833D01*
X133858388Y-87494306D01*
X133765694Y-87401612D01*
X133652167Y-87336067D01*
X133525545Y-87302139D01*
X133460000Y-87300000D01*
X133010000Y-87300000D01*
X132560000Y-87300000D01*
X132494458Y-87302138D01*
X132367832Y-87336068D01*
X132254307Y-87401611D01*
X132254304Y-87401613D01*
X132161613Y-87494304D01*
X132161611Y-87494307D01*
X132096068Y-87607832D01*
X132062138Y-87734458D01*
X132060000Y-87799999D01*
X123666448Y-87799999D01*
X123249410Y-87382962D01*
X123312993Y-87365925D01*
X123427007Y-87300099D01*
X123520099Y-87207007D01*
X123553012Y-87150000D01*
X123723551Y-87150000D01*
X124363135Y-87789584D01*
X124363136Y-87789584D01*
X124379317Y-87750522D01*
X124379317Y-87750521D01*
X124386553Y-87733051D01*
X124404544Y-87682053D01*
X124424999Y-87539780D01*
X124425000Y-87539779D01*
X124425000Y-87150000D01*
X123723551Y-87150000D01*
X123553012Y-87150000D01*
X123585925Y-87092993D01*
X123620000Y-86965826D01*
X123620000Y-86834174D01*
X123585925Y-86707007D01*
X123553011Y-86649999D01*
X123723551Y-86649999D01*
X123723552Y-86650000D01*
X124425000Y-86650000D01*
X124425000Y-86260214D01*
X124422106Y-86206237D01*
X124422106Y-86206235D01*
X124386561Y-86066969D01*
X124386559Y-86066962D01*
X124363135Y-86010414D01*
X123723551Y-86649999D01*
X123553011Y-86649999D01*
X123520099Y-86592993D01*
X123427007Y-86499901D01*
X123312993Y-86434075D01*
X123249410Y-86417037D01*
X124009584Y-85656862D01*
X123953059Y-85633449D01*
X123953048Y-85633445D01*
X123924833Y-85623491D01*
X123868162Y-85582624D01*
X123842581Y-85517605D01*
X123856213Y-85449078D01*
X123894963Y-85404982D01*
X123959139Y-85360047D01*
X124120047Y-85199139D01*
X124178821Y-85115199D01*
X124232287Y-85041610D01*
X124237465Y-85031446D01*
X124250568Y-85012734D01*
X124289067Y-84930172D01*
X124325220Y-84859219D01*
X124332266Y-84837532D01*
X124346739Y-84806496D01*
X124346742Y-84806488D01*
X124366534Y-84732617D01*
X124367377Y-84729471D01*
X124388477Y-84664534D01*
X124393825Y-84630766D01*
X124405635Y-84586692D01*
X124411215Y-84522892D01*
X124412270Y-84514306D01*
X124420500Y-84462350D01*
X124420500Y-84257649D01*
X124412270Y-84205691D01*
X124412270Y-84205690D01*
X124411592Y-84201414D01*
X124405635Y-84133308D01*
X124393825Y-84089233D01*
X124388477Y-84055466D01*
X124368378Y-83993609D01*
X124366535Y-83987386D01*
X124346742Y-83913513D01*
X124346740Y-83913510D01*
X124346739Y-83913504D01*
X124332266Y-83882467D01*
X124325220Y-83860781D01*
X124289067Y-83789827D01*
X124250568Y-83707266D01*
X124242436Y-83695652D01*
X124242436Y-83695651D01*
X124237462Y-83688548D01*
X124232287Y-83678390D01*
X124178821Y-83604800D01*
X124178215Y-83603935D01*
X124178205Y-83603920D01*
X124120045Y-83520858D01*
X123959140Y-83359953D01*
X123876078Y-83301793D01*
X123875180Y-83301164D01*
X123801610Y-83247713D01*
X123791448Y-83242535D01*
X123784346Y-83237562D01*
X123772736Y-83229433D01*
X123772727Y-83229429D01*
X123714723Y-83202380D01*
X123704066Y-83192996D01*
X123690866Y-83187773D01*
X123678368Y-83170369D01*
X123662285Y-83156208D01*
X123658393Y-83142552D01*
X123650112Y-83131021D01*
X123649007Y-83109621D01*
X123643134Y-83089014D01*
X123647241Y-83075423D01*
X123646510Y-83061244D01*
X123657149Y-83042644D01*
X123663350Y-83022133D01*
X123674830Y-83011737D01*
X123681204Y-83000597D01*
X123705623Y-82983856D01*
X123709872Y-82980010D01*
X123712252Y-82978770D01*
X123772734Y-82950568D01*
X123791002Y-82937775D01*
X123798207Y-82934025D01*
X123798416Y-82933983D01*
X123799180Y-82933524D01*
X123801610Y-82932287D01*
X123874358Y-82879432D01*
X123876047Y-82878227D01*
X123959139Y-82820047D01*
X124120047Y-82659139D01*
X124178821Y-82575199D01*
X124232287Y-82501610D01*
X124237465Y-82491446D01*
X124250568Y-82472734D01*
X124289067Y-82390172D01*
X124325220Y-82319219D01*
X124332266Y-82297532D01*
X124346739Y-82266496D01*
X124346742Y-82266488D01*
X124366534Y-82192617D01*
X124367377Y-82189471D01*
X124388477Y-82124534D01*
X124393825Y-82090766D01*
X124405635Y-82046692D01*
X124411215Y-81982892D01*
X124412270Y-81974306D01*
X124415819Y-81951905D01*
X124420500Y-81922352D01*
X124420500Y-81717648D01*
X124411593Y-81661417D01*
X124405635Y-81593308D01*
X124393825Y-81549233D01*
X124388477Y-81515466D01*
X124368378Y-81453609D01*
X124366535Y-81447386D01*
X124346742Y-81373513D01*
X124346740Y-81373510D01*
X124346739Y-81373504D01*
X124332266Y-81342467D01*
X124325220Y-81320781D01*
X124289067Y-81249827D01*
X124250568Y-81167266D01*
X124245808Y-81160468D01*
X124223481Y-81094264D01*
X124240490Y-81026497D01*
X124259698Y-81001668D01*
X125215297Y-80046069D01*
X125255524Y-80019191D01*
X125279179Y-80009394D01*
X125410289Y-79921789D01*
X125521789Y-79810289D01*
X125609394Y-79679179D01*
X125669737Y-79533497D01*
X125700500Y-79378842D01*
X125700500Y-79221158D01*
X125700500Y-79221155D01*
X125700499Y-79221153D01*
X125695164Y-79194334D01*
X125669737Y-79066503D01*
X125664273Y-79053312D01*
X125609397Y-78920827D01*
X125609390Y-78920814D01*
X125521789Y-78789711D01*
X125521786Y-78789707D01*
X125410292Y-78678213D01*
X125410288Y-78678210D01*
X125279185Y-78590609D01*
X125279172Y-78590602D01*
X125133501Y-78530264D01*
X125133489Y-78530261D01*
X124978845Y-78499500D01*
X124978842Y-78499500D01*
X124821158Y-78499500D01*
X124821155Y-78499500D01*
X124666510Y-78530261D01*
X124666498Y-78530264D01*
X124520827Y-78590602D01*
X124520816Y-78590608D01*
X124420096Y-78657907D01*
X124412757Y-78660204D01*
X124407150Y-78665467D01*
X124379880Y-78670498D01*
X124353419Y-78678784D01*
X124346003Y-78676749D01*
X124338441Y-78678145D01*
X124312780Y-78667635D01*
X124286038Y-78660299D01*
X124279272Y-78653911D01*
X124273784Y-78651664D01*
X124249631Y-78625928D01*
X124242435Y-78615652D01*
X124233524Y-78600818D01*
X124232288Y-78598391D01*
X124232286Y-78598388D01*
X124179462Y-78525682D01*
X124178205Y-78523920D01*
X124120045Y-78440858D01*
X123959140Y-78279953D01*
X123876078Y-78221793D01*
X123875180Y-78221164D01*
X123801610Y-78167713D01*
X123791448Y-78162535D01*
X123784346Y-78157562D01*
X123772736Y-78149433D01*
X123772727Y-78149429D01*
X123714723Y-78122380D01*
X123704066Y-78112996D01*
X123690866Y-78107773D01*
X123678368Y-78090369D01*
X123662285Y-78076208D01*
X123658393Y-78062552D01*
X123650112Y-78051021D01*
X123649007Y-78029621D01*
X123643134Y-78009014D01*
X123647241Y-77995423D01*
X123646510Y-77981244D01*
X123657149Y-77962644D01*
X123663350Y-77942133D01*
X123674830Y-77931737D01*
X123681204Y-77920597D01*
X123705623Y-77903856D01*
X123709872Y-77900010D01*
X123712252Y-77898770D01*
X123772734Y-77870568D01*
X123791002Y-77857775D01*
X123798207Y-77854025D01*
X123798416Y-77853983D01*
X123799180Y-77853524D01*
X123801610Y-77852287D01*
X123874358Y-77799432D01*
X123876047Y-77798227D01*
X123959139Y-77740047D01*
X124120047Y-77579139D01*
X124178821Y-77495199D01*
X124232287Y-77421610D01*
X124237465Y-77411446D01*
X124250568Y-77392734D01*
X124289067Y-77310172D01*
X124325220Y-77239219D01*
X124332266Y-77217532D01*
X124346739Y-77186496D01*
X124346742Y-77186488D01*
X124366534Y-77112617D01*
X124367377Y-77109471D01*
X124388477Y-77044534D01*
X124393825Y-77010766D01*
X124405635Y-76966692D01*
X124411215Y-76902892D01*
X124412270Y-76894306D01*
X124412953Y-76889999D01*
X124420500Y-76842352D01*
X124420500Y-76637648D01*
X124411593Y-76581413D01*
X124405635Y-76513308D01*
X124393825Y-76469233D01*
X124388477Y-76435466D01*
X124368378Y-76373609D01*
X124366535Y-76367386D01*
X124346742Y-76293513D01*
X124346740Y-76293510D01*
X124346739Y-76293504D01*
X124332266Y-76262467D01*
X124325220Y-76240781D01*
X124289067Y-76169827D01*
X124250568Y-76087266D01*
X124242436Y-76075652D01*
X124242436Y-76075651D01*
X124237462Y-76068548D01*
X124232287Y-76058390D01*
X124178821Y-75984800D01*
X124178215Y-75983935D01*
X124178205Y-75983920D01*
X124120045Y-75900858D01*
X123959143Y-75739956D01*
X123892620Y-75693376D01*
X123848996Y-75638799D01*
X123841803Y-75569300D01*
X123873325Y-75506946D01*
X123933082Y-75471652D01*
X123953040Y-75466558D01*
X124009584Y-75443136D01*
X124009584Y-75443135D01*
X123952107Y-75385658D01*
X123866448Y-75299999D01*
X128560000Y-75299999D01*
X128560000Y-82700000D01*
X128562138Y-82765541D01*
X128562138Y-82765544D01*
X128562139Y-82765545D01*
X128596068Y-82892167D01*
X128661612Y-83005694D01*
X128754306Y-83098388D01*
X128867833Y-83163932D01*
X128994455Y-83197861D01*
X129060000Y-83200000D01*
X129960000Y-83200000D01*
X130025545Y-83197861D01*
X130152167Y-83163932D01*
X130265694Y-83098388D01*
X130358388Y-83005694D01*
X130423932Y-82892167D01*
X130457861Y-82765545D01*
X130460000Y-82700000D01*
X130460000Y-79000000D01*
X130460000Y-75300000D01*
X130457861Y-75234455D01*
X130423933Y-75107833D01*
X130358388Y-74994306D01*
X130265694Y-74901612D01*
X130158607Y-74839785D01*
X139595000Y-74839785D01*
X139597893Y-74893762D01*
X139597893Y-74893764D01*
X139633438Y-75033030D01*
X139633442Y-75033043D01*
X139656862Y-75089584D01*
X140296448Y-74450000D01*
X139595000Y-74450000D01*
X139595000Y-74839785D01*
X130158607Y-74839785D01*
X130152167Y-74836067D01*
X130025545Y-74802139D01*
X129960000Y-74800000D01*
X129060000Y-74800000D01*
X128994455Y-74802139D01*
X128867833Y-74836067D01*
X128867831Y-74836067D01*
X128867831Y-74836068D01*
X128754306Y-74901612D01*
X128754303Y-74901614D01*
X128661614Y-74994303D01*
X128661612Y-74994306D01*
X128596067Y-75107833D01*
X128571373Y-75199992D01*
X128562139Y-75234455D01*
X128560000Y-75299999D01*
X123866448Y-75299999D01*
X123249410Y-74682962D01*
X123312993Y-74665925D01*
X123427007Y-74600099D01*
X123520099Y-74507007D01*
X123553012Y-74450000D01*
X123723551Y-74450000D01*
X124363135Y-75089584D01*
X124363136Y-75089584D01*
X124386552Y-75033053D01*
X124404544Y-74982053D01*
X124424999Y-74839780D01*
X124425000Y-74839779D01*
X124425000Y-74450000D01*
X123723551Y-74450000D01*
X123553012Y-74450000D01*
X123585925Y-74392993D01*
X123620000Y-74265826D01*
X123620000Y-74134174D01*
X123585925Y-74007007D01*
X123553011Y-73949999D01*
X123723551Y-73949999D01*
X123723552Y-73950000D01*
X124425000Y-73950000D01*
X124425000Y-73560219D01*
X139595000Y-73560219D01*
X139595000Y-73950000D01*
X140296448Y-73950000D01*
X140296448Y-73949999D01*
X139656863Y-73310414D01*
X139656862Y-73310415D01*
X139633446Y-73366947D01*
X139633431Y-73366987D01*
X139615457Y-73417939D01*
X139615455Y-73417946D01*
X139595000Y-73560219D01*
X124425000Y-73560219D01*
X124425000Y-73560214D01*
X124422106Y-73506237D01*
X124422106Y-73506235D01*
X124386561Y-73366969D01*
X124386559Y-73366962D01*
X124363135Y-73310414D01*
X123723551Y-73949999D01*
X123553011Y-73949999D01*
X123520099Y-73892993D01*
X123427007Y-73799901D01*
X123312993Y-73734075D01*
X123249410Y-73717037D01*
X124009584Y-72956862D01*
X123953059Y-72933449D01*
X123953048Y-72933445D01*
X123924833Y-72923491D01*
X123868162Y-72882624D01*
X123842581Y-72817605D01*
X123856213Y-72749078D01*
X123894963Y-72704982D01*
X123959139Y-72660047D01*
X124120047Y-72499139D01*
X124178821Y-72415199D01*
X124232287Y-72341610D01*
X124237465Y-72331446D01*
X124250568Y-72312734D01*
X124289067Y-72230172D01*
X124310817Y-72187486D01*
X128409500Y-72187486D01*
X128409500Y-72372514D01*
X128416403Y-72416095D01*
X128438445Y-72555265D01*
X128495619Y-72731232D01*
X128495620Y-72731235D01*
X128572758Y-72882624D01*
X128579622Y-72896096D01*
X128688379Y-73045787D01*
X128819213Y-73176621D01*
X128968904Y-73285378D01*
X129009161Y-73305890D01*
X129133764Y-73369379D01*
X129133767Y-73369380D01*
X129185255Y-73386109D01*
X129309736Y-73426555D01*
X129492486Y-73455500D01*
X129492487Y-73455500D01*
X129677513Y-73455500D01*
X129677514Y-73455500D01*
X129860264Y-73426555D01*
X130036235Y-73369379D01*
X130201096Y-73285378D01*
X130350787Y-73176621D01*
X130481621Y-73045787D01*
X130590378Y-72896096D01*
X130674379Y-72731235D01*
X130731555Y-72555264D01*
X130760500Y-72372514D01*
X130760500Y-72187486D01*
X130731555Y-72004736D01*
X130693201Y-71886694D01*
X130676826Y-71836295D01*
X130674380Y-71828767D01*
X130674379Y-71828764D01*
X130659722Y-71799999D01*
X131060000Y-71799999D01*
X131060000Y-72700000D01*
X131062138Y-72765541D01*
X131062138Y-72765544D01*
X131062139Y-72765545D01*
X131096068Y-72892167D01*
X131161612Y-73005694D01*
X131254306Y-73098388D01*
X131367833Y-73163932D01*
X131494455Y-73197861D01*
X131560000Y-73200000D01*
X132460000Y-73200000D01*
X132525545Y-73197861D01*
X132652167Y-73163933D01*
X132765694Y-73098388D01*
X132858388Y-73005694D01*
X132923933Y-72892167D01*
X132957861Y-72765545D01*
X132960000Y-72700000D01*
X132960000Y-72187486D01*
X133259500Y-72187486D01*
X133259500Y-72372514D01*
X133266403Y-72416095D01*
X133288445Y-72555265D01*
X133345619Y-72731232D01*
X133345620Y-72731235D01*
X133422758Y-72882624D01*
X133429622Y-72896096D01*
X133538379Y-73045787D01*
X133669213Y-73176621D01*
X133818904Y-73285378D01*
X133859161Y-73305890D01*
X133983764Y-73369379D01*
X133983767Y-73369380D01*
X134035255Y-73386109D01*
X134159736Y-73426555D01*
X134342486Y-73455500D01*
X134342487Y-73455500D01*
X134527513Y-73455500D01*
X134527514Y-73455500D01*
X134600660Y-73443914D01*
X134667578Y-73433316D01*
X134673847Y-73432322D01*
X134710264Y-73426555D01*
X134886235Y-73369379D01*
X135051096Y-73285378D01*
X135200787Y-73176621D01*
X135331621Y-73045787D01*
X135440378Y-72896096D01*
X135524379Y-72731235D01*
X135581555Y-72555264D01*
X135610500Y-72372514D01*
X135610500Y-72187486D01*
X135581555Y-72004736D01*
X135543201Y-71886694D01*
X135524380Y-71828767D01*
X135524379Y-71828764D01*
X135467322Y-71716784D01*
X135440378Y-71663904D01*
X135331621Y-71514213D01*
X135200787Y-71383379D01*
X135051096Y-71274622D01*
X134886235Y-71190620D01*
X134886232Y-71190619D01*
X134710265Y-71133445D01*
X134616891Y-71118656D01*
X134527514Y-71104500D01*
X134342486Y-71104500D01*
X134281569Y-71114148D01*
X134159734Y-71133445D01*
X133983767Y-71190619D01*
X133983764Y-71190620D01*
X133818903Y-71274622D01*
X133781030Y-71302139D01*
X133669213Y-71383379D01*
X133669211Y-71383381D01*
X133669210Y-71383381D01*
X133538381Y-71514210D01*
X133538381Y-71514211D01*
X133538379Y-71514213D01*
X133521732Y-71537126D01*
X133429622Y-71663903D01*
X133345620Y-71828764D01*
X133345619Y-71828767D01*
X133288445Y-72004734D01*
X133267412Y-72137532D01*
X133259500Y-72187486D01*
X132960000Y-72187486D01*
X132960000Y-71800000D01*
X132957861Y-71734455D01*
X132923933Y-71607833D01*
X132858388Y-71494306D01*
X132765694Y-71401612D01*
X132652167Y-71336067D01*
X132525545Y-71302139D01*
X132460000Y-71300000D01*
X132010000Y-71300000D01*
X131560000Y-71300000D01*
X131494458Y-71302138D01*
X131367832Y-71336068D01*
X131254307Y-71401611D01*
X131254304Y-71401613D01*
X131161613Y-71494304D01*
X131161611Y-71494307D01*
X131096068Y-71607832D01*
X131062138Y-71734458D01*
X131060000Y-71799999D01*
X130659722Y-71799999D01*
X130617322Y-71716784D01*
X130590378Y-71663904D01*
X130481621Y-71514213D01*
X130350787Y-71383379D01*
X130201096Y-71274622D01*
X130036235Y-71190620D01*
X130036232Y-71190619D01*
X129860265Y-71133445D01*
X129766891Y-71118656D01*
X129677514Y-71104500D01*
X129492486Y-71104500D01*
X129431569Y-71114148D01*
X129309734Y-71133445D01*
X129133767Y-71190619D01*
X129133764Y-71190620D01*
X128968903Y-71274622D01*
X128931030Y-71302139D01*
X128819213Y-71383379D01*
X128819211Y-71383381D01*
X128819210Y-71383381D01*
X128688381Y-71514210D01*
X128688381Y-71514211D01*
X128688379Y-71514213D01*
X128671732Y-71537126D01*
X128579622Y-71663903D01*
X128495620Y-71828764D01*
X128495619Y-71828767D01*
X128438445Y-72004734D01*
X128417412Y-72137532D01*
X128409500Y-72187486D01*
X124310817Y-72187486D01*
X124325220Y-72159219D01*
X124332266Y-72137532D01*
X124335646Y-72130283D01*
X124335664Y-72130262D01*
X124335679Y-72130212D01*
X124346739Y-72106496D01*
X124346742Y-72106488D01*
X124366534Y-72032617D01*
X124367377Y-72029471D01*
X124388477Y-71964534D01*
X124393825Y-71930766D01*
X124405635Y-71886692D01*
X124411215Y-71822892D01*
X124412270Y-71814306D01*
X124414537Y-71799999D01*
X124420500Y-71762352D01*
X124420500Y-71557648D01*
X124411593Y-71501417D01*
X124405635Y-71433308D01*
X124393825Y-71389233D01*
X124388477Y-71355466D01*
X124368378Y-71293609D01*
X124366535Y-71287386D01*
X124346742Y-71213513D01*
X124346740Y-71213510D01*
X124346739Y-71213504D01*
X124332266Y-71182467D01*
X124325220Y-71160781D01*
X124289067Y-71089827D01*
X124250568Y-71007266D01*
X124242436Y-70995652D01*
X124242436Y-70995651D01*
X124237462Y-70988548D01*
X124232287Y-70978390D01*
X124178821Y-70904800D01*
X124178215Y-70903935D01*
X124178205Y-70903920D01*
X124120045Y-70820858D01*
X123959142Y-70659955D01*
X123950297Y-70653762D01*
X123888515Y-70610502D01*
X123844891Y-70555927D01*
X123837697Y-70486429D01*
X123869219Y-70424074D01*
X123922747Y-70390543D01*
X124009606Y-70363478D01*
X124155185Y-70275472D01*
X124275472Y-70155185D01*
X124363478Y-70009606D01*
X124414086Y-69847196D01*
X124420500Y-69776616D01*
X124420500Y-69255650D01*
X124420613Y-69250347D01*
X124420759Y-69246922D01*
X124425500Y-69198793D01*
X124425500Y-69143713D01*
X127934500Y-69143713D01*
X127934500Y-69356286D01*
X127955104Y-69486378D01*
X127967754Y-69566243D01*
X128017938Y-69720694D01*
X128033444Y-69768414D01*
X128129951Y-69957820D01*
X128254890Y-70129786D01*
X128405213Y-70280109D01*
X128577179Y-70405048D01*
X128577181Y-70405049D01*
X128577184Y-70405051D01*
X128766588Y-70501557D01*
X128968757Y-70567246D01*
X129178713Y-70600500D01*
X129178714Y-70600500D01*
X129391286Y-70600500D01*
X129391287Y-70600500D01*
X129601243Y-70567246D01*
X129803412Y-70501557D01*
X129992816Y-70405051D01*
X130050038Y-70363477D01*
X130164786Y-70280109D01*
X130164788Y-70280106D01*
X130164792Y-70280104D01*
X130315104Y-70129792D01*
X130440051Y-69957816D01*
X130440053Y-69957811D01*
X130442914Y-69953874D01*
X130444013Y-69954672D01*
X130491241Y-69911928D01*
X130549225Y-69899648D01*
X130560000Y-69900000D01*
X130560004Y-69900000D01*
X131460000Y-69900000D01*
X131525545Y-69897861D01*
X131652167Y-69863933D01*
X131765694Y-69798388D01*
X131858388Y-69705694D01*
X131898283Y-69636594D01*
X131948850Y-69588378D01*
X132017457Y-69575155D01*
X132082322Y-69601124D01*
X132113057Y-69636594D01*
X132161609Y-69720690D01*
X132161611Y-69720693D01*
X132161612Y-69720694D01*
X132254306Y-69813388D01*
X132367833Y-69878932D01*
X132494455Y-69912861D01*
X132560000Y-69915000D01*
X133459997Y-69915000D01*
X133460000Y-69915000D01*
X133481066Y-69914312D01*
X133548711Y-69931798D01*
X133585430Y-69965361D01*
X133704890Y-70129786D01*
X133855213Y-70280109D01*
X134027179Y-70405048D01*
X134027181Y-70405049D01*
X134027184Y-70405051D01*
X134216588Y-70501557D01*
X134418757Y-70567246D01*
X134628713Y-70600500D01*
X134628714Y-70600500D01*
X134841286Y-70600500D01*
X134841287Y-70600500D01*
X135051243Y-70567246D01*
X135253412Y-70501557D01*
X135442816Y-70405051D01*
X135500038Y-70363477D01*
X135614786Y-70280109D01*
X135614788Y-70280106D01*
X135614792Y-70280104D01*
X135765104Y-70129792D01*
X135765106Y-70129788D01*
X135765109Y-70129786D01*
X135890048Y-69957820D01*
X135890047Y-69957820D01*
X135890051Y-69957816D01*
X135986557Y-69768412D01*
X136052246Y-69566243D01*
X136085500Y-69356287D01*
X136085500Y-69143713D01*
X136076838Y-69089024D01*
X136067834Y-69032174D01*
X136059821Y-68981585D01*
X136052246Y-68933757D01*
X135986557Y-68731588D01*
X135890051Y-68542184D01*
X135890049Y-68542181D01*
X135890048Y-68542179D01*
X135765109Y-68370213D01*
X135614786Y-68219890D01*
X135442820Y-68094951D01*
X135253414Y-67998444D01*
X135253413Y-67998443D01*
X135253412Y-67998443D01*
X135051243Y-67932754D01*
X135051241Y-67932753D01*
X135051240Y-67932753D01*
X134887244Y-67906779D01*
X134841287Y-67899500D01*
X134628713Y-67899500D01*
X134582756Y-67906779D01*
X134418760Y-67932753D01*
X134216585Y-67998444D01*
X134027181Y-68094950D01*
X133948861Y-68151852D01*
X133883054Y-68175331D01*
X133815000Y-68159504D01*
X133788296Y-68139214D01*
X133765696Y-68116614D01*
X133765694Y-68116612D01*
X133652167Y-68051067D01*
X133525545Y-68017139D01*
X133460000Y-68015000D01*
X133010000Y-68015000D01*
X132560000Y-68015000D01*
X132494458Y-68017138D01*
X132367832Y-68051068D01*
X132254307Y-68116611D01*
X132254304Y-68116613D01*
X132161613Y-68209304D01*
X132161609Y-68209309D01*
X132121717Y-68278405D01*
X132071150Y-68326621D01*
X132002543Y-68339843D01*
X131937678Y-68313875D01*
X131906943Y-68278405D01*
X131869334Y-68213265D01*
X131858388Y-68194306D01*
X131765694Y-68101612D01*
X131652167Y-68036067D01*
X131525545Y-68002139D01*
X131460000Y-68000000D01*
X131010000Y-68000000D01*
X130560000Y-68000000D01*
X130494458Y-68002138D01*
X130367832Y-68036068D01*
X130254307Y-68101611D01*
X130254304Y-68101613D01*
X130223014Y-68132903D01*
X130161690Y-68166388D01*
X130091999Y-68161402D01*
X130062449Y-68145540D01*
X129992815Y-68094948D01*
X129803414Y-67998444D01*
X129803413Y-67998443D01*
X129803412Y-67998443D01*
X129601243Y-67932754D01*
X129601241Y-67932753D01*
X129601240Y-67932753D01*
X129437244Y-67906779D01*
X129391287Y-67899500D01*
X129178713Y-67899500D01*
X129132756Y-67906779D01*
X128968760Y-67932753D01*
X128766585Y-67998444D01*
X128577179Y-68094951D01*
X128405213Y-68219890D01*
X128254890Y-68370213D01*
X128129951Y-68542179D01*
X128033444Y-68731585D01*
X127967753Y-68933760D01*
X127934500Y-69143713D01*
X124425500Y-69143713D01*
X124425500Y-69041207D01*
X124421097Y-68996501D01*
X124420500Y-68984348D01*
X124420500Y-68463386D01*
X124419152Y-68448553D01*
X124414086Y-68392804D01*
X124363478Y-68230394D01*
X124275472Y-68084815D01*
X124275470Y-68084813D01*
X124275469Y-68084811D01*
X124155188Y-67964530D01*
X124134176Y-67951828D01*
X124009606Y-67876522D01*
X123847196Y-67825914D01*
X123847194Y-67825913D01*
X123847192Y-67825913D01*
X123797778Y-67821423D01*
X123776616Y-67819500D01*
X123776613Y-67819500D01*
X123255650Y-67819500D01*
X123243497Y-67818903D01*
X123198793Y-67814500D01*
X120880218Y-67814500D01*
X120880216Y-67814500D01*
X120826185Y-67817395D01*
X120826181Y-67817396D01*
X120686778Y-67852976D01*
X120686766Y-67852980D01*
X120613280Y-67883419D01*
X120613252Y-67883431D01*
X120564451Y-67906779D01*
X120564446Y-67906782D01*
X120449268Y-67993005D01*
X120449256Y-67993015D01*
X120393019Y-68049252D01*
X120356843Y-68089524D01*
X120356837Y-68089532D01*
X120283426Y-68213263D01*
X120252978Y-68286774D01*
X120252970Y-68286795D01*
X120234976Y-68337800D01*
X120214500Y-68480219D01*
X120214500Y-69759784D01*
X120217395Y-69813814D01*
X120217396Y-69813818D01*
X120252976Y-69953221D01*
X120252980Y-69953233D01*
X120283419Y-70026719D01*
X120283431Y-70026747D01*
X120306779Y-70075548D01*
X120306782Y-70075553D01*
X120347381Y-70129786D01*
X120393006Y-70190733D01*
X120393010Y-70190737D01*
X120393015Y-70190743D01*
X120449252Y-70246980D01*
X120449261Y-70246988D01*
X120449267Y-70246994D01*
X120480970Y-70275472D01*
X120489524Y-70283156D01*
X120489532Y-70283162D01*
X120613263Y-70356573D01*
X120613262Y-70356573D01*
X120627615Y-70362518D01*
X120686774Y-70387022D01*
X120714662Y-70396860D01*
X120771332Y-70437725D01*
X120796913Y-70502743D01*
X120783283Y-70571271D01*
X120744531Y-70615371D01*
X120680856Y-70659956D01*
X120519954Y-70820858D01*
X120389432Y-71007265D01*
X120389431Y-71007267D01*
X120293261Y-71213502D01*
X120293258Y-71213511D01*
X120234366Y-71433302D01*
X120234364Y-71433312D01*
X120219500Y-71603214D01*
X120219500Y-71716785D01*
X120234364Y-71886687D01*
X120234366Y-71886697D01*
X120293258Y-72106488D01*
X120293261Y-72106497D01*
X120389431Y-72312732D01*
X120389432Y-72312734D01*
X120519954Y-72499141D01*
X120680858Y-72660045D01*
X120680861Y-72660047D01*
X120867266Y-72790568D01*
X120919219Y-72814794D01*
X120971659Y-72860966D01*
X120990811Y-72928159D01*
X120970596Y-72995041D01*
X120925269Y-73036534D01*
X120860499Y-73071155D01*
X120860478Y-73071167D01*
X120729469Y-73158704D01*
X120729463Y-73158708D01*
X120652935Y-73221514D01*
X120541514Y-73332935D01*
X120478708Y-73409463D01*
X120478704Y-73409469D01*
X120391167Y-73540478D01*
X120391155Y-73540498D01*
X120344490Y-73627801D01*
X120284185Y-73773387D01*
X120255443Y-73868139D01*
X120255440Y-73868150D01*
X120239160Y-73949999D01*
X120239161Y-73950000D01*
X122686988Y-73950000D01*
X122654075Y-74007007D01*
X122620000Y-74134174D01*
X122620000Y-74265826D01*
X122654075Y-74392993D01*
X122686988Y-74450000D01*
X120239160Y-74450000D01*
X120255440Y-74531849D01*
X120255443Y-74531860D01*
X120284185Y-74626612D01*
X120344490Y-74772198D01*
X120391155Y-74859501D01*
X120391167Y-74859521D01*
X120478704Y-74990530D01*
X120478708Y-74990536D01*
X120541514Y-75067064D01*
X120652935Y-75178485D01*
X120729463Y-75241291D01*
X120729469Y-75241295D01*
X120860478Y-75328832D01*
X120860506Y-75328849D01*
X120925268Y-75363465D01*
X120975112Y-75412427D01*
X120990573Y-75480565D01*
X120966741Y-75546244D01*
X120919221Y-75585205D01*
X120867264Y-75609433D01*
X120680858Y-75739954D01*
X120519954Y-75900858D01*
X120389432Y-76087265D01*
X120389431Y-76087267D01*
X120293261Y-76293502D01*
X120293258Y-76293511D01*
X120234366Y-76513302D01*
X120234364Y-76513312D01*
X120219500Y-76683214D01*
X120219500Y-76796785D01*
X120234364Y-76966687D01*
X120234366Y-76966697D01*
X120293258Y-77186488D01*
X120293261Y-77186497D01*
X120389431Y-77392732D01*
X120389432Y-77392734D01*
X120519954Y-77579141D01*
X120680858Y-77740045D01*
X120680861Y-77740047D01*
X120867266Y-77870568D01*
X120925275Y-77897618D01*
X120977714Y-77943791D01*
X120996866Y-78010984D01*
X120976650Y-78077865D01*
X120925275Y-78122382D01*
X120867267Y-78149431D01*
X120867265Y-78149432D01*
X120680858Y-78279954D01*
X120519954Y-78440858D01*
X120389432Y-78627265D01*
X120389431Y-78627267D01*
X120293261Y-78833502D01*
X120293258Y-78833511D01*
X120234366Y-79053302D01*
X120234364Y-79053312D01*
X120219500Y-79223214D01*
X120219500Y-79336785D01*
X120234364Y-79506687D01*
X120234366Y-79506697D01*
X120293258Y-79726488D01*
X120293261Y-79726497D01*
X120389433Y-79932737D01*
X120406882Y-79957656D01*
X120429209Y-80023862D01*
X120412199Y-80091629D01*
X120392988Y-80116460D01*
X118817049Y-81692399D01*
X118778896Y-81749499D01*
X118778897Y-81749500D01*
X118734914Y-81815326D01*
X118678343Y-81951900D01*
X118678340Y-81951910D01*
X118649500Y-82096897D01*
X118649500Y-83528318D01*
X118629815Y-83595357D01*
X118577011Y-83641112D01*
X118507853Y-83651056D01*
X118460404Y-83633857D01*
X118369340Y-83577690D01*
X118369334Y-83577686D01*
X118202797Y-83522501D01*
X118202795Y-83522500D01*
X118100010Y-83512000D01*
X117099998Y-83512000D01*
X117099980Y-83512001D01*
X116997203Y-83522500D01*
X116997200Y-83522501D01*
X116830668Y-83577685D01*
X116830663Y-83577687D01*
X116681342Y-83669789D01*
X116557289Y-83793842D01*
X116550500Y-83804849D01*
X116483478Y-83913511D01*
X116474481Y-83928097D01*
X116422533Y-83974821D01*
X116368942Y-83987000D01*
X115913389Y-83987000D01*
X115862535Y-83997115D01*
X115862530Y-83997116D01*
X115852971Y-83999018D01*
X115792548Y-84011037D01*
X115745397Y-84030567D01*
X115678715Y-84058188D01*
X115678714Y-84058189D01*
X115656347Y-84073133D01*
X115656344Y-84073135D01*
X115576268Y-84126640D01*
X115545056Y-84157853D01*
X115489142Y-84213767D01*
X114936681Y-84766228D01*
X114875358Y-84799713D01*
X114805666Y-84794729D01*
X114749733Y-84752857D01*
X114740438Y-84727938D01*
X114725000Y-84712500D01*
X112275001Y-84712500D01*
X112275001Y-84849986D01*
X112285494Y-84952697D01*
X112340641Y-85119119D01*
X112340643Y-85119124D01*
X112432684Y-85268345D01*
X112556655Y-85392316D01*
X112556659Y-85392319D01*
X112559656Y-85394168D01*
X112561279Y-85395972D01*
X112562323Y-85396798D01*
X112562181Y-85396976D01*
X112606381Y-85446116D01*
X112617602Y-85515079D01*
X112589759Y-85579161D01*
X112559661Y-85605241D01*
X112556349Y-85607283D01*
X112556343Y-85607288D01*
X112432289Y-85731342D01*
X112340187Y-85880663D01*
X112340185Y-85880668D01*
X112326767Y-85921162D01*
X112285001Y-86047203D01*
X112285001Y-86047204D01*
X112285000Y-86047204D01*
X112274500Y-86149983D01*
X107500500Y-86149983D01*
X107500500Y-84075013D01*
X112275000Y-84075013D01*
X112275000Y-84212500D01*
X113250000Y-84212500D01*
X113750000Y-84212500D01*
X114724999Y-84212500D01*
X114724999Y-84075028D01*
X114724998Y-84075013D01*
X114714505Y-83972302D01*
X114659358Y-83805880D01*
X114659356Y-83805875D01*
X114567315Y-83656654D01*
X114443345Y-83532684D01*
X114294124Y-83440643D01*
X114294119Y-83440641D01*
X114127697Y-83385494D01*
X114127690Y-83385493D01*
X114024986Y-83375000D01*
X113750000Y-83375000D01*
X113750000Y-84212500D01*
X113250000Y-84212500D01*
X113250000Y-83375000D01*
X112975029Y-83375000D01*
X112975012Y-83375001D01*
X112872302Y-83385494D01*
X112705880Y-83440641D01*
X112705875Y-83440643D01*
X112556654Y-83532684D01*
X112432684Y-83656654D01*
X112340643Y-83805875D01*
X112340641Y-83805880D01*
X112285494Y-83972302D01*
X112285493Y-83972309D01*
X112275000Y-84075013D01*
X107500500Y-84075013D01*
X107500500Y-69393713D01*
X108549500Y-69393713D01*
X108549500Y-69606287D01*
X108550485Y-69612507D01*
X108582301Y-69813388D01*
X108582754Y-69816243D01*
X108629184Y-69959140D01*
X108648444Y-70018414D01*
X108744951Y-70207820D01*
X108869890Y-70379786D01*
X109020213Y-70530109D01*
X109192179Y-70655048D01*
X109192181Y-70655049D01*
X109192184Y-70655051D01*
X109381588Y-70751557D01*
X109583757Y-70817246D01*
X109793713Y-70850500D01*
X109793714Y-70850500D01*
X110006286Y-70850500D01*
X110006287Y-70850500D01*
X110216243Y-70817246D01*
X110418412Y-70751557D01*
X110607816Y-70655051D01*
X110681139Y-70601779D01*
X110779786Y-70530109D01*
X110779788Y-70530106D01*
X110779792Y-70530104D01*
X110884007Y-70425889D01*
X113789500Y-70425889D01*
X113789500Y-70599111D01*
X113792075Y-70615371D01*
X113813644Y-70751555D01*
X113816598Y-70770201D01*
X113870127Y-70934945D01*
X113948768Y-71089288D01*
X114050586Y-71229428D01*
X114173072Y-71351914D01*
X114173078Y-71351918D01*
X114256023Y-71412183D01*
X114298689Y-71467513D01*
X114304667Y-71537126D01*
X114272061Y-71598921D01*
X114256023Y-71612817D01*
X114173078Y-71673081D01*
X114173069Y-71673088D01*
X114050588Y-71795569D01*
X114050588Y-71795570D01*
X114050586Y-71795572D01*
X114020999Y-71836295D01*
X113948768Y-71935711D01*
X113870128Y-72090052D01*
X113816597Y-72254802D01*
X113789500Y-72425889D01*
X113789500Y-72599110D01*
X113815860Y-72765545D01*
X113816598Y-72770201D01*
X113869638Y-72933441D01*
X113870128Y-72934947D01*
X113881294Y-72956862D01*
X113948768Y-73089288D01*
X114050586Y-73229428D01*
X114173072Y-73351914D01*
X114173078Y-73351918D01*
X114256023Y-73412183D01*
X114298689Y-73467513D01*
X114304667Y-73537126D01*
X114272061Y-73598921D01*
X114256023Y-73612817D01*
X114173078Y-73673081D01*
X114173069Y-73673088D01*
X114050588Y-73795569D01*
X114050588Y-73795570D01*
X114050586Y-73795572D01*
X114006859Y-73855756D01*
X113948768Y-73935711D01*
X113870128Y-74090052D01*
X113816597Y-74254802D01*
X113795721Y-74386610D01*
X113789500Y-74425889D01*
X113789500Y-74599111D01*
X113793856Y-74626612D01*
X113809034Y-74722447D01*
X113816598Y-74770201D01*
X113870127Y-74934945D01*
X113948768Y-75089288D01*
X114050586Y-75229428D01*
X114173072Y-75351914D01*
X114173078Y-75351918D01*
X114256023Y-75412183D01*
X114298689Y-75467513D01*
X114304667Y-75537126D01*
X114272061Y-75598921D01*
X114256023Y-75612817D01*
X114173078Y-75673081D01*
X114173069Y-75673088D01*
X114050588Y-75795569D01*
X114050588Y-75795570D01*
X114050586Y-75795572D01*
X114006859Y-75855756D01*
X113948768Y-75935711D01*
X113870128Y-76090052D01*
X113816597Y-76254802D01*
X113798766Y-76367386D01*
X113789500Y-76425889D01*
X113789500Y-76599111D01*
X113816598Y-76770201D01*
X113870127Y-76934945D01*
X113948768Y-77089288D01*
X114050586Y-77229428D01*
X114173072Y-77351914D01*
X114245233Y-77404342D01*
X114256449Y-77412491D01*
X114299114Y-77467822D01*
X114305093Y-77537435D01*
X114272487Y-77599230D01*
X114256448Y-77613127D01*
X114173404Y-77673461D01*
X114173399Y-77673465D01*
X114050967Y-77795897D01*
X113949195Y-77935975D01*
X113870591Y-78090244D01*
X113817085Y-78254915D01*
X113815884Y-78262499D01*
X113815885Y-78262500D01*
X114884670Y-78262500D01*
X114864925Y-78282245D01*
X114815556Y-78367755D01*
X114790000Y-78463130D01*
X114790000Y-78561870D01*
X114815556Y-78657245D01*
X114864925Y-78742755D01*
X114884670Y-78762500D01*
X113815885Y-78762500D01*
X113817085Y-78770084D01*
X113870591Y-78934755D01*
X113949195Y-79089024D01*
X114050967Y-79229102D01*
X114158565Y-79336700D01*
X114192050Y-79398023D01*
X114187066Y-79467715D01*
X114145194Y-79523648D01*
X114135983Y-79529918D01*
X114130175Y-79533501D01*
X114071342Y-79569789D01*
X113947289Y-79693842D01*
X113855187Y-79843163D01*
X113855186Y-79843166D01*
X113800001Y-80009703D01*
X113800001Y-80009704D01*
X113800000Y-80009704D01*
X113789500Y-80112483D01*
X113789500Y-80912501D01*
X113789501Y-80912519D01*
X113800000Y-81015296D01*
X113800001Y-81015299D01*
X113840790Y-81138390D01*
X113855186Y-81181834D01*
X113947288Y-81331156D01*
X114071344Y-81455212D01*
X114220666Y-81547314D01*
X114387203Y-81602499D01*
X114489991Y-81613000D01*
X115840008Y-81612999D01*
X115942797Y-81602499D01*
X116109334Y-81547314D01*
X116258656Y-81455212D01*
X116382712Y-81331156D01*
X116474814Y-81181834D01*
X116529999Y-81015297D01*
X116540500Y-80912509D01*
X116540499Y-80112492D01*
X116532921Y-80038312D01*
X116529999Y-80009703D01*
X116529998Y-80009700D01*
X116500866Y-79921786D01*
X116474814Y-79843166D01*
X116382712Y-79693844D01*
X116258656Y-79569788D01*
X116258655Y-79569787D01*
X116199825Y-79533501D01*
X116194018Y-79529919D01*
X116147294Y-79477972D01*
X116136071Y-79409010D01*
X116163914Y-79344928D01*
X116171434Y-79336699D01*
X116279035Y-79229098D01*
X116380804Y-79089024D01*
X116459408Y-78934755D01*
X116512914Y-78770084D01*
X116514115Y-78762500D01*
X115445330Y-78762500D01*
X115465075Y-78742755D01*
X115514444Y-78657245D01*
X115540000Y-78561870D01*
X115540000Y-78463130D01*
X115514444Y-78367755D01*
X115465075Y-78282245D01*
X115445330Y-78262500D01*
X116514115Y-78262500D01*
X116514115Y-78262499D01*
X116512914Y-78254915D01*
X116459408Y-78090244D01*
X116380804Y-77935975D01*
X116279032Y-77795897D01*
X116156602Y-77673467D01*
X116073551Y-77613128D01*
X116030885Y-77557798D01*
X116024906Y-77488185D01*
X116057511Y-77426389D01*
X116073551Y-77412491D01*
X116074989Y-77411446D01*
X116156928Y-77351914D01*
X116279414Y-77229428D01*
X116381232Y-77089288D01*
X116459873Y-76934945D01*
X116513402Y-76770201D01*
X116540500Y-76599111D01*
X116540500Y-76425889D01*
X116513402Y-76254799D01*
X116459873Y-76090055D01*
X116381232Y-75935712D01*
X116279414Y-75795572D01*
X116156928Y-75673086D01*
X116073975Y-75612817D01*
X116031311Y-75557488D01*
X116025332Y-75487874D01*
X116057938Y-75426079D01*
X116073976Y-75412182D01*
X116083919Y-75404958D01*
X116156928Y-75351914D01*
X116279414Y-75229428D01*
X116381232Y-75089288D01*
X116459873Y-74934945D01*
X116513402Y-74770201D01*
X116540500Y-74599111D01*
X116540500Y-74425889D01*
X116513402Y-74254799D01*
X116459873Y-74090055D01*
X116381232Y-73935712D01*
X116279414Y-73795572D01*
X116156928Y-73673086D01*
X116073975Y-73612817D01*
X116031311Y-73557488D01*
X116025332Y-73487874D01*
X116057938Y-73426079D01*
X116073976Y-73412182D01*
X116156928Y-73351914D01*
X116279414Y-73229428D01*
X116381232Y-73089288D01*
X116459873Y-72934945D01*
X116513402Y-72770201D01*
X116540500Y-72599111D01*
X116540500Y-72425889D01*
X116513402Y-72254799D01*
X116459873Y-72090055D01*
X116381232Y-71935712D01*
X116279414Y-71795572D01*
X116156928Y-71673086D01*
X116073975Y-71612817D01*
X116031311Y-71557488D01*
X116025332Y-71487874D01*
X116057938Y-71426079D01*
X116073976Y-71412182D01*
X116156928Y-71351914D01*
X116279414Y-71229428D01*
X116381232Y-71089288D01*
X116459873Y-70934945D01*
X116513402Y-70770201D01*
X116540500Y-70599111D01*
X116540500Y-70425889D01*
X116513402Y-70254799D01*
X116459873Y-70090055D01*
X116381232Y-69935712D01*
X116279414Y-69795572D01*
X116156928Y-69673086D01*
X116073550Y-69612508D01*
X116030885Y-69557177D01*
X116024906Y-69487564D01*
X116057512Y-69425769D01*
X116073552Y-69411871D01*
X116156598Y-69351536D01*
X116279032Y-69229102D01*
X116380804Y-69089024D01*
X116459408Y-68934755D01*
X116512914Y-68770084D01*
X116514115Y-68762500D01*
X115445330Y-68762500D01*
X115465075Y-68742755D01*
X115514444Y-68657245D01*
X115540000Y-68561870D01*
X115540000Y-68463130D01*
X115514444Y-68367755D01*
X115465075Y-68282245D01*
X115445330Y-68262500D01*
X116514115Y-68262500D01*
X116514115Y-68262499D01*
X116512914Y-68254915D01*
X116459408Y-68090244D01*
X116380804Y-67935975D01*
X116279032Y-67795897D01*
X116156602Y-67673467D01*
X116016524Y-67571695D01*
X115862257Y-67493091D01*
X115697584Y-67439585D01*
X115526571Y-67412500D01*
X115415000Y-67412500D01*
X115415000Y-68232170D01*
X115395255Y-68212425D01*
X115309745Y-68163056D01*
X115214370Y-68137500D01*
X115115630Y-68137500D01*
X115020255Y-68163056D01*
X114934745Y-68212425D01*
X114915000Y-68232170D01*
X114915000Y-67412500D01*
X114803429Y-67412500D01*
X114632415Y-67439585D01*
X114467742Y-67493091D01*
X114313475Y-67571695D01*
X114173397Y-67673467D01*
X114050967Y-67795897D01*
X113949195Y-67935975D01*
X113870591Y-68090244D01*
X113817085Y-68254915D01*
X113815884Y-68262499D01*
X113815885Y-68262500D01*
X114884670Y-68262500D01*
X114864925Y-68282245D01*
X114815556Y-68367755D01*
X114790000Y-68463130D01*
X114790000Y-68561870D01*
X114815556Y-68657245D01*
X114864925Y-68742755D01*
X114884670Y-68762500D01*
X113815885Y-68762500D01*
X113817085Y-68770084D01*
X113870591Y-68934755D01*
X113949195Y-69089024D01*
X114050967Y-69229102D01*
X114173401Y-69351536D01*
X114256447Y-69411871D01*
X114299114Y-69467201D01*
X114305093Y-69536814D01*
X114272488Y-69598609D01*
X114256450Y-69612507D01*
X114173072Y-69673085D01*
X114050588Y-69795569D01*
X114050588Y-69795570D01*
X114050586Y-69795572D01*
X114035568Y-69816243D01*
X113948768Y-69935711D01*
X113870128Y-70090052D01*
X113816597Y-70254802D01*
X113796802Y-70379786D01*
X113789500Y-70425889D01*
X110884007Y-70425889D01*
X110930104Y-70379792D01*
X110954119Y-70346739D01*
X110996019Y-70289067D01*
X111055051Y-70207816D01*
X111151557Y-70018412D01*
X111217246Y-69816243D01*
X111250500Y-69606287D01*
X111250500Y-69393713D01*
X111217246Y-69183757D01*
X111151557Y-68981588D01*
X111055051Y-68792184D01*
X111055049Y-68792181D01*
X111055048Y-68792179D01*
X110930109Y-68620213D01*
X110779790Y-68469894D01*
X110779785Y-68469890D01*
X110683428Y-68399883D01*
X110607820Y-68344951D01*
X110418414Y-68248444D01*
X110418413Y-68248443D01*
X110418412Y-68248443D01*
X110216243Y-68182754D01*
X110216241Y-68182753D01*
X110216240Y-68182753D01*
X110054957Y-68157208D01*
X110006287Y-68149500D01*
X109793713Y-68149500D01*
X109745042Y-68157208D01*
X109583760Y-68182753D01*
X109381585Y-68248444D01*
X109192179Y-68344951D01*
X109020213Y-68469890D01*
X108869890Y-68620213D01*
X108744951Y-68792179D01*
X108648444Y-68981585D01*
X108582753Y-69183760D01*
X108568413Y-69274301D01*
X108549500Y-69393713D01*
X107500500Y-69393713D01*
X107500500Y-66624500D01*
X107520185Y-66557461D01*
X107572989Y-66511706D01*
X107624500Y-66500500D01*
X125744108Y-66500500D01*
X138144108Y-66500500D01*
X155375500Y-66500500D01*
X155442539Y-66520185D01*
G37*
%TD.AperFunction*%
%TD*%
M02*
