%TF.GenerationSoftware,KiCad,Pcbnew,9.0.1*%
%TF.CreationDate,2025-08-12T13:46:24-07:00*%
%TF.ProjectId,fone,666f6e65-2e6b-4696-9361-645f70636258,0.5*%
%TF.SameCoordinates,Original*%
%TF.FileFunction,Soldermask,Top*%
%TF.FilePolarity,Negative*%
%FSLAX46Y46*%
G04 Gerber Fmt 4.6, Leading zero omitted, Abs format (unit mm)*
G04 Created by KiCad (PCBNEW 9.0.1) date 2025-08-12 13:46:24*
%MOMM*%
%LPD*%
G01*
G04 APERTURE LIST*
G04 Aperture macros list*
%AMRoundRect*
0 Rectangle with rounded corners*
0 $1 Rounding radius*
0 $2 $3 $4 $5 $6 $7 $8 $9 X,Y pos of 4 corners*
0 Add a 4 corners polygon primitive as box body*
4,1,4,$2,$3,$4,$5,$6,$7,$8,$9,$2,$3,0*
0 Add four circle primitives for the rounded corners*
1,1,$1+$1,$2,$3*
1,1,$1+$1,$4,$5*
1,1,$1+$1,$6,$7*
1,1,$1+$1,$8,$9*
0 Add four rect primitives between the rounded corners*
20,1,$1+$1,$2,$3,$4,$5,0*
20,1,$1+$1,$4,$5,$6,$7,0*
20,1,$1+$1,$6,$7,$8,$9,0*
20,1,$1+$1,$8,$9,$2,$3,0*%
%AMFreePoly0*
4,1,37,0.800000,0.796148,0.878414,0.796148,1.032228,0.765552,1.177117,0.705537,1.307515,0.618408,1.418408,0.507515,1.505537,0.377117,1.565552,0.232228,1.596148,0.078414,1.596148,-0.078414,1.565552,-0.232228,1.505537,-0.377117,1.418408,-0.507515,1.307515,-0.618408,1.177117,-0.705537,1.032228,-0.765552,0.878414,-0.796148,0.800000,-0.796148,0.800000,-0.800000,-1.400000,-0.800000,
-1.403843,-0.796157,-1.439018,-0.796157,-1.511114,-0.766294,-1.566294,-0.711114,-1.596157,-0.639018,-1.596157,-0.603843,-1.600000,-0.600000,-1.600000,0.600000,-1.596157,0.603843,-1.596157,0.639018,-1.566294,0.711114,-1.511114,0.766294,-1.439018,0.796157,-1.403843,0.796157,-1.400000,0.800000,0.800000,0.800000,0.800000,0.796148,0.800000,0.796148,$1*%
%AMFreePoly1*
4,1,37,1.403843,0.796157,1.439018,0.796157,1.511114,0.766294,1.566294,0.711114,1.596157,0.639018,1.596157,0.603843,1.600000,0.600000,1.600000,-0.600000,1.596157,-0.603843,1.596157,-0.639018,1.566294,-0.711114,1.511114,-0.766294,1.439018,-0.796157,1.403843,-0.796157,1.400000,-0.800000,-0.800000,-0.800000,-0.800000,-0.796148,-0.878414,-0.796148,-1.032228,-0.765552,-1.177117,-0.705537,
-1.307515,-0.618408,-1.418408,-0.507515,-1.505537,-0.377117,-1.565552,-0.232228,-1.596148,-0.078414,-1.596148,0.078414,-1.565552,0.232228,-1.505537,0.377117,-1.418408,0.507515,-1.307515,0.618408,-1.177117,0.705537,-1.032228,0.765552,-0.878414,0.796148,-0.800000,0.796148,-0.800000,0.800000,1.400000,0.800000,1.403843,0.796157,1.403843,0.796157,$1*%
%AMFreePoly2*
4,1,37,0.603843,0.796157,0.639018,0.796157,0.711114,0.766294,0.766294,0.711114,0.796157,0.639018,0.796157,0.603843,0.800000,0.600000,0.800000,-0.600000,0.796157,-0.603843,0.796157,-0.639018,0.766294,-0.711114,0.711114,-0.766294,0.639018,-0.796157,0.603843,-0.796157,0.600000,-0.800000,0.000000,-0.800000,0.000000,-0.796148,-0.078414,-0.796148,-0.232228,-0.765552,-0.377117,-0.705537,
-0.507515,-0.618408,-0.618408,-0.507515,-0.705537,-0.377117,-0.765552,-0.232228,-0.796148,-0.078414,-0.796148,0.078414,-0.765552,0.232228,-0.705537,0.377117,-0.618408,0.507515,-0.507515,0.618408,-0.377117,0.705537,-0.232228,0.765552,-0.078414,0.796148,0.000000,0.796148,0.000000,0.800000,0.600000,0.800000,0.603843,0.796157,0.603843,0.796157,$1*%
%AMFreePoly3*
4,1,37,0.000000,0.796148,0.078414,0.796148,0.232228,0.765552,0.377117,0.705537,0.507515,0.618408,0.618408,0.507515,0.705537,0.377117,0.765552,0.232228,0.796148,0.078414,0.796148,-0.078414,0.765552,-0.232228,0.705537,-0.377117,0.618408,-0.507515,0.507515,-0.618408,0.377117,-0.705537,0.232228,-0.765552,0.078414,-0.796148,0.000000,-0.796148,0.000000,-0.800000,-0.600000,-0.800000,
-0.603843,-0.796157,-0.639018,-0.796157,-0.711114,-0.766294,-0.766294,-0.711114,-0.796157,-0.639018,-0.796157,-0.603843,-0.800000,-0.600000,-0.800000,0.600000,-0.796157,0.603843,-0.796157,0.639018,-0.766294,0.711114,-0.711114,0.766294,-0.639018,0.796157,-0.603843,0.796157,-0.600000,0.800000,0.000000,0.800000,0.000000,0.796148,0.000000,0.796148,$1*%
G04 Aperture macros list end*
%ADD10C,2.200000*%
%ADD11RoundRect,0.250000X0.550000X-0.550000X0.550000X0.550000X-0.550000X0.550000X-0.550000X-0.550000X0*%
%ADD12C,1.600000*%
%ADD13RoundRect,0.162500X-0.162500X0.650000X-0.162500X-0.650000X0.162500X-0.650000X0.162500X0.650000X0*%
%ADD14RoundRect,0.250000X-0.350000X-0.450000X0.350000X-0.450000X0.350000X0.450000X-0.350000X0.450000X0*%
%ADD15RoundRect,0.250000X0.350000X0.450000X-0.350000X0.450000X-0.350000X-0.450000X0.350000X-0.450000X0*%
%ADD16RoundRect,0.250000X-0.450000X0.350000X-0.450000X-0.350000X0.450000X-0.350000X0.450000X0.350000X0*%
%ADD17RoundRect,0.250000X-0.350000X-0.625000X0.350000X-0.625000X0.350000X0.625000X-0.350000X0.625000X0*%
%ADD18O,1.200000X1.750000*%
%ADD19RoundRect,0.250000X-0.625000X0.350000X-0.625000X-0.350000X0.625000X-0.350000X0.625000X0.350000X0*%
%ADD20O,1.750000X1.200000*%
%ADD21RoundRect,0.250000X0.625000X-0.350000X0.625000X0.350000X-0.625000X0.350000X-0.625000X-0.350000X0*%
%ADD22RoundRect,0.250000X-0.337500X-0.475000X0.337500X-0.475000X0.337500X0.475000X-0.337500X0.475000X0*%
%ADD23RoundRect,0.250000X0.475000X-0.337500X0.475000X0.337500X-0.475000X0.337500X-0.475000X-0.337500X0*%
%ADD24C,1.850000*%
%ADD25FreePoly0,0.000000*%
%ADD26RoundRect,0.200000X-0.600000X-0.600000X0.600000X-0.600000X0.600000X0.600000X-0.600000X0.600000X0*%
%ADD27RoundRect,0.800000X-0.800000X-0.000010X0.800000X-0.000010X0.800000X0.000010X-0.800000X0.000010X0*%
%ADD28FreePoly1,0.000000*%
%ADD29FreePoly2,0.000000*%
%ADD30FreePoly3,0.000000*%
G04 APERTURE END LIST*
D10*
%TO.C,HOLE2*%
X109900000Y-69500000D03*
%TD*%
%TO.C,HOLE1*%
X152600000Y-113800000D03*
%TD*%
D11*
%TO.C,M1*%
X146700000Y-116600000D03*
D12*
X146700000Y-113000000D03*
%TD*%
D13*
%TO.C,U1*%
X117370000Y-89325000D03*
X116100000Y-89325000D03*
X114830000Y-89325000D03*
X113560000Y-89325000D03*
X113560000Y-96500000D03*
X114830000Y-96500000D03*
X116100000Y-96500000D03*
X117370000Y-96500000D03*
%TD*%
D14*
%TO.C,R4*%
X152100000Y-72900000D03*
X154100000Y-72900000D03*
%TD*%
D15*
%TO.C,R3*%
X154100000Y-75700000D03*
X152100000Y-75700000D03*
%TD*%
D16*
%TO.C,R2*%
X117600000Y-84612500D03*
X117600000Y-86612500D03*
%TD*%
%TO.C,R1*%
X117065000Y-99112500D03*
X117065000Y-101112500D03*
%TD*%
D17*
%TO.C,J6*%
X125000000Y-124050000D03*
D18*
X127000000Y-124050000D03*
X129000000Y-124050000D03*
X131000000Y-124050000D03*
X133000000Y-124050000D03*
X135000000Y-124050000D03*
X137000000Y-124050000D03*
X139000000Y-124050000D03*
%TD*%
D19*
%TO.C,J5*%
X148700000Y-96400000D03*
D20*
X148700000Y-98400000D03*
X148700000Y-100400000D03*
X148700000Y-102400000D03*
X148700000Y-104400000D03*
X148700000Y-106400000D03*
X148700000Y-108400000D03*
%TD*%
D21*
%TO.C,J4*%
X147600000Y-89400000D03*
D20*
X147600000Y-87400000D03*
X147600000Y-85400000D03*
%TD*%
D19*
%TO.C,J3*%
X116165000Y-105312500D03*
D20*
X116165000Y-107312500D03*
X116165000Y-109312500D03*
X116165000Y-111312500D03*
X116165000Y-113312500D03*
X116165000Y-115312500D03*
X116165000Y-117312500D03*
%TD*%
D19*
%TO.C,J2*%
X148400000Y-70300000D03*
D20*
X148400000Y-72300000D03*
X148400000Y-74300000D03*
%TD*%
D21*
%TO.C,J1*%
X115165000Y-80512500D03*
D20*
X115165000Y-78512500D03*
X115165000Y-76512500D03*
X115165000Y-74512500D03*
X115165000Y-72512500D03*
X115165000Y-70512500D03*
X115165000Y-68512500D03*
%TD*%
D22*
%TO.C,C3*%
X152062500Y-78400000D03*
X154137500Y-78400000D03*
%TD*%
%TO.C,C2*%
X146162500Y-79900000D03*
X148237500Y-79900000D03*
%TD*%
D23*
%TO.C,C1*%
X113500000Y-86537500D03*
X113500000Y-84462500D03*
%TD*%
D10*
%TO.C,A1*%
X129285000Y-69250000D03*
D24*
X129585000Y-72280000D03*
X134435000Y-72280000D03*
D10*
X134735000Y-69250000D03*
D25*
X122320000Y-69120000D03*
D26*
X123120000Y-69120000D03*
D27*
X122320000Y-71660000D03*
D12*
X123120000Y-71660000D03*
D28*
X122320000Y-74200000D03*
D29*
X123120000Y-74200000D03*
D27*
X122320000Y-76740000D03*
D12*
X123120000Y-76740000D03*
D27*
X122320000Y-79280000D03*
D12*
X123120000Y-79280000D03*
D27*
X122320000Y-81820000D03*
D12*
X123120000Y-81820000D03*
D27*
X122320000Y-84360000D03*
D12*
X123120000Y-84360000D03*
D28*
X122320000Y-86900000D03*
D29*
X123120000Y-86900000D03*
D27*
X122320000Y-89440000D03*
D12*
X123120000Y-89440000D03*
D27*
X122320000Y-91980000D03*
D12*
X123120000Y-91980000D03*
D27*
X122320000Y-94520000D03*
D12*
X123120000Y-94520000D03*
D27*
X122320000Y-97060000D03*
D12*
X123120000Y-97060000D03*
D28*
X122320000Y-99600000D03*
D29*
X123120000Y-99600000D03*
D27*
X122320000Y-102140000D03*
D12*
X123120000Y-102140000D03*
D27*
X122320000Y-104680000D03*
D12*
X123120000Y-104680000D03*
D27*
X122320000Y-107220000D03*
D12*
X123120000Y-107220000D03*
D27*
X122320000Y-109760000D03*
D12*
X123120000Y-109760000D03*
D28*
X122320000Y-112300000D03*
D29*
X123120000Y-112300000D03*
D27*
X122320000Y-114840000D03*
D12*
X123120000Y-114840000D03*
D27*
X122320000Y-117380000D03*
D12*
X123120000Y-117380000D03*
X140900000Y-117380000D03*
D27*
X141700000Y-117380000D03*
D12*
X140900000Y-114840000D03*
D27*
X141700000Y-114840000D03*
D30*
X140900000Y-112300000D03*
D25*
X141700000Y-112300000D03*
D12*
X140900000Y-109760000D03*
D27*
X141700000Y-109760000D03*
D12*
X140900000Y-107220000D03*
D27*
X141700000Y-107220000D03*
D12*
X140900000Y-104680000D03*
D27*
X141700000Y-104680000D03*
D12*
X140900000Y-102140000D03*
D27*
X141700000Y-102140000D03*
D30*
X140900000Y-99600000D03*
D25*
X141700000Y-99600000D03*
D12*
X140900000Y-97060000D03*
D27*
X141700000Y-97060000D03*
D12*
X140900000Y-94520000D03*
D27*
X141700000Y-94520000D03*
D12*
X140900000Y-91980000D03*
D27*
X141700000Y-91980000D03*
D12*
X140900000Y-89440000D03*
D27*
X141700000Y-89440000D03*
D30*
X140900000Y-86900000D03*
D25*
X141700000Y-86900000D03*
D12*
X140900000Y-84360000D03*
D27*
X141700000Y-84360000D03*
D12*
X140900000Y-81820000D03*
D27*
X141700000Y-81820000D03*
D12*
X140900000Y-79280000D03*
D27*
X141700000Y-79280000D03*
D12*
X140900000Y-76740000D03*
D27*
X141700000Y-76740000D03*
D30*
X140900000Y-74200000D03*
D25*
X141700000Y-74200000D03*
D12*
X140900000Y-71660000D03*
D27*
X141700000Y-71660000D03*
D12*
X140900000Y-69120000D03*
D27*
X141700000Y-69120000D03*
%TD*%
M02*
