%TF.GenerationSoftware,KiCad,Pcbnew,9.0.1*%
%TF.CreationDate,2025-08-12T13:46:24-07:00*%
%TF.ProjectId,fone,666f6e65-2e6b-4696-9361-645f70636258,0.5*%
%TF.SameCoordinates,Original*%
%TF.FileFunction,Legend,Bot*%
%TF.FilePolarity,Positive*%
%FSLAX46Y46*%
G04 Gerber Fmt 4.6, Leading zero omitted, Abs format (unit mm)*
G04 Created by KiCad (PCBNEW 9.0.1) date 2025-08-12 13:46:24*
%MOMM*%
%LPD*%
G01*
G04 APERTURE LIST*
%ADD10C,0.100000*%
G04 APERTURE END LIST*
D10*
X127595808Y-85261027D02*
X127595808Y-85641979D01*
X128262475Y-85403884D02*
X127405332Y-85403884D01*
X127405332Y-85403884D02*
X127310094Y-85451503D01*
X127310094Y-85451503D02*
X127262475Y-85546741D01*
X127262475Y-85546741D02*
X127262475Y-85641979D01*
X128262475Y-86118170D02*
X128214856Y-86022932D01*
X128214856Y-86022932D02*
X128167236Y-85975313D01*
X128167236Y-85975313D02*
X128071998Y-85927694D01*
X128071998Y-85927694D02*
X127786284Y-85927694D01*
X127786284Y-85927694D02*
X127691046Y-85975313D01*
X127691046Y-85975313D02*
X127643427Y-86022932D01*
X127643427Y-86022932D02*
X127595808Y-86118170D01*
X127595808Y-86118170D02*
X127595808Y-86261027D01*
X127595808Y-86261027D02*
X127643427Y-86356265D01*
X127643427Y-86356265D02*
X127691046Y-86403884D01*
X127691046Y-86403884D02*
X127786284Y-86451503D01*
X127786284Y-86451503D02*
X128071998Y-86451503D01*
X128071998Y-86451503D02*
X128167236Y-86403884D01*
X128167236Y-86403884D02*
X128214856Y-86356265D01*
X128214856Y-86356265D02*
X128262475Y-86261027D01*
X128262475Y-86261027D02*
X128262475Y-86118170D01*
X127595808Y-86880075D02*
X128262475Y-86880075D01*
X127691046Y-86880075D02*
X127643427Y-86927694D01*
X127643427Y-86927694D02*
X127595808Y-87022932D01*
X127595808Y-87022932D02*
X127595808Y-87165789D01*
X127595808Y-87165789D02*
X127643427Y-87261027D01*
X127643427Y-87261027D02*
X127738665Y-87308646D01*
X127738665Y-87308646D02*
X128262475Y-87308646D01*
X128214856Y-88165789D02*
X128262475Y-88070551D01*
X128262475Y-88070551D02*
X128262475Y-87880075D01*
X128262475Y-87880075D02*
X128214856Y-87784837D01*
X128214856Y-87784837D02*
X128119617Y-87737218D01*
X128119617Y-87737218D02*
X127738665Y-87737218D01*
X127738665Y-87737218D02*
X127643427Y-87784837D01*
X127643427Y-87784837D02*
X127595808Y-87880075D01*
X127595808Y-87880075D02*
X127595808Y-88070551D01*
X127595808Y-88070551D02*
X127643427Y-88165789D01*
X127643427Y-88165789D02*
X127738665Y-88213408D01*
X127738665Y-88213408D02*
X127833903Y-88213408D01*
X127833903Y-88213408D02*
X127929141Y-87737218D01*
X128262475Y-89403885D02*
X127262475Y-89403885D01*
X127643427Y-89403885D02*
X127595808Y-89499123D01*
X127595808Y-89499123D02*
X127595808Y-89689599D01*
X127595808Y-89689599D02*
X127643427Y-89784837D01*
X127643427Y-89784837D02*
X127691046Y-89832456D01*
X127691046Y-89832456D02*
X127786284Y-89880075D01*
X127786284Y-89880075D02*
X128071998Y-89880075D01*
X128071998Y-89880075D02*
X128167236Y-89832456D01*
X128167236Y-89832456D02*
X128214856Y-89784837D01*
X128214856Y-89784837D02*
X128262475Y-89689599D01*
X128262475Y-89689599D02*
X128262475Y-89499123D01*
X128262475Y-89499123D02*
X128214856Y-89403885D01*
X127595808Y-90213409D02*
X128262475Y-90451504D01*
X127595808Y-90689599D02*
X128262475Y-90451504D01*
X128262475Y-90451504D02*
X128500570Y-90356266D01*
X128500570Y-90356266D02*
X128548189Y-90308647D01*
X128548189Y-90308647D02*
X128595808Y-90213409D01*
X128262475Y-91832457D02*
X127262475Y-91832457D01*
X127262475Y-91832457D02*
X127262475Y-92070552D01*
X127262475Y-92070552D02*
X127310094Y-92213409D01*
X127310094Y-92213409D02*
X127405332Y-92308647D01*
X127405332Y-92308647D02*
X127500570Y-92356266D01*
X127500570Y-92356266D02*
X127691046Y-92403885D01*
X127691046Y-92403885D02*
X127833903Y-92403885D01*
X127833903Y-92403885D02*
X128024379Y-92356266D01*
X128024379Y-92356266D02*
X128119617Y-92308647D01*
X128119617Y-92308647D02*
X128214856Y-92213409D01*
X128214856Y-92213409D02*
X128262475Y-92070552D01*
X128262475Y-92070552D02*
X128262475Y-91832457D01*
X128214856Y-93213409D02*
X128262475Y-93118171D01*
X128262475Y-93118171D02*
X128262475Y-92927695D01*
X128262475Y-92927695D02*
X128214856Y-92832457D01*
X128214856Y-92832457D02*
X128119617Y-92784838D01*
X128119617Y-92784838D02*
X127738665Y-92784838D01*
X127738665Y-92784838D02*
X127643427Y-92832457D01*
X127643427Y-92832457D02*
X127595808Y-92927695D01*
X127595808Y-92927695D02*
X127595808Y-93118171D01*
X127595808Y-93118171D02*
X127643427Y-93213409D01*
X127643427Y-93213409D02*
X127738665Y-93261028D01*
X127738665Y-93261028D02*
X127833903Y-93261028D01*
X127833903Y-93261028D02*
X127929141Y-92784838D01*
X127595808Y-93594362D02*
X128262475Y-93832457D01*
X128262475Y-93832457D02*
X127595808Y-94070552D01*
X128262475Y-94594362D02*
X128214856Y-94499124D01*
X128214856Y-94499124D02*
X128167236Y-94451505D01*
X128167236Y-94451505D02*
X128071998Y-94403886D01*
X128071998Y-94403886D02*
X127786284Y-94403886D01*
X127786284Y-94403886D02*
X127691046Y-94451505D01*
X127691046Y-94451505D02*
X127643427Y-94499124D01*
X127643427Y-94499124D02*
X127595808Y-94594362D01*
X127595808Y-94594362D02*
X127595808Y-94737219D01*
X127595808Y-94737219D02*
X127643427Y-94832457D01*
X127643427Y-94832457D02*
X127691046Y-94880076D01*
X127691046Y-94880076D02*
X127786284Y-94927695D01*
X127786284Y-94927695D02*
X128071998Y-94927695D01*
X128071998Y-94927695D02*
X128167236Y-94880076D01*
X128167236Y-94880076D02*
X128214856Y-94832457D01*
X128214856Y-94832457D02*
X128262475Y-94737219D01*
X128262475Y-94737219D02*
X128262475Y-94594362D01*
X127595808Y-95356267D02*
X128262475Y-95356267D01*
X127691046Y-95356267D02*
X127643427Y-95403886D01*
X127643427Y-95403886D02*
X127595808Y-95499124D01*
X127595808Y-95499124D02*
X127595808Y-95641981D01*
X127595808Y-95641981D02*
X127643427Y-95737219D01*
X127643427Y-95737219D02*
X127738665Y-95784838D01*
X127738665Y-95784838D02*
X128262475Y-95784838D01*
X128262475Y-97022934D02*
X127262475Y-97022934D01*
X127262475Y-97022934D02*
X127262475Y-97403886D01*
X127262475Y-97403886D02*
X127310094Y-97499124D01*
X127310094Y-97499124D02*
X127357713Y-97546743D01*
X127357713Y-97546743D02*
X127452951Y-97594362D01*
X127452951Y-97594362D02*
X127595808Y-97594362D01*
X127595808Y-97594362D02*
X127691046Y-97546743D01*
X127691046Y-97546743D02*
X127738665Y-97499124D01*
X127738665Y-97499124D02*
X127786284Y-97403886D01*
X127786284Y-97403886D02*
X127786284Y-97022934D01*
X128214856Y-98403886D02*
X128262475Y-98308648D01*
X128262475Y-98308648D02*
X128262475Y-98118172D01*
X128262475Y-98118172D02*
X128214856Y-98022934D01*
X128214856Y-98022934D02*
X128119617Y-97975315D01*
X128119617Y-97975315D02*
X127738665Y-97975315D01*
X127738665Y-97975315D02*
X127643427Y-98022934D01*
X127643427Y-98022934D02*
X127595808Y-98118172D01*
X127595808Y-98118172D02*
X127595808Y-98308648D01*
X127595808Y-98308648D02*
X127643427Y-98403886D01*
X127643427Y-98403886D02*
X127738665Y-98451505D01*
X127738665Y-98451505D02*
X127833903Y-98451505D01*
X127833903Y-98451505D02*
X127929141Y-97975315D01*
X127595808Y-98737220D02*
X127595808Y-99118172D01*
X127262475Y-98880077D02*
X128119617Y-98880077D01*
X128119617Y-98880077D02*
X128214856Y-98927696D01*
X128214856Y-98927696D02*
X128262475Y-99022934D01*
X128262475Y-99022934D02*
X128262475Y-99118172D01*
X128214856Y-99832458D02*
X128262475Y-99737220D01*
X128262475Y-99737220D02*
X128262475Y-99546744D01*
X128262475Y-99546744D02*
X128214856Y-99451506D01*
X128214856Y-99451506D02*
X128119617Y-99403887D01*
X128119617Y-99403887D02*
X127738665Y-99403887D01*
X127738665Y-99403887D02*
X127643427Y-99451506D01*
X127643427Y-99451506D02*
X127595808Y-99546744D01*
X127595808Y-99546744D02*
X127595808Y-99737220D01*
X127595808Y-99737220D02*
X127643427Y-99832458D01*
X127643427Y-99832458D02*
X127738665Y-99880077D01*
X127738665Y-99880077D02*
X127833903Y-99880077D01*
X127833903Y-99880077D02*
X127929141Y-99403887D01*
X128262475Y-100308649D02*
X127595808Y-100308649D01*
X127786284Y-100308649D02*
X127691046Y-100356268D01*
X127691046Y-100356268D02*
X127643427Y-100403887D01*
X127643427Y-100403887D02*
X127595808Y-100499125D01*
X127595808Y-100499125D02*
X127595808Y-100594363D01*
X128214856Y-100880078D02*
X128262475Y-100975316D01*
X128262475Y-100975316D02*
X128262475Y-101165792D01*
X128262475Y-101165792D02*
X128214856Y-101261030D01*
X128214856Y-101261030D02*
X128119617Y-101308649D01*
X128119617Y-101308649D02*
X128071998Y-101308649D01*
X128071998Y-101308649D02*
X127976760Y-101261030D01*
X127976760Y-101261030D02*
X127929141Y-101165792D01*
X127929141Y-101165792D02*
X127929141Y-101022935D01*
X127929141Y-101022935D02*
X127881522Y-100927697D01*
X127881522Y-100927697D02*
X127786284Y-100880078D01*
X127786284Y-100880078D02*
X127738665Y-100880078D01*
X127738665Y-100880078D02*
X127643427Y-100927697D01*
X127643427Y-100927697D02*
X127595808Y-101022935D01*
X127595808Y-101022935D02*
X127595808Y-101165792D01*
X127595808Y-101165792D02*
X127643427Y-101261030D01*
X128262475Y-101880078D02*
X128214856Y-101784840D01*
X128214856Y-101784840D02*
X128167236Y-101737221D01*
X128167236Y-101737221D02*
X128071998Y-101689602D01*
X128071998Y-101689602D02*
X127786284Y-101689602D01*
X127786284Y-101689602D02*
X127691046Y-101737221D01*
X127691046Y-101737221D02*
X127643427Y-101784840D01*
X127643427Y-101784840D02*
X127595808Y-101880078D01*
X127595808Y-101880078D02*
X127595808Y-102022935D01*
X127595808Y-102022935D02*
X127643427Y-102118173D01*
X127643427Y-102118173D02*
X127691046Y-102165792D01*
X127691046Y-102165792D02*
X127786284Y-102213411D01*
X127786284Y-102213411D02*
X128071998Y-102213411D01*
X128071998Y-102213411D02*
X128167236Y-102165792D01*
X128167236Y-102165792D02*
X128214856Y-102118173D01*
X128214856Y-102118173D02*
X128262475Y-102022935D01*
X128262475Y-102022935D02*
X128262475Y-101880078D01*
X127595808Y-102641983D02*
X128262475Y-102641983D01*
X127691046Y-102641983D02*
X127643427Y-102689602D01*
X127643427Y-102689602D02*
X127595808Y-102784840D01*
X127595808Y-102784840D02*
X127595808Y-102927697D01*
X127595808Y-102927697D02*
X127643427Y-103022935D01*
X127643427Y-103022935D02*
X127738665Y-103070554D01*
X127738665Y-103070554D02*
X128262475Y-103070554D01*
X129872419Y-85403884D02*
X129205752Y-85403884D01*
X129396228Y-85403884D02*
X129300990Y-85451503D01*
X129300990Y-85451503D02*
X129253371Y-85499122D01*
X129253371Y-85499122D02*
X129205752Y-85594360D01*
X129205752Y-85594360D02*
X129205752Y-85689598D01*
X129824800Y-86403884D02*
X129872419Y-86308646D01*
X129872419Y-86308646D02*
X129872419Y-86118170D01*
X129872419Y-86118170D02*
X129824800Y-86022932D01*
X129824800Y-86022932D02*
X129729561Y-85975313D01*
X129729561Y-85975313D02*
X129348609Y-85975313D01*
X129348609Y-85975313D02*
X129253371Y-86022932D01*
X129253371Y-86022932D02*
X129205752Y-86118170D01*
X129205752Y-86118170D02*
X129205752Y-86308646D01*
X129205752Y-86308646D02*
X129253371Y-86403884D01*
X129253371Y-86403884D02*
X129348609Y-86451503D01*
X129348609Y-86451503D02*
X129443847Y-86451503D01*
X129443847Y-86451503D02*
X129539085Y-85975313D01*
X129205752Y-86784837D02*
X129872419Y-87022932D01*
X129872419Y-87022932D02*
X129205752Y-87261027D01*
X129872419Y-87641980D02*
X129205752Y-87641980D01*
X128872419Y-87641980D02*
X128920038Y-87594361D01*
X128920038Y-87594361D02*
X128967657Y-87641980D01*
X128967657Y-87641980D02*
X128920038Y-87689599D01*
X128920038Y-87689599D02*
X128872419Y-87641980D01*
X128872419Y-87641980D02*
X128967657Y-87641980D01*
X129824800Y-88070551D02*
X129872419Y-88165789D01*
X129872419Y-88165789D02*
X129872419Y-88356265D01*
X129872419Y-88356265D02*
X129824800Y-88451503D01*
X129824800Y-88451503D02*
X129729561Y-88499122D01*
X129729561Y-88499122D02*
X129681942Y-88499122D01*
X129681942Y-88499122D02*
X129586704Y-88451503D01*
X129586704Y-88451503D02*
X129539085Y-88356265D01*
X129539085Y-88356265D02*
X129539085Y-88213408D01*
X129539085Y-88213408D02*
X129491466Y-88118170D01*
X129491466Y-88118170D02*
X129396228Y-88070551D01*
X129396228Y-88070551D02*
X129348609Y-88070551D01*
X129348609Y-88070551D02*
X129253371Y-88118170D01*
X129253371Y-88118170D02*
X129205752Y-88213408D01*
X129205752Y-88213408D02*
X129205752Y-88356265D01*
X129205752Y-88356265D02*
X129253371Y-88451503D01*
X129872419Y-88927694D02*
X129205752Y-88927694D01*
X128872419Y-88927694D02*
X128920038Y-88880075D01*
X128920038Y-88880075D02*
X128967657Y-88927694D01*
X128967657Y-88927694D02*
X128920038Y-88975313D01*
X128920038Y-88975313D02*
X128872419Y-88927694D01*
X128872419Y-88927694D02*
X128967657Y-88927694D01*
X129872419Y-89546741D02*
X129824800Y-89451503D01*
X129824800Y-89451503D02*
X129777180Y-89403884D01*
X129777180Y-89403884D02*
X129681942Y-89356265D01*
X129681942Y-89356265D02*
X129396228Y-89356265D01*
X129396228Y-89356265D02*
X129300990Y-89403884D01*
X129300990Y-89403884D02*
X129253371Y-89451503D01*
X129253371Y-89451503D02*
X129205752Y-89546741D01*
X129205752Y-89546741D02*
X129205752Y-89689598D01*
X129205752Y-89689598D02*
X129253371Y-89784836D01*
X129253371Y-89784836D02*
X129300990Y-89832455D01*
X129300990Y-89832455D02*
X129396228Y-89880074D01*
X129396228Y-89880074D02*
X129681942Y-89880074D01*
X129681942Y-89880074D02*
X129777180Y-89832455D01*
X129777180Y-89832455D02*
X129824800Y-89784836D01*
X129824800Y-89784836D02*
X129872419Y-89689598D01*
X129872419Y-89689598D02*
X129872419Y-89546741D01*
X129205752Y-90308646D02*
X129872419Y-90308646D01*
X129300990Y-90308646D02*
X129253371Y-90356265D01*
X129253371Y-90356265D02*
X129205752Y-90451503D01*
X129205752Y-90451503D02*
X129205752Y-90594360D01*
X129205752Y-90594360D02*
X129253371Y-90689598D01*
X129253371Y-90689598D02*
X129348609Y-90737217D01*
X129348609Y-90737217D02*
X129872419Y-90737217D01*
X128872419Y-92165789D02*
X128872419Y-92261027D01*
X128872419Y-92261027D02*
X128920038Y-92356265D01*
X128920038Y-92356265D02*
X128967657Y-92403884D01*
X128967657Y-92403884D02*
X129062895Y-92451503D01*
X129062895Y-92451503D02*
X129253371Y-92499122D01*
X129253371Y-92499122D02*
X129491466Y-92499122D01*
X129491466Y-92499122D02*
X129681942Y-92451503D01*
X129681942Y-92451503D02*
X129777180Y-92403884D01*
X129777180Y-92403884D02*
X129824800Y-92356265D01*
X129824800Y-92356265D02*
X129872419Y-92261027D01*
X129872419Y-92261027D02*
X129872419Y-92165789D01*
X129872419Y-92165789D02*
X129824800Y-92070551D01*
X129824800Y-92070551D02*
X129777180Y-92022932D01*
X129777180Y-92022932D02*
X129681942Y-91975313D01*
X129681942Y-91975313D02*
X129491466Y-91927694D01*
X129491466Y-91927694D02*
X129253371Y-91927694D01*
X129253371Y-91927694D02*
X129062895Y-91975313D01*
X129062895Y-91975313D02*
X128967657Y-92022932D01*
X128967657Y-92022932D02*
X128920038Y-92070551D01*
X128920038Y-92070551D02*
X128872419Y-92165789D01*
X129777180Y-92927694D02*
X129824800Y-92975313D01*
X129824800Y-92975313D02*
X129872419Y-92927694D01*
X129872419Y-92927694D02*
X129824800Y-92880075D01*
X129824800Y-92880075D02*
X129777180Y-92927694D01*
X129777180Y-92927694D02*
X129872419Y-92927694D01*
X128872419Y-93880074D02*
X128872419Y-93403884D01*
X128872419Y-93403884D02*
X129348609Y-93356265D01*
X129348609Y-93356265D02*
X129300990Y-93403884D01*
X129300990Y-93403884D02*
X129253371Y-93499122D01*
X129253371Y-93499122D02*
X129253371Y-93737217D01*
X129253371Y-93737217D02*
X129300990Y-93832455D01*
X129300990Y-93832455D02*
X129348609Y-93880074D01*
X129348609Y-93880074D02*
X129443847Y-93927693D01*
X129443847Y-93927693D02*
X129681942Y-93927693D01*
X129681942Y-93927693D02*
X129777180Y-93880074D01*
X129777180Y-93880074D02*
X129824800Y-93832455D01*
X129824800Y-93832455D02*
X129872419Y-93737217D01*
X129872419Y-93737217D02*
X129872419Y-93499122D01*
X129872419Y-93499122D02*
X129824800Y-93403884D01*
X129824800Y-93403884D02*
X129777180Y-93356265D01*
M02*
