%TF.GenerationSoftware,KiCad,Pcbnew,9.0.1*%
%TF.CreationDate,2025-08-12T13:46:24-07:00*%
%TF.ProjectId,fone,666f6e65-2e6b-4696-9361-645f70636258,0.5*%
%TF.SameCoordinates,Original*%
%TF.FileFunction,Legend,Top*%
%TF.FilePolarity,Positive*%
%FSLAX46Y46*%
G04 Gerber Fmt 4.6, Leading zero omitted, Abs format (unit mm)*
G04 Created by KiCad (PCBNEW 9.0.1) date 2025-08-12 13:46:24*
%MOMM*%
%LPD*%
G01*
G04 APERTURE LIST*
%ADD10C,0.150000*%
%ADD11C,0.120000*%
G04 APERTURE END LIST*
D10*
X145154819Y-115609523D02*
X144154819Y-115609523D01*
X144154819Y-115609523D02*
X144869104Y-115276190D01*
X144869104Y-115276190D02*
X144154819Y-114942857D01*
X144154819Y-114942857D02*
X145154819Y-114942857D01*
X145154819Y-113942857D02*
X145154819Y-114514285D01*
X145154819Y-114228571D02*
X144154819Y-114228571D01*
X144154819Y-114228571D02*
X144297676Y-114323809D01*
X144297676Y-114323809D02*
X144392914Y-114419047D01*
X144392914Y-114419047D02*
X144440533Y-114514285D01*
X118519819Y-93674404D02*
X119329342Y-93674404D01*
X119329342Y-93674404D02*
X119424580Y-93626785D01*
X119424580Y-93626785D02*
X119472200Y-93579166D01*
X119472200Y-93579166D02*
X119519819Y-93483928D01*
X119519819Y-93483928D02*
X119519819Y-93293452D01*
X119519819Y-93293452D02*
X119472200Y-93198214D01*
X119472200Y-93198214D02*
X119424580Y-93150595D01*
X119424580Y-93150595D02*
X119329342Y-93102976D01*
X119329342Y-93102976D02*
X118519819Y-93102976D01*
X119519819Y-92102976D02*
X119519819Y-92674404D01*
X119519819Y-92388690D02*
X118519819Y-92388690D01*
X118519819Y-92388690D02*
X118662676Y-92483928D01*
X118662676Y-92483928D02*
X118757914Y-92579166D01*
X118757914Y-92579166D02*
X118805533Y-92674404D01*
X152933333Y-71704819D02*
X152600000Y-71228628D01*
X152361905Y-71704819D02*
X152361905Y-70704819D01*
X152361905Y-70704819D02*
X152742857Y-70704819D01*
X152742857Y-70704819D02*
X152838095Y-70752438D01*
X152838095Y-70752438D02*
X152885714Y-70800057D01*
X152885714Y-70800057D02*
X152933333Y-70895295D01*
X152933333Y-70895295D02*
X152933333Y-71038152D01*
X152933333Y-71038152D02*
X152885714Y-71133390D01*
X152885714Y-71133390D02*
X152838095Y-71181009D01*
X152838095Y-71181009D02*
X152742857Y-71228628D01*
X152742857Y-71228628D02*
X152361905Y-71228628D01*
X153790476Y-71038152D02*
X153790476Y-71704819D01*
X153552381Y-70657200D02*
X153314286Y-71371485D01*
X153314286Y-71371485D02*
X153933333Y-71371485D01*
X150133333Y-77854819D02*
X149800000Y-77378628D01*
X149561905Y-77854819D02*
X149561905Y-76854819D01*
X149561905Y-76854819D02*
X149942857Y-76854819D01*
X149942857Y-76854819D02*
X150038095Y-76902438D01*
X150038095Y-76902438D02*
X150085714Y-76950057D01*
X150085714Y-76950057D02*
X150133333Y-77045295D01*
X150133333Y-77045295D02*
X150133333Y-77188152D01*
X150133333Y-77188152D02*
X150085714Y-77283390D01*
X150085714Y-77283390D02*
X150038095Y-77331009D01*
X150038095Y-77331009D02*
X149942857Y-77378628D01*
X149942857Y-77378628D02*
X149561905Y-77378628D01*
X150466667Y-76854819D02*
X151085714Y-76854819D01*
X151085714Y-76854819D02*
X150752381Y-77235771D01*
X150752381Y-77235771D02*
X150895238Y-77235771D01*
X150895238Y-77235771D02*
X150990476Y-77283390D01*
X150990476Y-77283390D02*
X151038095Y-77331009D01*
X151038095Y-77331009D02*
X151085714Y-77426247D01*
X151085714Y-77426247D02*
X151085714Y-77664342D01*
X151085714Y-77664342D02*
X151038095Y-77759580D01*
X151038095Y-77759580D02*
X150990476Y-77807200D01*
X150990476Y-77807200D02*
X150895238Y-77854819D01*
X150895238Y-77854819D02*
X150609524Y-77854819D01*
X150609524Y-77854819D02*
X150514286Y-77807200D01*
X150514286Y-77807200D02*
X150466667Y-77759580D01*
X119704819Y-85779166D02*
X119228628Y-86112499D01*
X119704819Y-86350594D02*
X118704819Y-86350594D01*
X118704819Y-86350594D02*
X118704819Y-85969642D01*
X118704819Y-85969642D02*
X118752438Y-85874404D01*
X118752438Y-85874404D02*
X118800057Y-85826785D01*
X118800057Y-85826785D02*
X118895295Y-85779166D01*
X118895295Y-85779166D02*
X119038152Y-85779166D01*
X119038152Y-85779166D02*
X119133390Y-85826785D01*
X119133390Y-85826785D02*
X119181009Y-85874404D01*
X119181009Y-85874404D02*
X119228628Y-85969642D01*
X119228628Y-85969642D02*
X119228628Y-86350594D01*
X118800057Y-85398213D02*
X118752438Y-85350594D01*
X118752438Y-85350594D02*
X118704819Y-85255356D01*
X118704819Y-85255356D02*
X118704819Y-85017261D01*
X118704819Y-85017261D02*
X118752438Y-84922023D01*
X118752438Y-84922023D02*
X118800057Y-84874404D01*
X118800057Y-84874404D02*
X118895295Y-84826785D01*
X118895295Y-84826785D02*
X118990533Y-84826785D01*
X118990533Y-84826785D02*
X119133390Y-84874404D01*
X119133390Y-84874404D02*
X119704819Y-85445832D01*
X119704819Y-85445832D02*
X119704819Y-84826785D01*
X119169819Y-100279166D02*
X118693628Y-100612499D01*
X119169819Y-100850594D02*
X118169819Y-100850594D01*
X118169819Y-100850594D02*
X118169819Y-100469642D01*
X118169819Y-100469642D02*
X118217438Y-100374404D01*
X118217438Y-100374404D02*
X118265057Y-100326785D01*
X118265057Y-100326785D02*
X118360295Y-100279166D01*
X118360295Y-100279166D02*
X118503152Y-100279166D01*
X118503152Y-100279166D02*
X118598390Y-100326785D01*
X118598390Y-100326785D02*
X118646009Y-100374404D01*
X118646009Y-100374404D02*
X118693628Y-100469642D01*
X118693628Y-100469642D02*
X118693628Y-100850594D01*
X119169819Y-99326785D02*
X119169819Y-99898213D01*
X119169819Y-99612499D02*
X118169819Y-99612499D01*
X118169819Y-99612499D02*
X118312676Y-99707737D01*
X118312676Y-99707737D02*
X118407914Y-99802975D01*
X118407914Y-99802975D02*
X118455533Y-99898213D01*
X131666666Y-120604819D02*
X131666666Y-121319104D01*
X131666666Y-121319104D02*
X131619047Y-121461961D01*
X131619047Y-121461961D02*
X131523809Y-121557200D01*
X131523809Y-121557200D02*
X131380952Y-121604819D01*
X131380952Y-121604819D02*
X131285714Y-121604819D01*
X132571428Y-120604819D02*
X132380952Y-120604819D01*
X132380952Y-120604819D02*
X132285714Y-120652438D01*
X132285714Y-120652438D02*
X132238095Y-120700057D01*
X132238095Y-120700057D02*
X132142857Y-120842914D01*
X132142857Y-120842914D02*
X132095238Y-121033390D01*
X132095238Y-121033390D02*
X132095238Y-121414342D01*
X132095238Y-121414342D02*
X132142857Y-121509580D01*
X132142857Y-121509580D02*
X132190476Y-121557200D01*
X132190476Y-121557200D02*
X132285714Y-121604819D01*
X132285714Y-121604819D02*
X132476190Y-121604819D01*
X132476190Y-121604819D02*
X132571428Y-121557200D01*
X132571428Y-121557200D02*
X132619047Y-121509580D01*
X132619047Y-121509580D02*
X132666666Y-121414342D01*
X132666666Y-121414342D02*
X132666666Y-121176247D01*
X132666666Y-121176247D02*
X132619047Y-121081009D01*
X132619047Y-121081009D02*
X132571428Y-121033390D01*
X132571428Y-121033390D02*
X132476190Y-120985771D01*
X132476190Y-120985771D02*
X132285714Y-120985771D01*
X132285714Y-120985771D02*
X132190476Y-121033390D01*
X132190476Y-121033390D02*
X132142857Y-121081009D01*
X132142857Y-121081009D02*
X132095238Y-121176247D01*
X151054819Y-102733333D02*
X151769104Y-102733333D01*
X151769104Y-102733333D02*
X151911961Y-102780952D01*
X151911961Y-102780952D02*
X152007200Y-102876190D01*
X152007200Y-102876190D02*
X152054819Y-103019047D01*
X152054819Y-103019047D02*
X152054819Y-103114285D01*
X151054819Y-101780952D02*
X151054819Y-102257142D01*
X151054819Y-102257142D02*
X151531009Y-102304761D01*
X151531009Y-102304761D02*
X151483390Y-102257142D01*
X151483390Y-102257142D02*
X151435771Y-102161904D01*
X151435771Y-102161904D02*
X151435771Y-101923809D01*
X151435771Y-101923809D02*
X151483390Y-101828571D01*
X151483390Y-101828571D02*
X151531009Y-101780952D01*
X151531009Y-101780952D02*
X151626247Y-101733333D01*
X151626247Y-101733333D02*
X151864342Y-101733333D01*
X151864342Y-101733333D02*
X151959580Y-101780952D01*
X151959580Y-101780952D02*
X152007200Y-101828571D01*
X152007200Y-101828571D02*
X152054819Y-101923809D01*
X152054819Y-101923809D02*
X152054819Y-102161904D01*
X152054819Y-102161904D02*
X152007200Y-102257142D01*
X152007200Y-102257142D02*
X151959580Y-102304761D01*
X144154819Y-87733333D02*
X144869104Y-87733333D01*
X144869104Y-87733333D02*
X145011961Y-87780952D01*
X145011961Y-87780952D02*
X145107200Y-87876190D01*
X145107200Y-87876190D02*
X145154819Y-88019047D01*
X145154819Y-88019047D02*
X145154819Y-88114285D01*
X144488152Y-86828571D02*
X145154819Y-86828571D01*
X144107200Y-87066666D02*
X144821485Y-87304761D01*
X144821485Y-87304761D02*
X144821485Y-86685714D01*
X118519819Y-111645833D02*
X119234104Y-111645833D01*
X119234104Y-111645833D02*
X119376961Y-111693452D01*
X119376961Y-111693452D02*
X119472200Y-111788690D01*
X119472200Y-111788690D02*
X119519819Y-111931547D01*
X119519819Y-111931547D02*
X119519819Y-112026785D01*
X118519819Y-111264880D02*
X118519819Y-110645833D01*
X118519819Y-110645833D02*
X118900771Y-110979166D01*
X118900771Y-110979166D02*
X118900771Y-110836309D01*
X118900771Y-110836309D02*
X118948390Y-110741071D01*
X118948390Y-110741071D02*
X118996009Y-110693452D01*
X118996009Y-110693452D02*
X119091247Y-110645833D01*
X119091247Y-110645833D02*
X119329342Y-110645833D01*
X119329342Y-110645833D02*
X119424580Y-110693452D01*
X119424580Y-110693452D02*
X119472200Y-110741071D01*
X119472200Y-110741071D02*
X119519819Y-110836309D01*
X119519819Y-110836309D02*
X119519819Y-111122023D01*
X119519819Y-111122023D02*
X119472200Y-111217261D01*
X119472200Y-111217261D02*
X119424580Y-111264880D01*
X143954819Y-72633333D02*
X144669104Y-72633333D01*
X144669104Y-72633333D02*
X144811961Y-72680952D01*
X144811961Y-72680952D02*
X144907200Y-72776190D01*
X144907200Y-72776190D02*
X144954819Y-72919047D01*
X144954819Y-72919047D02*
X144954819Y-73014285D01*
X144050057Y-72204761D02*
X144002438Y-72157142D01*
X144002438Y-72157142D02*
X143954819Y-72061904D01*
X143954819Y-72061904D02*
X143954819Y-71823809D01*
X143954819Y-71823809D02*
X144002438Y-71728571D01*
X144002438Y-71728571D02*
X144050057Y-71680952D01*
X144050057Y-71680952D02*
X144145295Y-71633333D01*
X144145295Y-71633333D02*
X144240533Y-71633333D01*
X144240533Y-71633333D02*
X144383390Y-71680952D01*
X144383390Y-71680952D02*
X144954819Y-72252380D01*
X144954819Y-72252380D02*
X144954819Y-71633333D01*
X111719819Y-74845833D02*
X112434104Y-74845833D01*
X112434104Y-74845833D02*
X112576961Y-74893452D01*
X112576961Y-74893452D02*
X112672200Y-74988690D01*
X112672200Y-74988690D02*
X112719819Y-75131547D01*
X112719819Y-75131547D02*
X112719819Y-75226785D01*
X112719819Y-73845833D02*
X112719819Y-74417261D01*
X112719819Y-74131547D02*
X111719819Y-74131547D01*
X111719819Y-74131547D02*
X111862676Y-74226785D01*
X111862676Y-74226785D02*
X111957914Y-74322023D01*
X111957914Y-74322023D02*
X112005533Y-74417261D01*
X152933333Y-80459580D02*
X152885714Y-80507200D01*
X152885714Y-80507200D02*
X152742857Y-80554819D01*
X152742857Y-80554819D02*
X152647619Y-80554819D01*
X152647619Y-80554819D02*
X152504762Y-80507200D01*
X152504762Y-80507200D02*
X152409524Y-80411961D01*
X152409524Y-80411961D02*
X152361905Y-80316723D01*
X152361905Y-80316723D02*
X152314286Y-80126247D01*
X152314286Y-80126247D02*
X152314286Y-79983390D01*
X152314286Y-79983390D02*
X152361905Y-79792914D01*
X152361905Y-79792914D02*
X152409524Y-79697676D01*
X152409524Y-79697676D02*
X152504762Y-79602438D01*
X152504762Y-79602438D02*
X152647619Y-79554819D01*
X152647619Y-79554819D02*
X152742857Y-79554819D01*
X152742857Y-79554819D02*
X152885714Y-79602438D01*
X152885714Y-79602438D02*
X152933333Y-79650057D01*
X153266667Y-79554819D02*
X153885714Y-79554819D01*
X153885714Y-79554819D02*
X153552381Y-79935771D01*
X153552381Y-79935771D02*
X153695238Y-79935771D01*
X153695238Y-79935771D02*
X153790476Y-79983390D01*
X153790476Y-79983390D02*
X153838095Y-80031009D01*
X153838095Y-80031009D02*
X153885714Y-80126247D01*
X153885714Y-80126247D02*
X153885714Y-80364342D01*
X153885714Y-80364342D02*
X153838095Y-80459580D01*
X153838095Y-80459580D02*
X153790476Y-80507200D01*
X153790476Y-80507200D02*
X153695238Y-80554819D01*
X153695238Y-80554819D02*
X153409524Y-80554819D01*
X153409524Y-80554819D02*
X153314286Y-80507200D01*
X153314286Y-80507200D02*
X153266667Y-80459580D01*
X147033333Y-78579580D02*
X146985714Y-78627200D01*
X146985714Y-78627200D02*
X146842857Y-78674819D01*
X146842857Y-78674819D02*
X146747619Y-78674819D01*
X146747619Y-78674819D02*
X146604762Y-78627200D01*
X146604762Y-78627200D02*
X146509524Y-78531961D01*
X146509524Y-78531961D02*
X146461905Y-78436723D01*
X146461905Y-78436723D02*
X146414286Y-78246247D01*
X146414286Y-78246247D02*
X146414286Y-78103390D01*
X146414286Y-78103390D02*
X146461905Y-77912914D01*
X146461905Y-77912914D02*
X146509524Y-77817676D01*
X146509524Y-77817676D02*
X146604762Y-77722438D01*
X146604762Y-77722438D02*
X146747619Y-77674819D01*
X146747619Y-77674819D02*
X146842857Y-77674819D01*
X146842857Y-77674819D02*
X146985714Y-77722438D01*
X146985714Y-77722438D02*
X147033333Y-77770057D01*
X147414286Y-77770057D02*
X147461905Y-77722438D01*
X147461905Y-77722438D02*
X147557143Y-77674819D01*
X147557143Y-77674819D02*
X147795238Y-77674819D01*
X147795238Y-77674819D02*
X147890476Y-77722438D01*
X147890476Y-77722438D02*
X147938095Y-77770057D01*
X147938095Y-77770057D02*
X147985714Y-77865295D01*
X147985714Y-77865295D02*
X147985714Y-77960533D01*
X147985714Y-77960533D02*
X147938095Y-78103390D01*
X147938095Y-78103390D02*
X147366667Y-78674819D01*
X147366667Y-78674819D02*
X147985714Y-78674819D01*
X112179580Y-85666666D02*
X112227200Y-85714285D01*
X112227200Y-85714285D02*
X112274819Y-85857142D01*
X112274819Y-85857142D02*
X112274819Y-85952380D01*
X112274819Y-85952380D02*
X112227200Y-86095237D01*
X112227200Y-86095237D02*
X112131961Y-86190475D01*
X112131961Y-86190475D02*
X112036723Y-86238094D01*
X112036723Y-86238094D02*
X111846247Y-86285713D01*
X111846247Y-86285713D02*
X111703390Y-86285713D01*
X111703390Y-86285713D02*
X111512914Y-86238094D01*
X111512914Y-86238094D02*
X111417676Y-86190475D01*
X111417676Y-86190475D02*
X111322438Y-86095237D01*
X111322438Y-86095237D02*
X111274819Y-85952380D01*
X111274819Y-85952380D02*
X111274819Y-85857142D01*
X111274819Y-85857142D02*
X111322438Y-85714285D01*
X111322438Y-85714285D02*
X111370057Y-85666666D01*
X112274819Y-84714285D02*
X112274819Y-85285713D01*
X112274819Y-84999999D02*
X111274819Y-84999999D01*
X111274819Y-84999999D02*
X111417676Y-85095237D01*
X111417676Y-85095237D02*
X111512914Y-85190475D01*
X111512914Y-85190475D02*
X111560533Y-85285713D01*
X146189160Y-118769104D02*
X146665350Y-118769104D01*
X146093922Y-119054819D02*
X146427255Y-118054819D01*
X146427255Y-118054819D02*
X146760588Y-119054819D01*
X147617731Y-119054819D02*
X147046303Y-119054819D01*
X147332017Y-119054819D02*
X147332017Y-118054819D01*
X147332017Y-118054819D02*
X147236779Y-118197676D01*
X147236779Y-118197676D02*
X147141541Y-118292914D01*
X147141541Y-118292914D02*
X147046303Y-118340533D01*
D11*
%TO.C,U1*%
X118225000Y-90152500D02*
X117955000Y-90152500D01*
X112705000Y-90152500D02*
X112975000Y-90152500D01*
X118225000Y-92912500D02*
X118225000Y-90152500D01*
X118225000Y-92912500D02*
X118225000Y-95672500D01*
X112705000Y-92912500D02*
X112705000Y-90152500D01*
X112705000Y-92912500D02*
X112705000Y-95672500D01*
X118225000Y-95672500D02*
X117955000Y-95672500D01*
X112705000Y-95672500D02*
X112975000Y-95672500D01*
X118285000Y-89627500D02*
X117955000Y-89387500D01*
X118285000Y-89147500D01*
X118285000Y-89627500D01*
G36*
X118285000Y-89627500D02*
G01*
X117955000Y-89387500D01*
X118285000Y-89147500D01*
X118285000Y-89627500D01*
G37*
%TO.C,R4*%
X152872936Y-72165000D02*
X153327064Y-72165000D01*
X152872936Y-73635000D02*
X153327064Y-73635000D01*
%TO.C,R3*%
X153327064Y-76435000D02*
X152872936Y-76435000D01*
X153327064Y-74965000D02*
X152872936Y-74965000D01*
%TO.C,R2*%
X118335000Y-85385436D02*
X118335000Y-85839564D01*
X116865000Y-85385436D02*
X116865000Y-85839564D01*
%TO.C,R1*%
X117800000Y-99885436D02*
X117800000Y-100339564D01*
X116330000Y-99885436D02*
X116330000Y-100339564D01*
%TO.C,J6*%
X122640000Y-121940000D02*
X122640000Y-123190000D01*
X122940000Y-122240000D02*
X122940000Y-126960000D01*
X122940000Y-123550000D02*
X123550000Y-123550000D01*
X122940000Y-124850000D02*
X123550000Y-124850000D01*
X122940000Y-126960000D02*
X141060000Y-126960000D01*
X123550000Y-122850000D02*
X123550000Y-126350000D01*
X123550000Y-126350000D02*
X140450000Y-126350000D01*
X123890000Y-121940000D02*
X122640000Y-121940000D01*
X124400000Y-122040000D02*
X124400000Y-122240000D01*
X124700000Y-122040000D02*
X124400000Y-122040000D01*
X124700000Y-122140000D02*
X124400000Y-122140000D01*
X124700000Y-122240000D02*
X124700000Y-122040000D01*
X125500000Y-122240000D02*
X125500000Y-122850000D01*
X125500000Y-122850000D02*
X123550000Y-122850000D01*
X125900000Y-125850000D02*
X126100000Y-125850000D01*
X125900000Y-126350000D02*
X125900000Y-125850000D01*
X126000000Y-126350000D02*
X126000000Y-125850000D01*
X126100000Y-125850000D02*
X126100000Y-126350000D01*
X127900000Y-125850000D02*
X128100000Y-125850000D01*
X127900000Y-126350000D02*
X127900000Y-125850000D01*
X128000000Y-126350000D02*
X128000000Y-125850000D01*
X128100000Y-125850000D02*
X128100000Y-126350000D01*
X129900000Y-125850000D02*
X130100000Y-125850000D01*
X129900000Y-126350000D02*
X129900000Y-125850000D01*
X130000000Y-126350000D02*
X130000000Y-125850000D01*
X130100000Y-125850000D02*
X130100000Y-126350000D01*
X131900000Y-125850000D02*
X132100000Y-125850000D01*
X131900000Y-126350000D02*
X131900000Y-125850000D01*
X132000000Y-126350000D02*
X132000000Y-125850000D01*
X132100000Y-125850000D02*
X132100000Y-126350000D01*
X133900000Y-125850000D02*
X134100000Y-125850000D01*
X133900000Y-126350000D02*
X133900000Y-125850000D01*
X134000000Y-126350000D02*
X134000000Y-125850000D01*
X134100000Y-125850000D02*
X134100000Y-126350000D01*
X135900000Y-125850000D02*
X136100000Y-125850000D01*
X135900000Y-126350000D02*
X135900000Y-125850000D01*
X136000000Y-126350000D02*
X136000000Y-125850000D01*
X136100000Y-125850000D02*
X136100000Y-126350000D01*
X137900000Y-125850000D02*
X138100000Y-125850000D01*
X137900000Y-126350000D02*
X137900000Y-125850000D01*
X138000000Y-126350000D02*
X138000000Y-125850000D01*
X138100000Y-125850000D02*
X138100000Y-126350000D01*
X138500000Y-122850000D02*
X138500000Y-122240000D01*
X140450000Y-122850000D02*
X138500000Y-122850000D01*
X140450000Y-126350000D02*
X140450000Y-122850000D01*
X141060000Y-122240000D02*
X122940000Y-122240000D01*
X141060000Y-123550000D02*
X140450000Y-123550000D01*
X141060000Y-124850000D02*
X140450000Y-124850000D01*
X141060000Y-126960000D02*
X141060000Y-122240000D01*
%TO.C,J5*%
X150810000Y-94040000D02*
X149560000Y-94040000D01*
X150510000Y-94340000D02*
X145790000Y-94340000D01*
X149200000Y-94340000D02*
X149200000Y-94950000D01*
X147900000Y-94340000D02*
X147900000Y-94950000D01*
X145790000Y-94340000D02*
X145790000Y-110460000D01*
X149900000Y-94950000D02*
X146400000Y-94950000D01*
X146400000Y-94950000D02*
X146400000Y-109850000D01*
X150810000Y-95290000D02*
X150810000Y-94040000D01*
X150710000Y-95800000D02*
X150510000Y-95800000D01*
X150710000Y-96100000D02*
X150710000Y-95800000D01*
X150610000Y-96100000D02*
X150610000Y-95800000D01*
X150510000Y-96100000D02*
X150710000Y-96100000D01*
X150510000Y-96900000D02*
X149900000Y-96900000D01*
X149900000Y-96900000D02*
X149900000Y-94950000D01*
X146900000Y-97300000D02*
X146900000Y-97500000D01*
X146400000Y-97300000D02*
X146900000Y-97300000D01*
X146400000Y-97400000D02*
X146900000Y-97400000D01*
X146900000Y-97500000D02*
X146400000Y-97500000D01*
X146900000Y-99300000D02*
X146900000Y-99500000D01*
X146400000Y-99300000D02*
X146900000Y-99300000D01*
X146400000Y-99400000D02*
X146900000Y-99400000D01*
X146900000Y-99500000D02*
X146400000Y-99500000D01*
X146900000Y-101300000D02*
X146900000Y-101500000D01*
X146400000Y-101300000D02*
X146900000Y-101300000D01*
X146400000Y-101400000D02*
X146900000Y-101400000D01*
X146900000Y-101500000D02*
X146400000Y-101500000D01*
X146900000Y-103300000D02*
X146900000Y-103500000D01*
X146400000Y-103300000D02*
X146900000Y-103300000D01*
X146400000Y-103400000D02*
X146900000Y-103400000D01*
X146900000Y-103500000D02*
X146400000Y-103500000D01*
X146900000Y-105300000D02*
X146900000Y-105500000D01*
X146400000Y-105300000D02*
X146900000Y-105300000D01*
X146400000Y-105400000D02*
X146900000Y-105400000D01*
X146900000Y-105500000D02*
X146400000Y-105500000D01*
X146900000Y-107300000D02*
X146900000Y-107500000D01*
X146400000Y-107300000D02*
X146900000Y-107300000D01*
X146400000Y-107400000D02*
X146900000Y-107400000D01*
X146900000Y-107500000D02*
X146400000Y-107500000D01*
X149900000Y-107900000D02*
X150510000Y-107900000D01*
X149900000Y-109850000D02*
X149900000Y-107900000D01*
X146400000Y-109850000D02*
X149900000Y-109850000D01*
X150510000Y-110460000D02*
X150510000Y-94340000D01*
X149200000Y-110460000D02*
X149200000Y-109850000D01*
X147900000Y-110460000D02*
X147900000Y-109850000D01*
X145790000Y-110460000D02*
X150510000Y-110460000D01*
%TO.C,J4*%
X145490000Y-91760000D02*
X146740000Y-91760000D01*
X145790000Y-91460000D02*
X150510000Y-91460000D01*
X147100000Y-91460000D02*
X147100000Y-90850000D01*
X148400000Y-91460000D02*
X148400000Y-90850000D01*
X150510000Y-91460000D02*
X150510000Y-83340000D01*
X146400000Y-90850000D02*
X149900000Y-90850000D01*
X149900000Y-90850000D02*
X149900000Y-83950000D01*
X145490000Y-90510000D02*
X145490000Y-91760000D01*
X145590000Y-90000000D02*
X145790000Y-90000000D01*
X145590000Y-89700000D02*
X145590000Y-90000000D01*
X145690000Y-89700000D02*
X145690000Y-90000000D01*
X145790000Y-89700000D02*
X145590000Y-89700000D01*
X145790000Y-88900000D02*
X146400000Y-88900000D01*
X146400000Y-88900000D02*
X146400000Y-90850000D01*
X149400000Y-88500000D02*
X149400000Y-88300000D01*
X149900000Y-88500000D02*
X149400000Y-88500000D01*
X149900000Y-88400000D02*
X149400000Y-88400000D01*
X149400000Y-88300000D02*
X149900000Y-88300000D01*
X149400000Y-86500000D02*
X149400000Y-86300000D01*
X149900000Y-86500000D02*
X149400000Y-86500000D01*
X149900000Y-86400000D02*
X149400000Y-86400000D01*
X149400000Y-86300000D02*
X149900000Y-86300000D01*
X146400000Y-85900000D02*
X145790000Y-85900000D01*
X146400000Y-83950000D02*
X146400000Y-85900000D01*
X149900000Y-83950000D02*
X146400000Y-83950000D01*
X145790000Y-83340000D02*
X145790000Y-91460000D01*
X147100000Y-83340000D02*
X147100000Y-83950000D01*
X148400000Y-83340000D02*
X148400000Y-83950000D01*
X150510000Y-83340000D02*
X145790000Y-83340000D01*
%TO.C,J3*%
X118275000Y-102952500D02*
X117025000Y-102952500D01*
X117975000Y-103252500D02*
X113255000Y-103252500D01*
X116665000Y-103252500D02*
X116665000Y-103862500D01*
X115365000Y-103252500D02*
X115365000Y-103862500D01*
X113255000Y-103252500D02*
X113255000Y-119372500D01*
X117365000Y-103862500D02*
X113865000Y-103862500D01*
X113865000Y-103862500D02*
X113865000Y-118762500D01*
X118275000Y-104202500D02*
X118275000Y-102952500D01*
X118175000Y-104712500D02*
X117975000Y-104712500D01*
X118175000Y-105012500D02*
X118175000Y-104712500D01*
X118075000Y-105012500D02*
X118075000Y-104712500D01*
X117975000Y-105012500D02*
X118175000Y-105012500D01*
X117975000Y-105812500D02*
X117365000Y-105812500D01*
X117365000Y-105812500D02*
X117365000Y-103862500D01*
X114365000Y-106212500D02*
X114365000Y-106412500D01*
X113865000Y-106212500D02*
X114365000Y-106212500D01*
X113865000Y-106312500D02*
X114365000Y-106312500D01*
X114365000Y-106412500D02*
X113865000Y-106412500D01*
X114365000Y-108212500D02*
X114365000Y-108412500D01*
X113865000Y-108212500D02*
X114365000Y-108212500D01*
X113865000Y-108312500D02*
X114365000Y-108312500D01*
X114365000Y-108412500D02*
X113865000Y-108412500D01*
X114365000Y-110212500D02*
X114365000Y-110412500D01*
X113865000Y-110212500D02*
X114365000Y-110212500D01*
X113865000Y-110312500D02*
X114365000Y-110312500D01*
X114365000Y-110412500D02*
X113865000Y-110412500D01*
X114365000Y-112212500D02*
X114365000Y-112412500D01*
X113865000Y-112212500D02*
X114365000Y-112212500D01*
X113865000Y-112312500D02*
X114365000Y-112312500D01*
X114365000Y-112412500D02*
X113865000Y-112412500D01*
X114365000Y-114212500D02*
X114365000Y-114412500D01*
X113865000Y-114212500D02*
X114365000Y-114212500D01*
X113865000Y-114312500D02*
X114365000Y-114312500D01*
X114365000Y-114412500D02*
X113865000Y-114412500D01*
X114365000Y-116212500D02*
X114365000Y-116412500D01*
X113865000Y-116212500D02*
X114365000Y-116212500D01*
X113865000Y-116312500D02*
X114365000Y-116312500D01*
X114365000Y-116412500D02*
X113865000Y-116412500D01*
X117365000Y-116812500D02*
X117975000Y-116812500D01*
X117365000Y-118762500D02*
X117365000Y-116812500D01*
X113865000Y-118762500D02*
X117365000Y-118762500D01*
X117975000Y-119372500D02*
X117975000Y-103252500D01*
X116665000Y-119372500D02*
X116665000Y-118762500D01*
X115365000Y-119372500D02*
X115365000Y-118762500D01*
X113255000Y-119372500D02*
X117975000Y-119372500D01*
%TO.C,J2*%
X150510000Y-67940000D02*
X149260000Y-67940000D01*
X150210000Y-68240000D02*
X145490000Y-68240000D01*
X148900000Y-68240000D02*
X148900000Y-68850000D01*
X147600000Y-68240000D02*
X147600000Y-68850000D01*
X145490000Y-68240000D02*
X145490000Y-76360000D01*
X149600000Y-68850000D02*
X146100000Y-68850000D01*
X146100000Y-68850000D02*
X146100000Y-75750000D01*
X150510000Y-69190000D02*
X150510000Y-67940000D01*
X150410000Y-69700000D02*
X150210000Y-69700000D01*
X150410000Y-70000000D02*
X150410000Y-69700000D01*
X150310000Y-70000000D02*
X150310000Y-69700000D01*
X150210000Y-70000000D02*
X150410000Y-70000000D01*
X150210000Y-70800000D02*
X149600000Y-70800000D01*
X149600000Y-70800000D02*
X149600000Y-68850000D01*
X146600000Y-71200000D02*
X146600000Y-71400000D01*
X146100000Y-71200000D02*
X146600000Y-71200000D01*
X146100000Y-71300000D02*
X146600000Y-71300000D01*
X146600000Y-71400000D02*
X146100000Y-71400000D01*
X146600000Y-73200000D02*
X146600000Y-73400000D01*
X146100000Y-73200000D02*
X146600000Y-73200000D01*
X146100000Y-73300000D02*
X146600000Y-73300000D01*
X146600000Y-73400000D02*
X146100000Y-73400000D01*
X149600000Y-73800000D02*
X150210000Y-73800000D01*
X149600000Y-75750000D02*
X149600000Y-73800000D01*
X146100000Y-75750000D02*
X149600000Y-75750000D01*
X150210000Y-76360000D02*
X150210000Y-68240000D01*
X148900000Y-76360000D02*
X148900000Y-75750000D01*
X147600000Y-76360000D02*
X147600000Y-75750000D01*
X145490000Y-76360000D02*
X150210000Y-76360000D01*
%TO.C,J1*%
X113055000Y-82872500D02*
X114305000Y-82872500D01*
X113355000Y-82572500D02*
X118075000Y-82572500D01*
X114665000Y-82572500D02*
X114665000Y-81962500D01*
X115965000Y-82572500D02*
X115965000Y-81962500D01*
X118075000Y-82572500D02*
X118075000Y-66452500D01*
X113965000Y-81962500D02*
X117465000Y-81962500D01*
X117465000Y-81962500D02*
X117465000Y-67062500D01*
X113055000Y-81622500D02*
X113055000Y-82872500D01*
X113155000Y-81112500D02*
X113355000Y-81112500D01*
X113155000Y-80812500D02*
X113155000Y-81112500D01*
X113255000Y-80812500D02*
X113255000Y-81112500D01*
X113355000Y-80812500D02*
X113155000Y-80812500D01*
X113355000Y-80012500D02*
X113965000Y-80012500D01*
X113965000Y-80012500D02*
X113965000Y-81962500D01*
X116965000Y-79612500D02*
X116965000Y-79412500D01*
X117465000Y-79612500D02*
X116965000Y-79612500D01*
X117465000Y-79512500D02*
X116965000Y-79512500D01*
X116965000Y-79412500D02*
X117465000Y-79412500D01*
X116965000Y-77612500D02*
X116965000Y-77412500D01*
X117465000Y-77612500D02*
X116965000Y-77612500D01*
X117465000Y-77512500D02*
X116965000Y-77512500D01*
X116965000Y-77412500D02*
X117465000Y-77412500D01*
X116965000Y-75612500D02*
X116965000Y-75412500D01*
X117465000Y-75612500D02*
X116965000Y-75612500D01*
X117465000Y-75512500D02*
X116965000Y-75512500D01*
X116965000Y-75412500D02*
X117465000Y-75412500D01*
X116965000Y-73612500D02*
X116965000Y-73412500D01*
X117465000Y-73612500D02*
X116965000Y-73612500D01*
X117465000Y-73512500D02*
X116965000Y-73512500D01*
X116965000Y-73412500D02*
X117465000Y-73412500D01*
X116965000Y-71612500D02*
X116965000Y-71412500D01*
X117465000Y-71612500D02*
X116965000Y-71612500D01*
X117465000Y-71512500D02*
X116965000Y-71512500D01*
X116965000Y-71412500D02*
X117465000Y-71412500D01*
X116965000Y-69612500D02*
X116965000Y-69412500D01*
X117465000Y-69612500D02*
X116965000Y-69612500D01*
X117465000Y-69512500D02*
X116965000Y-69512500D01*
X116965000Y-69412500D02*
X117465000Y-69412500D01*
X113965000Y-69012500D02*
X113355000Y-69012500D01*
X113965000Y-67062500D02*
X113965000Y-69012500D01*
X117465000Y-67062500D02*
X113965000Y-67062500D01*
X113355000Y-66452500D02*
X113355000Y-82572500D01*
X114665000Y-66452500D02*
X114665000Y-67062500D01*
X115965000Y-66452500D02*
X115965000Y-67062500D01*
X118075000Y-66452500D02*
X113355000Y-66452500D01*
%TO.C,C3*%
X152838748Y-77665000D02*
X153361252Y-77665000D01*
X152838748Y-79135000D02*
X153361252Y-79135000D01*
%TO.C,C2*%
X146938748Y-79165000D02*
X147461252Y-79165000D01*
X146938748Y-80635000D02*
X147461252Y-80635000D01*
%TO.C,C1*%
X112765000Y-85761252D02*
X112765000Y-85238748D01*
X114235000Y-85761252D02*
X114235000Y-85238748D01*
%TO.C,A1*%
X121400000Y-70180000D02*
X120920000Y-70180000D01*
X121400000Y-70180000D02*
X121400000Y-70600000D01*
X121400000Y-72720000D02*
X121400000Y-73140000D01*
X121400000Y-75260000D02*
X121400000Y-75680000D01*
X121400000Y-77800000D02*
X121400000Y-78220000D01*
X121400000Y-80340000D02*
X121400000Y-80760000D01*
X121400000Y-82880000D02*
X121400000Y-83300000D01*
X121400000Y-85420000D02*
X121400000Y-85840000D01*
X121400000Y-87960000D02*
X121400000Y-88380000D01*
X121400000Y-90500000D02*
X121400000Y-90920000D01*
X121400000Y-93040000D02*
X121400000Y-93460000D01*
X121400000Y-95580000D02*
X121400000Y-96000000D01*
X121400000Y-98120000D02*
X121400000Y-98540000D01*
X121400000Y-100660000D02*
X121400000Y-101080000D01*
X121400000Y-103200000D02*
X121400000Y-103620000D01*
X121400000Y-105740000D02*
X121400000Y-106160000D01*
X121400000Y-108280000D02*
X121400000Y-108700000D01*
X121400000Y-110820000D02*
X121400000Y-111240000D01*
X121400000Y-113360000D02*
X121400000Y-113780000D01*
X121400000Y-115900000D02*
X121400000Y-116320000D01*
X121430324Y-68060000D02*
X120920000Y-68060000D01*
X121740000Y-68060063D02*
X121740000Y-67703000D01*
X121740000Y-70180000D02*
X121740000Y-70600000D01*
X121740000Y-72720000D02*
X121740000Y-73140000D01*
X121740000Y-75260000D02*
X121740000Y-75680000D01*
X121740000Y-77800000D02*
X121740000Y-78220000D01*
X121740000Y-80340000D02*
X121740000Y-80760000D01*
X121740000Y-82880000D02*
X121740000Y-83300000D01*
X121740000Y-85420000D02*
X121740000Y-85840000D01*
X121740000Y-87960000D02*
X121740000Y-88380000D01*
X121740000Y-90500000D02*
X121740000Y-90920000D01*
X121740000Y-93040000D02*
X121740000Y-93460000D01*
X121740000Y-95580000D02*
X121740000Y-96000000D01*
X121740000Y-98120000D02*
X121740000Y-98540000D01*
X121740000Y-100660000D02*
X121740000Y-101080000D01*
X121740000Y-103200000D02*
X121740000Y-103620000D01*
X121740000Y-105740000D02*
X121740000Y-106160000D01*
X121740000Y-108280000D02*
X121740000Y-108700000D01*
X121740000Y-110820000D02*
X121740000Y-111240000D01*
X121740000Y-113360000D02*
X121740000Y-113780000D01*
X121740000Y-115900000D02*
X121740000Y-116320000D01*
X121740000Y-118439937D02*
X121740000Y-118797000D01*
X122010000Y-67640000D02*
X124500000Y-67640000D01*
X122010000Y-118860000D02*
X125847939Y-118860000D01*
X124500000Y-67640000D02*
X124500000Y-68553520D01*
X124500000Y-67640000D02*
X125847940Y-67640000D01*
X124500000Y-70946480D02*
X124500000Y-115553520D01*
X124500000Y-117946480D02*
X124500000Y-118860000D01*
X126772061Y-67640000D02*
X127775000Y-67640000D01*
X127775000Y-67640000D02*
X136245000Y-67640000D01*
X128110000Y-67640000D02*
X128110000Y-68556000D01*
X128110000Y-70944000D02*
X128110000Y-72160000D01*
X128110000Y-72160000D02*
X128406090Y-72160000D01*
X128410000Y-118860000D02*
X126772061Y-118860000D01*
X130763910Y-72160000D02*
X133256090Y-72160000D01*
X135610000Y-118860000D02*
X128410000Y-118860000D01*
X135613910Y-72160000D02*
X135910000Y-72160000D01*
X135910000Y-67640000D02*
X135910000Y-68556000D01*
X135910000Y-70944000D02*
X135910000Y-72160000D01*
X136245000Y-67640000D02*
X137247939Y-67640000D01*
X137247939Y-118860000D02*
X135610000Y-118860000D01*
X138172061Y-67640000D02*
X139520000Y-67640000D01*
X138172061Y-118860000D02*
X142010000Y-118860000D01*
X139520000Y-67640000D02*
X139520000Y-68553520D01*
X139520000Y-70946480D02*
X139520000Y-115553520D01*
X139520000Y-117946480D02*
X139520000Y-118860000D01*
X142010000Y-67640000D02*
X139520000Y-67640000D01*
X142280000Y-68060063D02*
X142280000Y-67703000D01*
X142280000Y-70180000D02*
X142280000Y-70600000D01*
X142280000Y-72720000D02*
X142280000Y-73140000D01*
X142280000Y-75260000D02*
X142280000Y-75680000D01*
X142280000Y-77800000D02*
X142280000Y-78220000D01*
X142280000Y-80340000D02*
X142280000Y-80760000D01*
X142280000Y-82880000D02*
X142280000Y-83300000D01*
X142280000Y-85420000D02*
X142280000Y-85840000D01*
X142280000Y-87960000D02*
X142280000Y-88380000D01*
X142280000Y-90500000D02*
X142280000Y-90920000D01*
X142280000Y-93040000D02*
X142280000Y-93460000D01*
X142280000Y-95580000D02*
X142280000Y-96000000D01*
X142280000Y-98120000D02*
X142280000Y-98540000D01*
X142280000Y-100660000D02*
X142280000Y-101080000D01*
X142280000Y-103200000D02*
X142280000Y-103620000D01*
X142280000Y-105740000D02*
X142280000Y-106160000D01*
X142280000Y-108280000D02*
X142280000Y-108700000D01*
X142280000Y-110820000D02*
X142280000Y-111240000D01*
X142280000Y-113360000D02*
X142280000Y-113780000D01*
X142280000Y-115900000D02*
X142280000Y-116320000D01*
X142280000Y-118439937D02*
X142280000Y-118797000D01*
X142620000Y-70180000D02*
X142620000Y-70600000D01*
X142620000Y-72720000D02*
X142620000Y-73140000D01*
X142620000Y-75260000D02*
X142620000Y-75680000D01*
X142620000Y-77800000D02*
X142620000Y-78220000D01*
X142620000Y-80340000D02*
X142620000Y-80760000D01*
X142620000Y-82880000D02*
X142620000Y-83300000D01*
X142620000Y-85420000D02*
X142620000Y-85840000D01*
X142620000Y-87960000D02*
X142620000Y-88380000D01*
X142620000Y-90500000D02*
X142620000Y-90920000D01*
X142620000Y-93040000D02*
X142620000Y-93460000D01*
X142620000Y-95580000D02*
X142620000Y-96000000D01*
X142620000Y-98120000D02*
X142620000Y-98540000D01*
X142620000Y-100660000D02*
X142620000Y-101080000D01*
X142620000Y-103200000D02*
X142620000Y-103620000D01*
X142620000Y-105740000D02*
X142620000Y-106160000D01*
X142620000Y-108280000D02*
X142620000Y-108700000D01*
X142620000Y-110820000D02*
X142620000Y-111240000D01*
X142620000Y-113360000D02*
X142620000Y-113780000D01*
X142620000Y-115900000D02*
X142620000Y-116320000D01*
X121430324Y-68060000D02*
G75*
G02*
X122010000Y-67640000I579692J-190051D01*
G01*
X122010000Y-118860000D02*
G75*
G02*
X121430324Y-118439937I1J610002D01*
G01*
X142010000Y-67640000D02*
G75*
G02*
X142589676Y-68060063I0J-610000D01*
G01*
X142589676Y-118439937D02*
G75*
G02*
X142010000Y-118860069I-579676J189837D01*
G01*
%TD*%
M02*
